<svg width="17" height="19" viewBox="0 0 17 19" fill="none" xmlns="http://www.w3.org/2000/svg">
<g clip-path="url(#clip0_14_3168)">
<path d="M6.22662 19C5.4068 18.6952 5.21065 18.4189 5.20562 17.5759C5.20059 16.8995 5.1855 16.2231 5.19556 15.5515C5.20059 15.3134 5.16538 15.1753 4.86361 15.2134C3.52574 15.3753 2.92219 14.8275 2.96745 13.3653C3.03284 11.1838 2.9926 9.00228 2.97751 6.82078C2.97751 6.49213 3.02781 6.36829 3.42515 6.36829C6.81509 6.38734 10.2 6.38258 13.5899 6.37305C13.932 6.37305 14.0376 6.4445 14.0325 6.78268C14.0175 9.13088 14.0024 11.4839 14.0376 13.8321C14.0476 14.5989 13.4692 15.2896 12.5388 15.2229C11.8195 15.1705 11.8195 15.2134 11.8195 15.8945C11.8195 16.4565 11.8195 17.0186 11.8195 17.5854C11.8195 18.4142 11.6083 18.7047 10.7834 19C10.6325 19 10.4867 19 10.3358 19C9.54615 18.6904 9.35 18.3999 9.34497 17.5568C9.34497 17.19 9.35503 16.8233 9.33994 16.4613C9.32485 16.0564 9.52603 15.5277 9.25947 15.2848C8.9929 15.0467 8.43964 15.2515 8.01213 15.2086C7.69526 15.1753 7.65 15.3134 7.65503 15.5706C7.67012 16.2327 7.66006 16.8947 7.66006 17.5568C7.66006 18.3951 7.45887 18.6904 6.66923 19.0048C6.52337 19 6.37248 19 6.22662 19Z" fill="#181438"/>
<path d="M8.46981 5.94912C6.75975 5.94912 5.05472 5.92531 3.34466 5.96341C2.84673 5.97294 2.89703 5.74907 2.93726 5.45376C3.17365 3.89623 4.02365 2.71974 5.44702 1.91954C5.70353 1.77665 5.76892 1.67186 5.59791 1.42418C5.36152 1.07171 5.1704 0.685897 4.95413 0.319138C4.88874 0.209587 4.83342 0.114325 4.97424 0.0333525C5.12513 -0.0523833 5.18549 0.0714573 5.24081 0.166719C5.48223 0.571583 5.72365 0.971683 5.94495 1.38131C6.03549 1.55278 6.12099 1.58136 6.31211 1.51468C7.77069 0.985972 9.2343 0.976446 10.6929 1.51468C10.8941 1.59089 10.9645 1.53849 11.055 1.37655C11.2612 0.990735 11.4876 0.609687 11.7189 0.233403C11.7843 0.128614 11.8245 -0.0809619 12.0308 0.0381156C12.2269 0.15243 12.0609 0.29056 12.0006 0.400111C11.8095 0.743054 11.6133 1.09076 11.4021 1.42894C11.2663 1.64328 11.2612 1.75283 11.5228 1.90049C12.9864 2.72927 13.8515 3.93909 14.0627 5.55855C14.1029 5.87291 14.0275 5.96341 13.6805 5.95865C11.9452 5.9396 10.205 5.94912 8.46981 5.94912ZM6.41773 3.62949C6.41271 3.32942 6.23164 3.15318 5.96004 3.15318C5.68845 3.15318 5.49732 3.31989 5.50738 3.61044C5.51241 3.86765 5.64821 4.03436 5.93489 4.04388C6.2417 4.05341 6.38756 3.89146 6.41773 3.62949ZM11.4976 3.59139C11.4825 3.31989 11.3115 3.14366 11.0299 3.14842C10.7583 3.15795 10.5722 3.32942 10.5822 3.6152C10.5923 3.87717 10.7432 4.02959 11.0248 4.03912C11.3367 4.04864 11.4775 3.88194 11.4976 3.59139Z" fill="#181438"/>
<path d="M2.47959 9.79293C2.47959 10.5646 2.48462 11.3409 2.47959 12.1126C2.47456 12.8747 1.98669 13.3891 1.26243 13.4034C0.548225 13.4129 0.0150891 12.9032 0.00502995 12.1507C-0.0100588 10.5598 -0.0100588 8.97368 0.00502995 7.38281C0.0100595 6.65405 0.538166 6.15869 1.24231 6.15869C1.94142 6.15869 2.4645 6.66834 2.47456 7.38757C2.48965 8.18777 2.47959 8.98797 2.47959 9.79293Z" fill="#181438"/>
<path d="M16.995 9.75478C16.995 10.555 17.005 11.3599 16.995 12.1601C16.9899 12.6793 16.7586 13.0937 16.2405 13.2985C15.7677 13.4843 15.31 13.4128 14.9177 13.0794C14.621 12.827 14.5254 12.4983 14.5254 12.1316C14.5254 10.555 14.5204 8.98316 14.5254 7.40657C14.5254 6.67782 15.0234 6.16817 15.7275 6.15388C16.4367 6.13959 16.9698 6.6159 16.9899 7.34942C17.0151 8.15438 16.995 8.95458 16.995 9.75478Z" fill="#181438"/>
</g>
<defs>
<clipPath id="clip0_14_3168">
<rect width="17" height="19" fill="white"/>
</clipPath>
</defs>
</svg>
