<svg width="167" height="179" viewBox="0 0 167 179" fill="none" xmlns="http://www.w3.org/2000/svg">
<g clip-path="url(#clip0_192_11558)">
<path d="M82.3999 0C91.3099 1.68 99.4899 5.58 107.97 8.52C126.04 14.78 144 21.39 162.09 27.59C165.68 28.82 166.56 30.58 165.97 34.07C163.72 47.41 162.3 60.91 160.91 74.33C158.79 94.78 156.01 115.15 154.22 135.63C154.02 137.89 153.6 139.64 151.33 140.88C129.05 153.12 106.82 165.46 84.5599 177.74C83.9599 178.07 83.2799 178.99 82.4599 178C82.4999 155.39 82.5399 132.77 82.5799 110.16C85.3899 110.1 88.1999 109.98 90.9999 110C95.6199 110.04 101.31 108.57 104.55 110.73C107.74 112.86 108.45 118.72 110.24 122.94C112.04 127.18 112.74 132.8 115.91 135.29C119.35 138 125.16 135.72 129.9 136.18C134.4 136.61 134.73 135.31 132.96 131.37C116.34 94.23 99.8999 57.01 83.4199 19.81C81.5999 13.28 83.1599 6.58 82.3999 0Z" fill="#949494"/>
<path d="M82.4001 0C83.1601 6.58 81.6001 13.28 83.4201 19.81C81.8901 20.78 81.6201 22.53 80.9701 23.99C68.1101 52.75 55.3001 81.54 42.4801 110.33C38.7401 118.72 35.0201 127.12 30.9901 136.19C36.7901 136.19 41.7401 136.01 46.6701 136.26C49.6801 136.41 50.9801 135.29 51.9701 132.48C54.3501 125.8 57.2101 119.3 59.7801 112.69C60.5201 110.79 61.4501 109.87 63.7101 109.95C69.9901 110.18 76.2901 110.12 82.5801 110.17C82.5401 132.78 82.5001 155.4 82.4601 178.01C59.9201 165.61 37.3901 153.18 14.8201 140.83C12.8001 139.72 12.2001 138.16 11.9601 136.05C8.06012 101.91 4.11012 67.77 0.170116 33.62C-0.099884 31.29 -0.489884 29.35 2.72012 28.23C29.3201 18.94 55.8501 9.44 82.4001 0Z" fill="#D0D0D0"/>
<path d="M82.58 110.17C76.29 110.12 70 110.18 63.71 109.95C61.45 109.87 60.52 110.79 59.78 112.69C57.21 119.3 54.35 125.8 51.97 132.48C50.97 135.28 49.67 136.4 46.67 136.26C41.74 136.02 36.79 136.19 30.99 136.19C35.02 127.13 38.75 118.73 42.48 110.33C55.3 81.5401 68.11 52.7501 80.96 23.9901C81.61 22.5301 81.88 20.7801 83.41 19.8101C99.9 57.0101 116.33 94.2301 132.95 131.37C134.71 135.31 134.38 136.62 129.89 136.18C125.15 135.72 119.34 138 115.9 135.29C112.73 132.8 112.03 127.18 110.23 122.94C108.44 118.72 107.73 112.86 104.54 110.73C101.3 108.57 95.61 110.04 90.99 110C88.19 109.99 85.38 110.11 82.58 110.17ZM82.57 93.8001C87.5 93.8001 92.44 93.8001 97.35 93.8001C98.02 92.0901 96.94 90.8301 96.4 89.5101C92.48 79.9001 88.49 70.3101 84.39 60.7701C84.31 60.5701 84.56 56.8201 82.42 59.8201C79.38 66.8701 76.25 73.8701 73.35 80.9801C71.65 85.1601 69.06 89.0401 68.81 93.7401C73.4 93.7501 77.99 93.7801 82.57 93.8001Z" fill="#FEFDFE"/>
<path d="M82.4299 59.8198C84.5699 56.8198 84.3099 60.5698 84.3999 60.7698C88.4899 70.3098 92.4899 79.8998 96.4099 89.5098C96.9499 90.8198 98.0299 92.0898 97.3599 93.7998C92.4399 93.7998 87.5099 93.7998 82.5799 93.7998C82.5199 82.4698 82.4799 71.1398 82.4299 59.8198Z" fill="#949494"/>
<path d="M82.4301 59.8198C82.4801 71.1498 82.5201 82.4698 82.5701 93.7998C77.9901 93.7798 73.4001 93.7598 68.8201 93.7398C69.0801 89.0398 71.6601 85.1598 73.3601 80.9798C76.2601 73.8698 79.3901 66.8598 82.4301 59.8198Z" fill="#D0D0D0"/>
</g>
<defs>
<clipPath id="clip0_192_11558">
<rect width="166.14" height="178.46" fill="white"/>
</clipPath>
</defs>
</svg>
