<svg width="14" height="17" viewBox="0 0 14 17" fill="none" xmlns="http://www.w3.org/2000/svg">
<g clip-path="url(#clip0_14_3174)">
<path d="M4.67308 17.0001C4.53833 17.0001 4.40358 17.0001 4.26882 17.0001C4.17738 16.9573 4.0715 16.9573 3.97525 16.924C3.5758 16.8004 3.25335 16.5627 2.96459 16.2775C2.4352 15.7545 1.99244 15.1603 1.5978 14.5375C0.697834 13.1209 0.182881 11.5663 0.0288759 9.89772C0.0240633 9.82165 0.0336886 9.74084 0 9.66953C0 9.36052 0 9.04677 0 8.73776C0.0288759 8.7235 0.014438 8.69498 0.0192506 8.67121C0.0577518 8.1768 0.14438 7.68715 0.303197 7.21651C0.664146 6.15639 1.28017 5.29117 2.26676 4.71595C3.23891 4.15023 4.27363 3.97434 5.37092 4.33088C5.75112 4.45448 6.12169 4.61612 6.49708 4.75398C6.89172 4.90135 7.28154 4.92037 7.67618 4.76824C7.96494 4.65415 8.26332 4.54956 8.55208 4.43547C9.31729 4.14072 10.0969 4.02188 10.9151 4.15974C11.9835 4.34039 12.8546 4.83955 13.5043 5.70476C13.5669 5.79033 13.5669 5.78558 13.4754 5.84738C12.5081 6.50342 11.8872 7.37814 11.7332 8.54285C11.6562 9.14184 11.7044 9.73133 11.9161 10.3018C12.2819 11.2906 12.9845 11.9799 13.9326 12.4316C13.9952 12.4648 14.0096 12.4886 13.9856 12.5504C13.9326 12.6835 13.8941 12.8166 13.8412 12.9497C13.4947 13.8672 12.9942 14.6944 12.3974 15.4741C12.1183 15.8401 11.8247 16.1919 11.4637 16.4819C10.9151 16.924 10.2991 17.0666 9.60605 16.9192C9.30285 16.8527 9.02372 16.7338 8.73977 16.6102C8.39326 16.4629 8.03713 16.3535 7.66174 16.3155C7.05053 16.2585 6.4682 16.3678 5.90993 16.6055C5.6308 16.7243 5.35167 16.8479 5.05328 16.9192C4.92815 16.9525 4.80303 16.9763 4.67308 17.0001Z" fill="#181438"/>
<path d="M10.4483 0.370823C10.4194 1.27882 10.0873 2.07272 9.49053 2.75729C8.99002 3.33251 8.35956 3.71283 7.60398 3.87921C7.41147 3.922 7.21896 3.93626 7.02164 3.90774C6.97833 3.90298 6.96389 3.88872 6.95908 3.84594C6.90614 3.51316 6.93983 3.18039 7.03608 2.86187C7.47885 1.38816 8.46063 0.456394 9.95736 0.0618185C10.0873 0.0285411 10.2221 0.0142794 10.3568 0.00477155C10.4001 1.76318e-05 10.4194 0.0142794 10.4242 0.0618185C10.4434 0.161651 10.4483 0.266237 10.4483 0.370823Z" fill="#181438"/>
</g>
<defs>
<clipPath id="clip0_14_3174">
<rect width="14" height="17" fill="white"/>
</clipPath>
</defs>
</svg>
