<svg width="24" height="21" viewBox="0 0 24 21" fill="none" xmlns="http://www.w3.org/2000/svg">
<path d="M22.8571 10.0685H21.7143V12.6575H2.28571V2.30137H10.5714V1.15068C10.5714 0.736438 10.68 0.350959 10.8514 0H1.14286C0.514286 0 0 0.517808 0 1.15068V15.5342C0 16.1671 0.514286 16.6849 1.14286 16.6849H9.66857L9.24 19.274H7.14286C6.66857 19.274 6.28571 19.6595 6.28571 20.137C6.28571 20.6145 6.66857 21 7.14286 21H16.8571C17.3314 21 17.7143 20.6145 17.7143 20.137C17.7143 19.6595 17.3314 19.274 16.8571 19.274H14.76L14.3314 16.6849H22.8571C23.4857 16.6849 24 16.1671 24 15.5342V9.78658C23.6514 9.95918 23.2686 10.0685 22.8571 10.0685ZM12 15.8219C11.5257 15.8219 11.1429 15.4364 11.1429 14.9589C11.1429 14.4814 11.5257 14.0959 12 14.0959C12.4743 14.0959 12.8571 14.4814 12.8571 14.9589C12.8571 15.4364 12.4743 15.8219 12 15.8219Z" fill="#181438"/>
<path d="M22.8571 0H13.1429C12.5143 0 12 0.517808 12 1.15068V9.20548C12 9.67726 12.5371 9.94767 12.9143 9.66575L13.9829 8.86027C14.1829 8.71068 14.4229 8.63014 14.6686 8.63014H22.8571C23.4857 8.63014 24 8.11233 24 7.47945V1.15068C24 0.517808 23.4857 0 22.8571 0ZM15.6114 6.29425C15.4743 6.41507 15.3086 6.4726 15.1429 6.4726C14.9429 6.4726 14.7429 6.3863 14.6057 6.22521L13.4629 4.90192C13.24 4.64877 13.2286 4.27479 13.4286 4.00438L14.5714 2.45096C14.8057 2.12877 15.2514 2.06548 15.5657 2.30137C15.8857 2.53726 15.9486 2.98603 15.7143 3.30822L14.9143 4.40137L15.68 5.2874C15.9429 5.58082 15.9086 6.03534 15.6114 6.29425ZM19.2629 2.49123L18.16 6.51863C18.0743 6.83507 17.7829 7.04795 17.4743 7.04795C17.4114 7.04795 17.3486 7.04219 17.2857 7.02493C16.9086 6.92137 16.68 6.52438 16.7886 6.1389L17.8914 2.11151C17.9943 1.73178 18.3886 1.5074 18.7714 1.61096C19.1429 1.71452 19.3657 2.11151 19.2629 2.49123ZM22.5714 4.62575L21.4286 6.17918C21.2857 6.36904 21.0743 6.4726 20.8514 6.4726C20.7029 6.4726 20.5543 6.42658 20.4286 6.32877C20.1086 6.09288 20.0457 5.64411 20.28 5.32192L21.08 4.22877L20.3143 3.34274C20.0571 3.04356 20.0857 2.58904 20.3829 2.33014C20.68 2.07123 21.1314 2.1 21.3886 2.39918L22.5314 3.72247C22.76 3.98137 22.7714 4.35534 22.5714 4.62575Z" fill="#181438"/>
</svg>
