<svg width="32" height="32" viewBox="0 0 32 32" fill="none" xmlns="http://www.w3.org/2000/svg">
<g clip-path="url(#clip0_50_6739)">
<path d="M31.7958 18.5372C33.1973 9.81286 27.2609 1.60427 18.5366 0.202795C9.81228 -1.19868 1.60369 4.73766 0.202211 13.462C-1.19927 22.1863 4.73708 30.3949 13.4614 31.7964C22.1857 33.1979 30.3943 27.2615 31.7958 18.5372Z" fill="#00C88F"/>
<path d="M17.2543 18.6763C17.1262 19.4829 16.8114 20.2073 16.2879 20.8368C16.2151 20.8827 16.144 20.9285 16.1313 21.025L16.1218 21.0298C15.0827 21.9487 13.8189 22.1116 12.5046 22.1116C11.2361 22.11 9.9676 22.1258 8.69912 22.1116C8.00952 22.1037 7.31992 22.1606 6.6319 22.0768C6.63506 20.2342 6.64139 18.39 6.64139 16.5474C6.64139 14.1021 6.63664 11.6569 6.63348 9.21165C8.09176 9.20374 9.54846 9.18634 11.0067 9.19267C11.9605 9.19742 12.9174 9.12624 13.868 9.27017C14.3156 9.44257 14.7901 9.52956 15.2282 9.73992C16.1708 10.1939 16.6643 10.9657 16.7972 11.9606C16.9712 13.2702 16.6833 14.4121 15.4132 15.1017C15.3832 15.1191 15.3626 15.1539 15.3168 15.2014C16.4903 15.6426 17.0566 16.541 17.2527 17.7194C17.2543 18.0373 17.2543 18.3568 17.2543 18.6763ZM12.8921 19.8277C13.2511 19.8277 13.5833 19.7423 13.8695 19.5161C14.2444 19.2662 14.4548 18.9214 14.4737 18.4675C14.567 18.1654 14.5449 17.8633 14.4627 17.5644C14.3377 16.9523 13.9091 16.6691 13.3444 16.5331C13.2891 16.5252 13.2353 16.5189 13.1799 16.511C13.1325 16.4967 13.085 16.4746 13.036 16.4699C11.8213 16.3797 10.6034 16.4509 9.38872 16.4271C9.17678 16.4224 9.22106 16.5695 9.22106 16.685C9.21948 17.6513 9.22897 18.6162 9.21632 19.5825C9.21315 19.8483 9.32071 19.891 9.55163 19.8862C10.1163 19.8736 10.6809 19.8925 11.244 19.8799C11.7928 19.8657 12.3448 19.94 12.8921 19.8277ZM11.1681 11.437C10.5512 11.437 10.023 11.4449 9.49627 11.4339C9.28117 11.4291 9.21315 11.5066 9.21632 11.717C9.22581 12.4699 9.22897 13.2243 9.21474 13.9772C9.20999 14.2271 9.2954 14.2998 9.53898 14.2967C10.5307 14.2856 11.5224 14.2982 12.5141 14.2872C12.8146 14.284 13.1135 14.2366 13.3998 14.1306C14.0593 13.8854 14.3187 13.4394 14.2555 12.6407C14.2048 12.0064 13.8569 11.6569 13.1799 11.5288C12.484 11.3943 11.7802 11.456 11.1681 11.437Z" fill="#FEFEFE"/>
<path d="M18.0182 16.5063C18.1416 15.8262 18.2729 15.146 18.6271 14.5403C19.6188 12.8479 21.1689 12.2326 23.0463 12.307C25.3128 12.3971 26.8913 13.7162 27.331 15.8752C27.4765 16.5885 27.5018 17.3161 27.4464 18.0436C25.2638 18.0436 23.0827 18.0405 20.9 18.0484C20.7766 18.0484 20.5868 17.9345 20.5283 18.1686C20.5552 18.9816 20.8415 19.6617 21.5659 20.0887C21.7715 20.2105 22.0198 20.2611 22.2475 20.3449C22.3836 20.3671 22.518 20.3971 22.654 20.4082C23.312 20.4588 23.9209 20.3544 24.3923 19.8356C24.5583 19.7044 24.6912 19.5525 24.745 19.3406C25.5959 19.3311 26.4468 19.3216 27.2994 19.3121C27.3152 19.8878 26.9909 20.318 26.6746 20.7467C26.5639 20.8954 26.4358 21.0314 26.3171 21.1737C25.9091 21.5438 25.452 21.8443 24.9569 22.0848C24.8098 22.1369 24.6612 22.1891 24.5141 22.2413C24.3037 22.2603 24.1012 22.3046 23.9067 22.3884C23.8055 22.3963 23.7043 22.4042 23.6046 22.4122C22.4579 22.5007 21.3428 22.4027 20.31 21.838C20.2309 21.7937 20.1534 21.7621 20.0617 21.7921C20.0364 21.7653 20.0095 21.74 19.9842 21.7131C19.7865 21.5565 19.5888 21.3983 19.3911 21.2417C18.6319 20.5553 18.2491 19.6743 18.072 18.6889C17.9771 17.9645 17.9945 17.2354 18.0182 16.5063ZM22.7126 16.3861C22.7126 16.3845 22.7126 16.3829 22.7126 16.3829C23.3262 16.3829 23.9415 16.375 24.5552 16.3876C24.7687 16.3924 24.8778 16.3086 24.8288 16.114C24.7608 15.842 24.7307 15.5573 24.5757 15.3058C24.1218 14.5719 23.1364 14.2034 22.1526 14.4185C21.3602 14.5909 20.6975 15.3438 20.5963 16.163C20.5663 16.4114 20.7133 16.3876 20.8683 16.3876C21.4836 16.3861 22.0989 16.3861 22.7126 16.3861Z" fill="#FEFEFE"/>
</g>
<defs>
<clipPath id="clip0_50_6739">
<rect width="32" height="32" fill="white"/>
</clipPath>
</defs>
</svg>
