<svg width="21" height="32" viewBox="0 0 21 32" fill="none" xmlns="http://www.w3.org/2000/svg">
<g clip-path="url(#clip0_14_3163)">
<path d="M14.4364 26.3549H6.57165C5.83509 26.3549 5.24585 26.9538 5.24585 27.6923V27.881C5.24585 28.6195 5.84328 29.2185 6.57165 29.2185H7.8729V29.5384C7.8729 30.9005 8.96954 32 10.3281 32H10.68C12.0385 32 13.1352 30.9005 13.1352 29.5384V29.2185H14.4364C15.173 29.2185 15.7704 28.6195 15.7704 27.881V27.6923C15.7622 26.9538 15.173 26.3549 14.4364 26.3549Z" fill="#181438"/>
<path d="M9.28058 0.0656193C4.85307 0.566132 0.597417 4.81639 0.0736442 9.24716C-0.319185 12.5949 0.859303 15.6718 2.95439 17.8379C4.1738 19.0933 4.84488 20.7836 4.84488 22.5313C4.84488 23.4256 5.56507 24.1477 6.45712 24.1477H14.5347C15.4267 24.1477 16.1469 23.4256 16.1469 22.5313C16.1469 20.8 16.7853 19.1097 17.9965 17.879C19.8461 15.9836 20.9918 13.3907 20.9918 10.5272C21 4.30767 15.6231 -0.648227 9.28058 0.0656193ZM9.477 20.1025C9.477 20.6687 9.01869 21.1282 8.454 21.1282C7.88931 21.1282 7.43101 20.6687 7.43101 20.1025V15.6636C7.43101 14.2687 6.30163 13.1364 4.91036 13.1364C4.34566 13.1364 3.88736 12.6769 3.88736 12.1107C3.88736 11.5446 4.34566 11.0851 4.91036 11.0851C7.43101 11.0851 9.477 13.1364 9.477 15.6636V20.1025ZM16.0896 13.1364C14.6984 13.1364 13.569 14.2687 13.569 15.6636V20.1025C13.569 20.6687 13.1107 21.1282 12.546 21.1282C11.9813 21.1282 11.523 20.6687 11.523 20.1025V15.6636C11.523 13.1364 13.569 11.0851 16.0896 11.0851C16.6543 11.0851 17.1126 11.5446 17.1126 12.1107C17.1126 12.6769 16.6625 13.1364 16.0896 13.1364Z" fill="#181438"/>
</g>
<defs>
<clipPath id="clip0_14_3163">
<rect width="21" height="32" fill="white"/>
</clipPath>
</defs>
</svg>
