<svg width="30" height="30" viewBox="0 0 30 30" fill="none" xmlns="http://www.w3.org/2000/svg">
<g clip-path="url(#clip0_18_4354)">
<path d="M30 15C30 6.7156 23.2844 0 15 0C6.7156 0 0 6.7156 0 15C0 22.4867 5.48488 28.6922 12.6557 29.8176V19.3357H8.84786V15H12.6557V11.6948C12.6557 7.93594 14.8947 5.85854 18.3215 5.85854C19.9629 5.85854 21.6785 6.15214 21.6785 6.15214V9.84282H19.7865C17.9226 9.84282 17.3413 10.9994 17.3413 12.1856V15H21.5021L20.8363 19.3357H17.3413V29.8176C24.5136 28.6922 30 22.4867 30 15Z" fill="#00C88F"/>
<path d="M20.8378 19.3358L21.5035 15.0001H17.3428V12.1857C17.3428 10.9995 17.9241 9.84292 19.7879 9.84292H21.68V6.15224C21.68 6.15224 19.9629 5.85864 18.3229 5.85864C14.8962 5.85864 12.6572 7.93456 12.6572 11.6949V15.0001H8.84784V19.3358H12.6557V29.8177C13.4193 29.9378 14.2022 30.0001 15 30.0001C15.7977 30.0001 16.5806 29.9378 17.3443 29.8177V19.3358H20.8378Z" fill="white"/>
</g>
<defs>
<clipPath id="clip0_18_4354">
<rect width="30" height="30" fill="white"/>
</clipPath>
</defs>
</svg>
