<svg width="50" height="68" viewBox="0 0 50 68" fill="none" xmlns="http://www.w3.org/2000/svg">
<g clip-path="url(#clip0_83_11371)">
<path d="M32.7925 22.3043C34.1312 21.4026 35.1208 20.1306 36.2728 19.0317C37.7789 17.5938 39.2462 16.1126 40.7159 14.6362C41.2616 14.088 41.8607 13.7514 42.6513 13.9726C43.4541 14.1986 43.5559 14.9368 43.6602 15.5668C45.1324 24.3457 46.5779 33.1294 48.0331 41.9108C48.6467 45.6017 49.219 49.3023 49.9224 52.9788C50.177 54.3061 49.7938 55.1549 48.6394 55.7176C47.8536 56.0999 47.0435 56.4726 46.2941 56.8814C43.978 58.1485 41.5599 59.2282 39.365 60.7406C37.6916 61.8924 35.812 62.7508 34.0221 63.7343C31.8806 64.9125 29.7269 66.069 27.595 67.2617C25.8319 68.2476 24.1026 68.2451 22.337 67.2617C17.6101 64.6311 12.8444 62.0727 8.15141 59.3845C5.70186 57.9826 3.25715 56.5808 0.744543 55.292C0.409852 55.1212 -0.201324 55.0515 0.0606085 54.3903C0.516565 54.3614 0.742118 53.9983 1.02345 53.7242C6.45855 48.4607 11.6826 42.988 17.222 37.8279C20.3871 34.8799 23.3847 31.7541 26.4455 28.6979C28.5749 26.5771 30.68 24.4371 32.7925 22.3043Z" fill="#D0D0D0"/>
<path d="M32.7924 22.3044C30.68 24.4372 28.5748 26.5772 26.4503 28.698C23.3895 31.7541 20.3894 34.88 17.2269 37.828C11.6875 42.9881 6.46095 48.4608 1.02827 53.7243C0.746939 53.996 0.521386 54.3615 0.0654297 54.3904C1.54486 45.0392 3.0243 35.6879 4.50615 26.3343C5.80127 18.1565 7.10608 9.97875 8.38664 1.79855C8.52003 0.942543 8.76256 0.216376 9.706 0.0336324C10.7368 -0.165943 11.2 0.528965 11.6244 1.31284C14.2365 6.11949 16.8655 10.9189 19.4897 15.7184C19.6788 16.067 19.8777 16.4109 20.1372 16.8725C20.9133 15.9468 21.2844 14.896 21.8204 13.9486C22.4291 12.8714 22.9942 11.7701 23.5763 10.6761C23.8892 10.0894 24.2651 9.60846 25.0242 9.58441C25.8391 9.55796 26.2563 10.0509 26.5909 10.6809C28.6549 14.557 30.7237 18.4307 32.7924 22.3044Z" fill="#949494"/>
</g>
<defs>
<clipPath id="clip0_83_11371">
<rect width="50" height="68" fill="white"/>
</clipPath>
</defs>
</svg>
