<svg width="25" height="22" viewBox="0 0 25 22" fill="none" xmlns="http://www.w3.org/2000/svg">
<path d="M22.561 3.91781H15.8537C14.5061 3.91781 13.4146 4.99671 13.4146 6.32877V19.589C13.4146 20.9211 14.5061 22 15.8537 22H22.561C23.9085 22 25 20.9211 25 19.589V6.32877C25 4.99671 23.9085 3.91781 22.561 3.91781ZM19.6646 20.4932H18.75C18.2439 20.4932 17.8354 20.0893 17.8354 19.589C17.8354 19.0888 18.2439 18.6849 18.75 18.6849H19.6646C20.1707 18.6849 20.5793 19.0888 20.5793 19.589C20.5793 20.0893 20.1707 20.4932 19.6646 20.4932ZM23.061 16.8104C23.061 17.1419 22.7866 17.4132 22.4512 17.4132H15.9634C15.628 17.4132 15.3537 17.1419 15.3537 16.8104V7.07616C15.3537 6.74466 15.628 6.47342 15.9634 6.47342H22.4451C22.7805 6.47342 23.0549 6.74466 23.0549 7.07616V16.8104H23.061ZM11.8902 13.863H2.43902V2.41096H18.2927H20.7317V1.20548C20.7317 0.542466 20.1829 0 19.5122 0H1.21951C0.548781 0 0 0.542466 0 1.20548V15.0685C0 15.7315 0.548781 16.274 1.21951 16.274H8.43293L8.02439 18.6849H5.79268C5.28659 18.6849 4.87805 19.0888 4.87805 19.589C4.87805 20.0893 5.28659 20.4932 5.79268 20.4932H12C11.9329 20.2038 11.8902 19.9025 11.8902 19.589V13.863Z" fill="#181438"/>
<path d="M11.5854 11.452H4.87807C4.5427 11.452 4.26831 11.7233 4.26831 12.0548C4.26831 12.3863 4.5427 12.6575 4.87807 12.6575H11.5854C11.9207 12.6575 12.1951 12.3863 12.1951 12.0548C12.1951 11.7233 11.9207 11.452 11.5854 11.452ZM21.3415 15.0685H17.0732C16.7378 15.0685 16.4634 15.3397 16.4634 15.6712C16.4634 16.0027 16.7378 16.2739 17.0732 16.2739H21.3415C21.6768 16.2739 21.9512 16.0027 21.9512 15.6712C21.9512 15.3397 21.6768 15.0685 21.3415 15.0685Z" fill="#181438"/>
</svg>
