<svg width="103" height="39" viewBox="0 0 103 39" fill="none" xmlns="http://www.w3.org/2000/svg">
<g clip-path="url(#clip0_83_11365)">
<path d="M0 16.2777C0.305316 15.8985 0.630606 15.5308 0.907388 15.1312C1.1642 14.7606 1.47807 14.6187 1.92321 14.6216C3.68377 14.639 5.44148 14.6274 7.20204 14.6274C12.8518 14.6274 18.5016 14.6274 24.1514 14.6274C24.2798 14.6274 24.411 14.6158 24.5366 14.6361C24.7135 14.6651 24.8248 14.7664 24.7591 14.972C24.7506 15.0009 24.742 15.027 24.7306 15.053C24.1571 16.7149 24.5537 16.4457 22.9444 16.4544C15.5483 16.4862 8.15508 16.5036 0.761864 16.5239C0.507909 16.5239 0.245394 16.576 0 16.4544C0 16.3936 0 16.3357 0 16.2777Z" fill="#949494"/>
<path d="M63.7255 26.6746C62.9979 28.1107 62.179 29.3933 61.2345 30.5978C57.9902 34.7294 53.8869 37.4742 48.7422 38.4875C43.783 39.4633 39.0634 38.9045 34.7661 36.0149C30.6858 33.2702 28.229 29.4628 27.5498 24.5205C26.7423 18.6575 28.4059 13.5096 31.9698 8.91182C34.5179 5.61694 37.6652 3.10959 41.5459 1.6185C45.398 0.138992 49.3728 -0.50377 53.4475 0.448792C58.6436 1.66193 62.4215 4.73387 64.7071 9.64144C65.1865 10.6693 65.158 10.7185 64.0794 11.0051C61.36 11.729 58.635 12.4325 55.9214 13.1795C55.3536 13.3359 54.9627 13.2316 54.6117 12.7742C53.399 11.1846 51.7583 10.3161 49.8465 9.92808C47.6807 9.4851 45.6748 9.9744 43.7887 11.0573C41.272 12.502 39.3716 14.5027 38.507 17.3517C37.6852 20.0588 37.6025 22.7688 39.0891 25.2907C40.8154 28.2236 43.4834 29.402 46.7762 29.1791C49.8094 28.9735 52.0893 27.4071 53.8498 24.9722C54.0781 24.6566 54.295 24.3352 54.5175 24.0138C54.5318 23.9936 54.529 23.9617 54.5375 23.9241C54.3948 23.8343 54.2351 23.8835 54.0867 23.8835C51.1106 23.8806 48.1373 23.8806 45.1612 23.8806C43.8971 23.8806 43.5518 23.3653 44.0512 22.1927C44.7902 20.4526 45.5806 18.7357 46.4167 17.039C46.7705 16.321 47.2698 15.9996 48.0745 16.0025C53.2107 16.0227 58.344 16.0083 63.4801 16.0227C63.8283 16.0227 63.9538 15.9098 64.0737 15.5884C66.0397 10.29 69.3354 6.10915 74.2575 3.33832C76.5402 2.0528 79.0227 1.34055 81.5851 0.888881C83.2372 0.599348 84.9008 0.469059 86.5786 0.526965C90.6904 0.663046 94.2914 2.11071 97.4159 4.81783C100.486 7.47864 102.287 10.8401 102.803 14.8849C103.631 21.3617 101.839 26.9873 97.3674 31.727C93.9376 35.3606 89.7773 37.6363 84.9236 38.586C80.3125 39.4893 75.8668 38.9826 71.7208 36.6432C67.8687 34.4688 65.1494 31.31 63.8368 26.9902C63.814 26.9005 63.7797 26.8194 63.7255 26.6746ZM84.5926 9.81806C84.2787 9.83253 83.962 9.82385 83.651 9.86728C78.9828 10.539 75.2277 13.1998 73.8523 18.5359C72.4142 24.1267 76.312 29.2775 82.0188 29.3296C84.156 29.3499 86.0564 28.6319 87.8084 27.4593C91.2011 25.1864 92.9845 22.0016 92.8675 17.8526C92.7363 13.3098 89.101 9.83253 84.5926 9.81806Z" fill="#949494"/>
<path d="M16.8494 11.842C13.9189 11.842 10.9885 11.842 8.06086 11.8391C7.90963 11.8391 7.70703 11.9173 7.62143 11.758C7.52156 11.5698 7.72701 11.4511 7.82402 11.3266C9.11948 9.69367 8.48887 9.96004 10.5547 9.95425C15.9277 9.94267 21.3036 9.95135 26.6766 9.95135C26.805 9.95135 26.9334 9.94846 27.0618 9.95425C27.3043 9.96583 27.3728 10.0961 27.2473 10.2959C26.9648 10.7476 26.6794 11.1992 26.3713 11.6335C26.1858 11.8941 25.8862 11.8999 25.5923 11.8999C22.6761 11.897 19.7627 11.897 16.8465 11.897C16.8494 11.8796 16.8494 11.8594 16.8494 11.842Z" fill="#949494"/>
<path d="M17.8197 21.2025C16.0905 21.2025 14.3585 21.2025 12.6293 21.2025C12.0957 21.2025 12.0472 21.1272 12.3069 20.6698C13.2171 19.06 12.7919 19.3292 14.5554 19.3206C17.4145 19.3061 20.2736 19.3177 23.1356 19.3177C23.6892 19.3177 23.7291 19.3524 23.6949 19.9112C23.595 21.5152 23.6749 21.2228 22.3252 21.2344C20.8243 21.2459 19.3234 21.2373 17.8225 21.2373C17.8197 21.2257 17.8197 21.2141 17.8197 21.2025Z" fill="#949494"/>
</g>
<defs>
<clipPath id="clip0_83_11365">
<rect width="103" height="39" fill="white"/>
</clipPath>
</defs>
</svg>
