<svg width="113" height="128" viewBox="0 0 113 128" fill="none" xmlns="http://www.w3.org/2000/svg">
<g clip-path="url(#clip0_192_11525)">
<path d="M56.6738 0.0304626C74.7731 0.0304626 92.8724 0.0478365 110.967 5.82304e-05C112.592 -0.00428525 113.139 0.230263 112.965 2.08493C111.028 22.8164 109.191 43.5565 107.345 64.2923C105.972 79.7203 104.613 95.1527 103.279 110.585C102.919 114.733 102.98 114.768 99.0532 115.871C85.3191 119.728 71.5763 123.55 57.8422 127.412C56.891 127.681 56.0397 127.638 55.1015 127.373C40.7506 123.307 26.3998 119.25 12.0272 115.263C10.7502 114.907 10.3419 114.36 10.229 113.074C8.09635 88.607 5.98976 64.1272 3.6964 39.6691C2.50195 26.9036 1.72012 14.0947 0.0305059 1.37694C-0.186668 -0.251864 0.825363 0.0304626 1.72881 0.0304626C10.672 0.0261191 19.6109 0.0304626 28.5541 0.0304626C37.9274 0.0304626 47.3006 0.0304626 56.6738 0.0304626ZM56.6087 64.3748C56.6087 81.6054 56.6087 98.8316 56.6087 116.062C56.6087 118.699 56.6217 118.738 59.2191 118.034C63.3063 116.931 67.3805 115.771 71.459 114.642C78.4477 112.709 85.4277 110.763 92.425 108.874C93.7498 108.518 94.2754 107.875 94.284 106.459C94.2971 104.313 94.549 102.167 94.7488 100.026C95.2874 94.1797 95.8694 88.3378 96.3993 82.4914C96.7424 78.7083 96.9944 74.9164 97.3288 71.1332C97.8717 65.0002 98.4494 58.8673 99.0054 52.7343C99.3268 49.1639 99.6135 45.5936 99.9436 42.0276C100.487 36.1118 101.06 30.1959 101.594 24.2801C101.937 20.4969 102.124 16.6964 102.589 12.9306C102.958 9.94663 103.101 9.964 100.083 9.964C86.6743 9.964 73.2659 9.964 59.8533 9.964C56.6087 9.964 56.6043 9.964 56.6043 13.1174C56.6087 30.2046 56.6087 47.2875 56.6087 64.3748ZM52.1262 62.2856C52.1262 50.5365 52.0741 38.7873 52.1783 27.0426C52.1957 25.075 51.6311 24.5538 49.7634 24.7014C47.6872 24.8665 45.5762 24.8708 43.5001 24.7014C41.615 24.5494 41.0807 25.0967 41.0894 27.0513C41.172 45.068 41.1372 63.0891 41.1372 81.1059C41.1372 83.6989 41.1372 83.6946 38.5572 82.9779C32.7282 81.3578 26.8906 79.7681 21.0747 78.1002C19.7369 77.718 19.2678 77.9395 19.3112 79.4119C19.3981 82.5088 19.4328 85.6144 19.2982 88.707C19.2287 90.2967 19.7456 90.9439 21.2832 91.3565C30.9474 93.9713 40.5943 96.6425 50.2151 99.4136C52.0915 99.9566 52.1653 99.2746 52.1566 97.7457C52.1045 85.9271 52.1262 74.1085 52.1262 62.2856Z" fill="#328868"/>
<path d="M56.6086 64.3747C56.6086 47.2918 56.6086 30.2045 56.6086 13.1216C56.6086 9.97261 56.6086 9.96826 59.8576 9.96826C73.2659 9.96826 86.6742 9.96826 100.087 9.96826C103.101 9.96826 102.962 9.95089 102.593 12.9349C102.128 16.7007 101.942 20.5012 101.598 24.2844C101.064 30.2002 100.486 36.116 99.9479 42.0318C99.6221 45.5978 99.3355 49.1725 99.0097 52.7385C98.4581 58.8715 97.876 65.0002 97.3331 71.1375C96.9987 74.9207 96.7424 78.7125 96.4036 82.4957C95.8737 88.342 95.2917 94.184 94.7531 100.03C94.5576 102.172 94.3014 104.317 94.2883 106.463C94.2797 107.879 93.7541 108.522 92.4293 108.878C85.432 110.767 78.4477 112.713 71.4633 114.646C67.3848 115.775 63.3106 116.935 59.2234 118.038C56.626 118.738 56.613 118.703 56.613 116.066C56.6086 98.8315 56.6086 81.601 56.6086 64.3747ZM61.2431 49.1682C61.2431 56.4479 61.2953 63.7275 61.2084 71.0072C61.1867 72.8879 61.3908 73.6611 63.6321 73.1963C69.6217 71.9541 75.6809 71.0419 81.6879 69.8866C83.1734 69.5999 83.6381 69.8996 83.5122 71.4155C83.3167 73.7827 83.1169 76.1673 83.1994 78.5345C83.2689 80.5759 82.2786 81.2014 80.5152 81.6357C74.6428 83.0821 68.8095 84.6935 62.9458 86.1833C61.7079 86.4961 61.1606 87.0042 61.2084 88.3768C61.317 91.4737 61.317 94.5749 61.2127 97.6718C61.1563 99.3701 61.595 99.7784 63.3063 99.3137C72.1366 96.9248 80.9843 94.6227 89.8493 92.3684C91.1697 92.034 91.7257 91.5432 91.8299 90.1185C92.6726 78.9167 93.5934 67.7235 94.5229 56.5304C94.6575 54.9146 93.5977 55.4098 92.8376 55.501C86.5483 56.2741 80.2589 57.0429 73.9826 57.9029C72.5101 58.1027 72.1062 57.6771 72.1279 56.2307C72.1974 50.8969 72.2321 45.5631 72.1105 40.2293C72.0714 38.4181 72.597 37.9272 74.3952 37.9577C80.9539 38.0619 87.5125 37.9577 94.0712 38.0315C95.5393 38.0489 96.0822 37.6232 96.1604 36.1334C96.3254 32.9713 96.6164 29.8136 96.9683 26.6646C97.142 25.1357 96.6512 24.6753 95.1179 24.684C84.4504 24.7404 73.7828 24.7404 63.1152 24.6796C61.5428 24.6709 61.1997 25.2313 61.2127 26.682C61.2735 34.1745 61.2388 41.6713 61.2431 49.1682Z" fill="#00C88F"/>
<path d="M52.126 62.2857C52.126 74.1043 52.1043 85.9273 52.1521 97.7459C52.1564 99.2704 52.0869 99.9524 50.2105 99.4138C40.5897 96.6426 30.9429 93.9714 21.2786 91.3566C19.7454 90.9396 19.2242 90.2925 19.2936 88.7071C19.4283 85.6145 19.3935 82.5089 19.3067 79.412C19.2632 77.9396 19.7323 77.7181 21.0701 78.1003C26.8861 79.7726 32.7237 81.3579 38.5526 82.978C41.1327 83.6947 41.1327 83.6991 41.1327 81.106C41.1327 63.0892 41.1674 45.0681 41.0849 27.0514C41.0762 25.1012 41.6105 24.5495 43.4955 24.7016C45.5717 24.871 47.6826 24.8666 49.7588 24.7016C51.6265 24.5539 52.1912 25.0751 52.1738 27.0427C52.0739 38.7918 52.126 50.5409 52.126 62.2857Z" fill="#FEFEFD"/>
<path d="M61.2388 49.1683C61.2388 41.6715 61.2692 34.1746 61.2128 26.6821C61.1997 25.2358 61.5429 24.6711 63.1152 24.6798C73.7828 24.7406 84.4504 24.7363 95.118 24.6841C96.6512 24.6754 97.1421 25.1359 96.9683 26.6648C96.6165 29.8138 96.3255 32.9715 96.1604 36.1335C96.0822 37.6234 95.535 38.049 94.0712 38.0316C87.5126 37.9578 80.9539 38.0621 74.3952 37.9578C72.6014 37.9274 72.0715 38.4182 72.1106 40.2294C72.2322 45.5589 72.1974 50.897 72.1279 56.2308C72.1106 57.6816 72.5145 58.1029 73.9826 57.9031C80.2589 57.0431 86.5483 56.2743 92.8377 55.5011C93.5978 55.4056 94.6576 54.9104 94.5229 56.5305C93.5934 67.7237 92.6726 78.9212 91.83 90.1187C91.7214 91.5433 91.1654 92.0341 89.8494 92.3686C80.9843 94.6185 72.1323 96.9249 63.3063 99.3138C61.595 99.7786 61.1563 99.3703 61.2128 97.672C61.317 94.5751 61.317 91.4738 61.2084 88.3769C61.1607 87.0044 61.7079 86.4962 62.9458 86.1835C68.8095 84.698 74.6428 83.0822 80.5152 81.6358C82.2743 81.2015 83.269 80.576 83.1995 78.5346C83.117 76.1674 83.3168 73.7828 83.5122 71.4156C83.6382 69.8998 83.1778 69.6001 81.688 69.8867C75.6766 71.0421 69.6218 71.9542 63.6321 73.1965C61.3909 73.6612 61.1867 72.8837 61.2084 71.0074C61.291 63.7277 61.2432 56.448 61.2388 49.1683Z" fill="#FEFEFD"/>
</g>
<defs>
<clipPath id="clip0_192_11525">
<rect width="113" height="127.598" fill="white"/>
</clipPath>
</defs>
</svg>
