<svg width="256" height="58" viewBox="0 0 256 58" fill="none" xmlns="http://www.w3.org/2000/svg">
<path d="M104.63 43.8099C100.6 43.7999 96.5699 44.0699 92.5399 43.7799C88.2299 43.4699 84.3399 42.1499 81.6199 38.5299C79.5099 35.7299 78.8099 32.4599 78.8599 29.0299C78.9499 22.2499 80.6399 15.8799 84.2199 10.1099C88.6599 2.97991 95.3099 -0.100086 103.57 -8.62861e-05C106.71 0.0399137 109.75 0.549914 112.58 1.95991C118.09 4.70991 121.42 10.8899 120.77 17.2099C120.26 22.1399 118.44 26.7099 116.78 31.3199C116.44 32.2599 116.09 33.1899 115.7 34.0999C115.35 34.9099 115.64 35.1799 116.46 35.1599C117.42 35.1399 118.38 35.1699 119.34 35.1499C120.09 35.1299 120.36 35.4499 120.16 36.1699C119.58 38.3799 118.99 40.5899 118.42 42.7999C118.2 43.6499 117.62 43.8199 116.83 43.8199C112.77 43.7999 108.7 43.8099 104.63 43.8099ZM100.33 34.8599V34.8699C101.77 34.8699 103.21 34.8499 104.66 34.8799C105.58 34.8999 106.06 34.5299 106.31 33.6199C107.46 29.3899 108.67 25.1799 109.85 20.9499C110.3 19.3399 110.55 17.6999 110.44 16.0299C110.24 13.0899 109.11 10.6999 106.16 9.64991C102.21 8.24991 95.9799 8.78991 92.8899 14.1199C90.3899 18.4399 89.2499 23.1499 89.4499 28.1099C89.6199 32.4799 91.9699 34.6499 96.3499 34.8399C97.6599 34.9099 98.9999 34.8599 100.33 34.8599Z" fill="#00C88F"/>
<path d="M178.761 29.8198C175.471 29.8198 172.171 29.8498 168.881 29.7998C167.861 29.7898 167.511 30.2198 167.471 31.1798C167.381 33.3398 168.291 34.6098 170.391 35.1198C171.591 35.4098 172.811 35.4298 174.031 35.4298C178.361 35.4298 182.691 35.4298 187.021 35.4298C188.111 35.4298 188.311 35.6898 188.081 36.7498C187.661 38.6898 187.201 40.6198 186.851 42.5698C186.661 43.6198 186.231 44.0798 185.101 44.0698C179.851 43.9898 174.601 44.2998 169.341 44.0198C167.711 43.9298 166.111 43.6598 164.561 43.1498C160.351 41.7898 157.961 39.0498 157.831 34.6598C157.641 28.1698 159.031 21.9498 162.371 16.3198C165.131 11.6798 169.581 9.61982 174.781 8.96982C177.511 8.62982 180.251 8.59982 182.961 9.10982C189.161 10.2698 191.931 13.7898 191.641 20.0498C191.501 23.0498 190.881 25.9698 190.161 28.8798C189.971 29.6498 189.481 29.8298 188.771 29.8198C185.421 29.8098 182.091 29.8198 178.761 29.8198ZM175.331 22.6498C176.921 22.6498 178.501 22.6498 180.091 22.6498C181.781 22.6498 182.011 22.4198 181.931 20.7198C181.911 20.2898 181.851 19.8298 181.691 19.4298C181.011 17.7198 179.501 17.2898 177.871 17.0698C173.951 16.5398 170.711 18.1498 169.361 21.3298C168.921 22.3698 169.081 22.6298 170.241 22.6398C171.941 22.6598 173.641 22.6498 175.331 22.6498Z" fill="#00C88F"/>
<path d="M141.03 43.6397C138.29 43.6397 135.55 43.7897 132.82 43.6097C126.85 43.1997 123.92 39.9897 123.78 34.0097C123.69 30.2397 124.63 26.6197 125.39 22.9697C126.24 18.8897 127.16 14.8197 127.98 10.7397C128.2 9.62972 128.69 9.17972 129.85 9.21972C131.92 9.28972 133.99 9.23972 136.06 9.23972C137.37 9.23972 137.52 9.43972 137.25 10.7597C136.26 15.6397 135.23 20.5097 134.28 25.3997C133.88 27.4597 133.28 29.4897 133.29 31.6197C133.3 33.9497 134.31 35.1597 136.64 35.3097C138.67 35.4397 140.71 35.3597 142.74 35.3597C143.56 35.3597 143.77 34.7697 143.91 34.1297C145.04 28.8997 146.16 23.6697 147.29 18.4497C147.87 15.7797 148.48 13.1197 149.02 10.4497C149.19 9.61972 149.59 9.22972 150.44 9.22972C152.66 9.23972 154.88 9.24972 157.1 9.22972C158.02 9.21972 158.22 9.58972 158.03 10.4797C155.75 21.1197 153.49 31.7597 151.25 42.4097C151.04 43.3897 150.54 43.7497 149.56 43.7297C146.71 43.6897 143.86 43.7197 141.01 43.7197C141.03 43.6897 141.03 43.6597 141.03 43.6397Z" fill="#00C88F"/>
<path d="M225.28 43.7399C223.99 43.7399 222.69 43.7199 221.4 43.7499C220.51 43.7699 220.19 43.4799 220.46 42.5499C221.02 40.5999 221.48 38.6299 222.01 36.6699C222.23 35.8599 222.21 35.0799 221.98 34.2699C220.74 29.9499 219.53 25.6199 218.31 21.2899C217.97 20.0699 218.06 19.9399 219.32 19.9299C221.91 19.9199 224.5 19.9499 227.09 19.9199C228.02 19.9099 228.53 20.2499 228.69 21.1999C228.88 22.2499 229.16 23.2899 229.41 24.3199C229.5 24.6999 229.41 25.2899 229.83 25.3699C230.34 25.4699 230.47 24.8499 230.7 24.5099C233.09 21.0499 235.46 17.5699 237.83 14.0999C239.79 11.2399 241.77 8.38991 243.69 5.49991C244.26 4.64991 244.91 4.24991 245.96 4.25991C248.92 4.30991 251.88 4.25991 254.83 4.26991C255.17 4.26991 255.64 4.07991 255.83 4.46991C256.02 4.85991 255.59 5.12991 255.38 5.40991C248.4 14.6699 241.43 23.9399 234.42 33.1699C233.28 34.6699 232.4 36.2199 232.04 38.0799C231.77 39.4899 231.29 40.8499 230.99 42.2599C230.76 43.3499 230.22 43.8299 229.07 43.7599C227.8 43.6699 226.54 43.7399 225.28 43.7399Z" fill="#00C88F"/>
<path d="M217.39 17.8298C214.43 17.8298 211.47 17.8298 208.52 17.8298C206.76 17.8298 206.74 17.8598 206.37 19.6198C204.83 27.0498 203.28 34.4898 201.73 41.9198C201.37 43.6498 201.35 43.6598 199.54 43.6698C197.4 43.6698 195.25 43.6198 193.11 43.6898C192.21 43.7198 192.08 43.3298 192.24 42.6198C193.45 37.0198 194.66 31.4298 195.86 25.8298C196.93 20.8698 197.99 15.9098 199.05 10.9398C199.37 9.40982 199.46 9.31982 201.01 9.31982C207.22 9.32982 213.43 9.32982 219.64 9.34982C220.93 9.34982 222.22 9.39982 223.47 9.80982C225.22 10.3898 226.38 11.5098 226.85 13.2998C227.15 14.4398 227.37 15.5998 227.71 16.7198C227.98 17.6198 227.65 17.8398 226.82 17.8298C223.68 17.8198 220.54 17.8298 217.39 17.8298Z" fill="#00C88F"/>
<path d="M55.57 57.66C54.31 57.66 53.06 57.65 51.8 57.66C51.07 57.66 50.8 57.33 50.97 56.61C51.51 54.35 52.03 52.09 52.58 49.83C52.73 49.21 53.17 48.91 53.81 48.93C54.18 48.94 54.56 48.9 54.92 48.96C57.09 49.3 58.38 48.18 59.39 46.44C60.78 44.04 61.01 41.33 61.6 38.72C62.91 32.89 64.17 27.06 65.43 21.22C65.63 20.28 66.09 19.84 67.1 19.86C69.5 19.91 71.91 19.89 74.31 19.87C75.16 19.86 75.57 20.15 75.37 21.06C73.4 29.76 71.73 38.53 69.58 47.19C68.97 49.63 68.01 51.95 66.49 53.99C64.59 56.53 61.98 57.58 58.91 57.7C57.8 57.74 56.69 57.71 55.58 57.71C55.57 57.69 55.57 57.67 55.57 57.66Z" fill="#00C88F"/>
<path d="M44.3801 37.52C44.1201 37.98 43.8701 38.46 43.5801 38.91C39.2001 45.71 32.8401 48.72 24.8701 48.79C13.2101 48.9 3.12009 39.65 0.70009 29.91C-0.91991 23.39 0.19009 17.55 4.80009 12.52C4.87009 12.45 4.97009 12.4 5.22009 12.23C2.14009 23.79 6.31009 32.47 15.6301 38.98C23.9401 44.79 37.2401 44.94 44.3801 37.52Z" fill="#00C88F"/>
<path d="M17.1702 7.96973C15.8202 11.7597 15.9802 15.4997 17.5502 19.1797C19.0802 22.7497 21.5902 25.4997 24.8502 27.5697C28.1502 29.6697 31.7702 30.7097 35.6902 30.4497C39.6002 30.1897 42.9202 28.6397 45.5902 25.6997C44.8702 27.6597 43.6802 29.2697 42.1602 30.6297C38.9202 33.5297 35.0302 34.4697 30.7902 34.4497C22.6302 34.4197 14.7502 27.5697 13.5502 19.6297C12.8802 15.1897 14.0902 11.3097 17.1702 7.96973Z" fill="#00C88F"/>
<path d="M71.1702 17.5297C69.9202 17.5297 68.6602 17.5097 67.4102 17.5397C66.6402 17.5597 66.3002 17.2897 66.4902 16.4797C66.9802 14.3697 67.4502 12.2497 67.9302 10.1297C68.0802 9.45968 68.5002 9.15968 69.2002 9.16968C71.7502 9.18968 74.2902 9.18968 76.8402 9.16968C77.6802 9.15968 77.8402 9.50967 77.6602 10.2797C77.1802 12.3197 76.7202 14.3697 76.3102 16.4197C76.1502 17.2397 75.7002 17.5297 74.9302 17.5297C73.6802 17.5197 72.4302 17.5297 71.1702 17.5297Z" fill="#00C88F"/>
<path d="M43.7898 17.9601C41.3298 21.5901 37.7898 22.3301 33.7498 21.6201C28.5398 20.7001 24.4298 15.5201 24.7598 10.3201C24.8798 8.46006 25.6198 6.85006 26.9498 5.31006C25.6498 10.6501 27.5798 14.6401 31.8598 17.3801C35.5698 19.7601 39.5898 20.4401 43.6098 17.8101C43.6698 17.8601 43.7298 17.9101 43.7898 17.9601Z" fill="#00C88F"/>
<path d="M43.8601 17.6297C43.8901 17.5797 43.9301 17.5297 43.9601 17.4697C43.9701 17.5197 43.9901 17.5697 44.0001 17.6197C43.9401 17.6197 43.8901 17.6197 43.8301 17.6097C43.8401 17.6097 43.8601 17.6297 43.8601 17.6297Z" fill="#00C88F"/>
<path d="M43.5996 17.8101C43.6396 17.6801 43.7096 17.6101 43.8596 17.6201L43.8396 17.6001C43.9896 17.7401 43.8696 17.8401 43.7996 17.9501C43.7296 17.9101 43.6696 17.8601 43.5996 17.8101Z" fill="#00C88F"/>
</svg>
