<svg width="126" height="112" viewBox="0 0 126 112" fill="none" xmlns="http://www.w3.org/2000/svg">
<g clip-path="url(#clip0_192_11484)">
<path d="M90.5081 0C91.2952 0.276119 92.1232 0.408269 92.9027 0.718768C96.2747 2.06498 98.4887 4.55865 99.9209 7.80546C100.946 10.1294 101.437 12.5887 101.694 15.1081C102.056 18.6676 101.827 22.2012 101.378 25.736C101.014 28.5885 100.446 31.4002 99.7682 34.1925C99.6015 34.8801 99.6015 34.8737 100.306 35.0768C104.54 36.2951 108.664 37.8036 112.593 39.8105C115.777 41.4361 118.774 43.3453 121.312 45.8927C123.123 47.7105 124.606 49.7626 125.392 52.238C126.557 55.9028 126.018 59.3645 124.025 62.6166C122.151 65.6733 119.486 67.9252 116.521 69.8527C112.184 72.6697 107.441 74.5993 102.541 76.1787C101.692 76.4527 100.834 76.703 99.9757 76.9512C99.7005 77.0307 99.6198 77.1381 99.6972 77.4465C100.37 80.1475 100.933 82.8722 101.315 85.6301C101.538 87.2374 101.701 88.8533 101.794 90.4756C101.894 92.2258 101.914 93.9739 101.788 95.723C101.503 99.6338 100.746 103.409 98.479 106.716C96.464 109.655 93.6887 111.521 90.135 111.891C86.9437 112.225 83.8029 111.796 80.7782 110.57C76.8299 108.969 73.2708 106.739 69.9063 104.166C67.6171 102.414 65.4462 100.523 63.3882 98.5067C63.0893 98.2145 62.9301 98.2177 62.6291 98.5078C59.0452 101.971 55.2216 105.137 50.9422 107.717C47.8487 109.583 44.6046 111.086 41.0208 111.771C39.8628 111.992 38.7047 111.907 37.5445 111.929C32.5629 112.026 29.0995 109.573 26.7254 105.393C25.4028 103.063 24.7856 100.493 24.4405 97.8535C24.1781 95.8476 24.0706 93.832 24.1491 91.8122C24.3018 87.881 24.8415 83.9981 25.6888 80.1561C25.8813 79.2848 26.0587 78.4102 26.2953 77.5507C26.4017 77.1628 26.3168 77.0275 25.9394 76.9179C23.3136 76.154 20.7179 75.3031 18.1814 74.2727C14.3396 72.7127 10.6568 70.8648 7.34828 68.3378C4.9666 66.5188 2.86233 64.4281 1.48924 61.7303C-0.868788 57.0964 -0.366646 52.6452 2.57094 48.4379C4.83111 45.2018 7.93751 42.9209 11.3073 40.9698C15.8051 38.3655 20.6416 36.5734 25.6071 35.0993C25.7265 35.0639 25.8458 35.0166 25.9673 34.9983C26.3447 34.9414 26.3888 34.7641 26.2985 34.402C25.5566 31.4238 24.9544 28.4155 24.577 25.3685C24.2566 22.7793 24.0469 20.1771 24.1523 17.5663C24.305 13.7576 24.8405 10.0209 26.6877 6.60429C28.5694 3.12541 31.3887 0.861663 35.3306 0.0977697C35.394 0.084877 35.451 0.0343806 35.5112 0.00107439C37.123 0.00107439 38.7338 0.00107439 40.3456 0.00107439C40.4262 0.0333062 40.5036 0.0827282 40.5864 0.0956209C41.8982 0.290086 43.1713 0.633891 44.4186 1.07439C48.925 2.66664 52.8647 5.23551 56.6033 8.14604C58.7345 9.8049 60.7592 11.5884 62.6903 13.4772C62.9409 13.7221 63.085 13.7307 63.3301 13.4793C63.7914 13.0066 64.2892 12.5704 64.7731 12.1191C67.5225 9.5535 70.445 7.20595 73.5945 5.14526C76.4019 3.30913 79.3503 1.76093 82.5685 0.755298C83.59 0.436203 84.6459 0.276119 85.676 0.00107439C87.2856 0 88.8974 0 90.5081 0ZM63.1097 76.183C65.2946 76.2647 67.5644 76.1207 69.8354 76.0627C71.245 76.0261 72.6504 75.8714 74.059 75.7984C74.3923 75.7812 74.5643 75.634 74.7353 75.3804C78.846 69.2994 82.5072 62.9605 85.7265 56.3658C85.8663 56.0801 85.8717 55.8566 85.7287 55.5697C84.6244 53.3446 83.5007 51.1292 82.3029 48.9525C79.9503 44.6754 77.4191 40.5067 74.6762 36.467C74.531 36.2532 74.3772 36.164 74.117 36.1393C71.588 35.8997 69.0504 35.8245 66.515 35.7665C63.7075 35.7031 60.899 35.6978 58.0893 35.8181C56.0539 35.9051 54.0184 35.9739 51.9862 36.1361C51.6346 36.164 51.4486 36.3005 51.2647 36.5723C47.1669 42.6405 43.51 48.9611 40.3004 55.5418C40.1509 55.848 40.1466 56.079 40.2982 56.3863C41.5789 58.9831 42.9079 61.5541 44.3229 64.081C46.4981 67.966 48.8228 71.7587 51.3282 75.4406C51.4518 75.6222 51.5604 75.7704 51.8217 75.7844C52.5884 75.8263 53.3518 75.9359 54.1184 75.9606C57.0861 76.0594 60.0506 76.2593 63.1097 76.183ZM29.6017 18.7954C29.6361 20.0138 29.7027 21.2074 29.7952 22.4C30.0726 25.9853 30.7489 29.5007 31.5876 32.9914C31.693 33.4297 31.8328 33.5114 32.2758 33.4125C35.079 32.7808 37.909 32.2876 40.7509 31.8557C43.2057 31.4829 45.6723 31.2218 48.1368 30.9436C48.4659 30.906 48.64 30.7652 48.8153 30.5192C51.9206 26.1625 55.2453 21.9821 58.8764 18.0498C59.1721 17.7296 59.0915 17.5846 58.828 17.3332C56.5367 15.1446 54.1496 13.0689 51.583 11.2091C48.5755 9.02919 45.4272 7.09958 41.8412 5.99081C39.9735 5.41386 38.0703 5.10551 36.1349 5.51378C33.6177 6.04453 32.0941 7.74529 31.1124 10.0101C29.8941 12.8218 29.6791 15.8086 29.6017 18.7954ZM29.606 93.2948C29.5576 93.8707 29.6651 94.6529 29.7124 95.4372C29.8468 97.6762 30.2038 99.8755 31.1221 101.94C32.7876 105.685 35.4155 106.899 39.094 106.531C41.267 106.314 43.2982 105.548 45.2487 104.591C50.4142 102.055 54.7808 98.4337 58.9227 94.5068C59.1936 94.25 59.085 94.1189 58.8926 93.9072C57.9453 92.8608 56.9904 91.8186 56.0765 90.7421C53.4959 87.7016 51.0422 84.5611 48.739 81.3057C48.6056 81.1166 48.4594 81.0178 48.2196 80.9952C47.3669 80.9146 46.5175 80.7975 45.6648 80.7105C43.3917 80.4784 41.1294 80.1593 38.8757 79.7908C36.622 79.4223 34.3747 79.0087 32.15 78.4876C31.8479 78.4167 31.693 78.4672 31.6253 78.8077C31.4898 79.4889 31.2984 80.1593 31.1479 80.8383C30.2511 84.8705 29.6662 88.9436 29.606 93.2948ZM120.501 55.9877C120.498 54.7349 120.169 53.5585 119.533 52.4647C118.358 50.4438 116.688 48.8859 114.815 47.5462C109.845 43.9921 104.206 41.9153 98.4026 40.2091C98.1198 40.1264 98.0682 40.2564 98.0016 40.4702C97.7854 41.1696 97.5639 41.8669 97.3285 42.5599C95.8263 46.9757 94.1156 51.3076 92.1533 55.5396C92.0135 55.8415 92.0189 56.1005 92.1576 56.4002C92.5931 57.3403 93.0124 58.2868 93.4253 59.2377C95.1392 63.1882 96.6629 67.2086 97.95 71.3182C98.0392 71.605 98.0887 71.822 98.5188 71.6942C102.897 70.3963 107.181 68.8653 111.196 66.6596C113.732 65.2661 116.12 63.6674 118.059 61.4875C119.457 59.921 120.49 58.1762 120.501 55.9877ZM96.4059 18.7772C96.422 17.5781 96.3252 16.3845 96.1951 15.1962C95.9704 13.1441 95.5274 11.1436 94.5629 9.29672C93.2006 6.68809 91.0813 5.31394 88.0845 5.34618C85.5362 5.37304 83.1986 6.17668 80.9492 7.25967C75.6966 9.78664 71.2751 13.4568 67.0849 17.4363C66.8451 17.6641 66.915 17.793 67.1032 17.9971C70.7655 21.9745 74.1235 26.1958 77.26 30.5955C77.403 30.7964 77.5514 30.9081 77.817 30.936C79.2546 31.0865 80.69 31.2627 82.1255 31.4313C86.0631 31.8955 89.9673 32.5584 93.835 33.4319C94.2167 33.5178 94.336 33.4168 94.4092 33.0537C94.579 32.2156 94.8038 31.3884 94.9855 30.5514C95.8285 26.6718 96.3521 22.7524 96.4059 18.7772ZM96.4166 93.0746C96.3478 91.2266 96.2424 89.3228 96.0102 87.4233C95.6564 84.5332 95.0919 81.686 94.4059 78.8593C94.3135 78.479 94.1769 78.4199 93.8167 78.5026C92.7909 78.7401 91.7576 78.942 90.7253 79.1472C88.1867 79.6511 85.6308 80.0519 83.0642 80.3871C81.418 80.602 79.7707 80.8104 78.1148 80.9404C77.7159 80.9716 77.4148 81.1037 77.1503 81.4755C74.0676 85.8031 70.7665 89.9578 67.158 93.8621C66.844 94.2016 66.9344 94.3542 67.2118 94.6174C69.7171 96.9961 72.3224 99.2556 75.1557 101.238C77.875 103.14 80.7137 104.821 83.8964 105.851C85.8072 106.47 87.7544 106.825 89.7533 106.441C92.3511 105.944 93.9145 104.216 94.9124 101.891C96.1124 99.0955 96.3425 96.1291 96.4166 93.0746ZM5.51497 55.9329C5.48594 57.206 5.85583 58.3696 6.4827 59.4558C7.74397 61.6443 9.58587 63.2785 11.6321 64.6881C16.5062 68.0456 21.9771 70.0622 27.606 71.7178C27.8823 71.7995 27.9468 71.6888 28.0124 71.4664C28.1576 70.97 28.3178 70.478 28.4802 69.987C30.0242 65.3402 31.835 60.7977 33.8704 56.3443C33.993 56.0758 33.9984 55.8587 33.8736 55.5891C33.4027 54.5673 32.9435 53.5402 32.5016 52.5055C30.8317 48.5958 29.3156 44.6292 28.0511 40.568C27.9587 40.2714 27.8834 40.1221 27.5049 40.2338C23.177 41.5124 18.947 43.0337 14.9686 45.1889C12.4245 46.5674 10.031 48.1564 8.06977 50.3159C6.62141 51.9125 5.52895 53.682 5.51497 55.9329ZM81.5223 75.0356C81.8793 75.013 82.1233 75.0119 82.3631 74.9786C82.9814 74.8927 83.5975 74.7852 84.2169 74.7003C86.9243 74.3307 89.6049 73.8161 92.2802 73.2628C92.693 73.1779 92.7963 73.0544 92.6457 72.6354C92.0888 71.0904 91.5888 69.525 91.0307 67.98C90.3641 66.1342 89.6447 64.3077 88.82 62.4071C86.5587 66.7326 84.162 70.8841 81.5223 75.0356ZM81.5244 36.9032C84.1706 41.0515 86.5534 45.2029 88.8264 49.523C90.2544 46.1494 91.4963 42.8414 92.5683 39.4699C92.7898 38.7737 92.7898 38.7856 92.0984 38.6362C89.62 38.1012 87.1265 37.6489 84.619 37.2793C83.6341 37.1342 82.6524 36.9365 81.5244 36.9032ZM44.4745 36.9279C44.1939 36.9279 44.0315 36.9097 43.8756 36.9312C40.4617 37.3931 37.066 37.9615 33.6951 38.6835C33.265 38.7759 33.2564 38.9328 33.3747 39.2905C34.2414 41.9196 35.1575 44.5303 36.1951 47.0981C36.5101 47.8781 36.8316 48.6539 37.1951 49.5392C39.4649 45.1782 41.8627 41.0429 44.4745 36.9279ZM37.2048 62.4265C37.123 62.5855 37.0779 62.6607 37.0445 62.7413C35.7188 65.9236 34.4994 69.1457 33.4554 72.4323C33.2263 73.1543 33.2253 73.1425 33.9467 73.2961C36.6704 73.8774 39.4112 74.3641 42.166 74.7627C42.8961 74.869 43.6272 75.0398 44.4788 75.0108C41.8552 70.8852 39.4606 66.7326 37.2048 62.4265ZM55.6711 81.5045C56.2281 82.2222 56.7152 82.856 57.2087 83.4846C58.9528 85.7043 60.7882 87.8466 62.6656 89.9546C62.9506 90.2747 63.1108 90.2425 63.3634 89.9395C63.8548 89.3497 64.3817 88.7888 64.886 88.2108C66.6473 86.191 68.3548 84.1271 69.9644 81.9836C70.0461 81.8751 70.2257 81.7752 70.1569 81.6312C70.0741 81.4572 69.8709 81.5474 69.7225 81.5517C68.7408 81.584 67.7569 81.6087 66.7752 81.6323C63.114 81.7183 59.4506 81.6839 55.6711 81.5045ZM55.8001 30.2721C57.2334 30.2721 58.6786 30.2796 60.1237 30.271C63.3247 30.2517 66.5247 30.257 69.7235 30.3795C69.8709 30.3849 70.0752 30.4741 70.1569 30.3C70.2246 30.156 70.0451 30.0561 69.9633 29.9476C67.8903 27.1907 65.6537 24.5681 63.3645 21.9885C63.0548 21.6393 62.8871 21.7188 62.6301 22.0197C61.4807 23.3627 60.3001 24.6799 59.1624 26.0336C57.9807 27.4368 56.8378 28.8721 55.8001 30.2721Z" fill="#00C88F"/>
<path d="M63.0109 67.1797C56.9766 67.1604 51.7863 62.4169 51.7842 55.9673C51.782 49.5081 56.9948 44.7561 63.0077 44.7539C69.0387 44.7528 74.2311 49.5092 74.2322 55.963C74.2333 62.3729 69.0936 67.1593 63.0109 67.1797Z" fill="#00C88F"/>
</g>
<defs>
<clipPath id="clip0_192_11484">
<rect width="126" height="112" fill="white"/>
</clipPath>
</defs>
</svg>
