<svg width="68" height="72" viewBox="0 0 68 72" fill="none" xmlns="http://www.w3.org/2000/svg">
<g clip-path="url(#clip0_78_8970)">
<path d="M33.7258 0C37.3726 0.677799 40.7207 2.25126 44.1915 3.43741C51.5874 5.96302 58.9383 8.62983 66.3424 11.1312C67.8118 11.6275 68.172 12.3376 67.9305 13.7456C67.0096 19.1276 66.4284 24.5742 65.8595 29.9886C64.9917 38.2392 63.8539 46.4575 63.1213 54.7202C63.0394 55.632 62.8675 56.338 61.9384 56.8383C52.8194 61.7765 43.7208 66.7551 34.6099 71.7095C34.3643 71.8427 34.086 72.2138 33.7504 71.8144C33.7668 62.6924 33.7831 53.5663 33.7995 44.4442C34.9496 44.42 36.0997 44.3716 37.2458 44.3797C39.1367 44.3958 41.4656 43.8028 42.7917 44.6742C44.0973 45.5336 44.3879 47.8978 45.1206 49.6004C45.8573 51.311 46.1438 53.5784 47.4412 54.583C48.8492 55.6763 51.2272 54.7565 53.1673 54.9421C55.0091 55.1155 55.1442 54.5911 54.4197 53.0015C47.6172 38.0173 40.8885 23.0008 34.1433 7.99238C33.3984 5.35784 34.0369 2.65471 33.7258 0Z" fill="#00A187"/>
<path d="M33.7256 0C34.0367 2.65471 33.3982 5.35784 34.1431 7.99238C33.5169 8.38373 33.4064 9.08977 33.1403 9.67881C27.8768 21.2821 22.6338 32.8975 17.3866 44.5128C15.8559 47.8978 14.3333 51.2868 12.6839 54.9461C15.0578 54.9461 17.0838 54.8735 19.1016 54.9743C20.3335 55.0349 20.8656 54.583 21.2708 53.4493C22.2449 50.7542 23.4155 48.1318 24.4674 45.465C24.7703 44.6984 25.1509 44.3272 26.0759 44.3595C28.6463 44.4523 31.2248 44.4281 33.7993 44.4483C33.7829 53.5703 33.7666 62.6964 33.7502 71.8184C24.5247 66.8156 15.3033 61.8007 6.06558 56.8181C5.2388 56.3703 4.99323 55.7409 4.895 54.8896C3.29875 41.1158 1.68204 27.3419 0.0694286 13.564C-0.0410806 12.624 -0.200705 11.8413 1.11313 11.3894C12.0003 7.64138 22.8589 3.80858 33.7256 0Z" fill="#00C88F"/>
<path d="M33.7995 44.4481C31.2251 44.4279 28.6506 44.4521 26.0762 44.3593C25.1512 44.3271 24.7705 44.6982 24.4676 45.4648C23.4158 48.1316 22.2452 50.754 21.2711 53.4491C20.8618 54.5788 20.3297 55.0306 19.1018 54.9741C17.084 54.8773 15.058 54.9459 12.6841 54.9459C14.3335 51.2906 15.8602 47.9016 17.3869 44.5126C22.634 32.8973 27.877 21.2819 33.1365 9.67862C33.4025 9.08958 33.513 8.38354 34.1392 7.99219C40.8885 23.0006 47.6132 38.0171 54.4156 53.0013C55.136 54.5909 55.0009 55.1194 53.1632 54.9419C51.2231 54.7563 48.8451 55.6762 47.4372 54.5828C46.1397 53.5782 45.8532 51.3108 45.1165 49.6002C44.3838 47.8976 44.0932 45.5334 42.7876 44.674C41.4615 43.8026 39.1326 44.3956 37.2417 44.3795C36.0957 44.3755 34.9455 44.4239 33.7995 44.4481ZM33.7954 37.8436C35.8132 37.8436 37.8352 37.8436 39.8448 37.8436C40.119 37.1537 39.677 36.6453 39.456 36.1128C37.8515 32.2356 36.2184 28.3665 34.5403 24.5176C34.5076 24.4369 34.6099 22.9239 33.734 24.1343C32.4898 26.9786 31.2087 29.8028 30.0217 32.6713C29.3259 34.3578 28.2659 35.9232 28.1636 37.8194C30.0422 37.8234 31.9209 37.8355 33.7954 37.8436Z" fill="#FEFDFE"/>
<path d="M33.738 24.1345C34.6139 22.9241 34.5075 24.437 34.5443 24.5177C36.2184 28.3667 37.8555 32.2358 39.46 36.1129C39.681 36.6415 40.123 37.1538 39.8488 37.8437C37.8351 37.8437 35.8172 37.8437 33.7994 37.8437C33.7749 33.2726 33.7585 28.7015 33.738 24.1345Z" fill="#00A187"/>
<path d="M33.738 24.1343C33.7584 28.7054 33.7748 33.2725 33.7953 37.8436C31.9207 37.8355 30.042 37.8274 28.1675 37.8194C28.2739 35.9231 29.3299 34.3577 30.0257 32.6713C31.2126 29.8028 32.4937 26.9746 33.738 24.1343Z" fill="#00C88F"/>
</g>
<defs>
<clipPath id="clip0_78_8970">
<rect width="68" height="72" fill="white"/>
</clipPath>
</defs>
</svg>
