<svg width="34" height="24" viewBox="0 0 34 24" fill="none" xmlns="http://www.w3.org/2000/svg">
<g clip-path="url(#clip0_79_9005)">
<path d="M33.8932 18.2108C33.9612 18.2629 34 18.3475 34 18.4321C34 18.52 33.9579 18.6013 33.8932 18.6534L27.053 23.9415C26.9527 24.0196 26.8135 24.0196 26.7164 23.9415C26.616 23.8667 26.5804 23.7332 26.6257 23.6128L27.7652 20.7133C22.5857 20.5181 19.6496 18.6566 17.5973 16.5023C18.3612 15.6269 18.9957 14.7353 19.5752 13.925C19.8633 13.5214 20.1384 13.1374 20.4136 12.7697C21.9707 14.6116 23.8677 15.9263 27.7523 16.1053L26.629 13.2481C26.5836 13.1309 26.6193 12.9975 26.7196 12.9227C26.7714 12.8836 26.8264 12.8641 26.8879 12.8641C26.9462 12.8641 27.0077 12.8836 27.0563 12.9227L33.8932 18.2108ZM6.94697 11.0743C6.99876 11.1133 7.05703 11.1328 7.11854 11.1328C7.17681 11.1328 7.23831 11.1133 7.28687 11.0743C7.38722 10.9994 7.42283 10.866 7.37751 10.7456L6.26392 7.90788C10.1291 8.15521 12.0326 9.49595 13.5929 11.3476C13.8648 10.9864 14.1367 10.6089 14.4216 10.2119C15.0043 9.39507 15.642 8.50341 16.4125 7.61826C14.3569 5.45093 11.4175 3.57324 6.23479 3.29988L7.38075 0.384087C7.42607 0.266935 7.39046 0.133511 7.29011 0.0554093C7.18976 -0.0226924 7.05056 -0.0194382 6.95344 0.0554093L0.106827 5.34354C0.038846 5.39561 0 5.48022 0 5.56809C0 5.65595 0.0420832 5.73731 0.106827 5.78938L6.94697 11.0743ZM18.8533 13.4141C20.8959 10.5503 22.5437 8.24632 27.7361 7.91114L26.6225 10.7488C26.5772 10.866 26.6128 10.9994 26.7131 11.0775C26.7617 11.1133 26.82 11.1328 26.8815 11.1328C26.943 11.1328 27.0012 11.1133 27.053 11.0743L33.8932 5.78612C33.9612 5.73405 34 5.64944 34 5.56483C34 5.47697 33.9579 5.39561 33.8932 5.34354L27.053 0.0586635C26.9527 -0.0194382 26.8135 -0.0194382 26.7164 0.0586635C26.616 0.136765 26.5804 0.266935 26.6257 0.387342L27.7717 3.30314C20.1546 3.70341 17.3836 7.58246 15.1338 10.7293C13.0976 13.5865 11.4628 15.871 6.25421 16.1086L7.37751 13.2513C7.42283 13.1342 7.38722 13.0008 7.28687 12.9259C7.23831 12.8869 7.17681 12.8673 7.11854 12.8673C7.06027 12.8673 6.99876 12.8869 6.94697 12.9259L0.106827 18.2108C0.038846 18.2629 0 18.3475 0 18.4353C0 18.5232 0.0420832 18.6046 0.106827 18.6566L6.94373 23.9448C7.04408 24.0229 7.18328 24.0229 7.28363 23.9448C7.38399 23.8699 7.41959 23.7365 7.37427 23.6161L6.23479 20.7166C13.8454 20.4269 16.6164 16.5511 18.8533 13.4141Z" fill="#181438"/>
</g>
<defs>
<clipPath id="clip0_79_9005">
<rect width="34" height="24" fill="white"/>
</clipPath>
</defs>
</svg>
