<svg width="33" height="33" viewBox="0 0 33 33" fill="none" xmlns="http://www.w3.org/2000/svg">
<path d="M16.5 32C25.0604 32 32 25.0604 32 16.5C32 7.93959 25.0604 1 16.5 1C7.93959 1 1 7.93959 1 16.5C1 25.0604 7.93959 32 16.5 32Z" fill="#00C88F"/>
<path d="M21.6216 10.2578C20.9952 10.2578 20.488 10.7651 20.488 11.3914C20.488 12.0177 20.9952 12.525 21.6216 12.525C22.2479 12.525 22.7552 12.0177 22.7552 11.3914C22.7552 10.7651 22.2479 10.2578 21.6216 10.2578Z" fill="white"/>
<path d="M16.5783 11.7129C13.9506 11.7129 11.8139 13.8496 11.8139 16.4773C11.8139 19.1049 13.9506 21.2417 16.5783 21.2417C19.206 21.2417 21.3427 19.1049 21.3427 16.4773C21.3427 13.8496 19.206 11.7129 16.5783 11.7129ZM16.5783 19.529C14.895 19.529 13.5265 18.1605 13.5265 16.4773C13.5265 14.794 14.895 13.4255 16.5783 13.4255C18.2616 13.4255 19.63 14.794 19.63 16.4773C19.63 18.1589 18.2616 19.529 16.5783 19.529Z" fill="white"/>
<path d="M20.3607 26.1495H12.6376C9.43415 26.1495 6.82605 23.543 6.82605 20.3379V12.6148C6.82605 9.40969 9.43252 6.80322 12.6376 6.80322H20.3607C23.5658 6.80322 26.1723 9.40969 26.1723 12.6148V20.3395C26.1723 23.543 23.5658 26.1495 20.3607 26.1495ZM12.6376 8.62351C10.4373 8.62351 8.64633 10.4128 8.64633 12.6148V20.3395C8.64633 22.5399 10.4373 24.3308 12.6376 24.3308H20.3607C22.5611 24.3308 24.352 22.5399 24.352 20.3395V12.6148C24.352 10.4144 22.5611 8.62351 20.3607 8.62351H12.6376Z" fill="white"/>
</svg>
