<svg width="31" height="46" viewBox="0 0 31 46" fill="none" xmlns="http://www.w3.org/2000/svg">
<path d="M27.0459 0H3.95413C1.77523 0 0 1.78807 0 3.98272V42.0173C0 44.2119 1.77523 46 3.95413 46H27.0459C29.2248 46 31 44.2119 31 42.0173V3.98272C31 1.78807 29.2294 0 27.0459 0ZM29.1651 42.0173C29.1651 43.1955 28.2156 44.1519 27.0459 44.1519H3.95413C2.7844 44.1519 1.83486 43.1955 1.83486 42.0173V3.98272C1.83486 2.80454 2.7844 1.84813 3.95413 1.84813H27.0459C28.2156 1.84813 29.1651 2.80454 29.1651 3.98272V42.0173Z" fill="#181438"/>
<path d="M15.5001 2.80917C15.734 2.80917 15.9267 2.61973 15.9267 2.37948C15.9267 2.14384 15.734 1.95441 15.5001 1.95441C15.2661 1.95441 15.0735 2.14384 15.0735 2.37948C15.0735 2.61973 15.2661 2.80917 15.5001 2.80917Z" fill="#181438"/>
<path d="M13.9083 4.53715H17.0918C17.3258 4.53715 17.5139 4.34772 17.5139 4.11208C17.5139 3.87645 17.3258 3.68701 17.0918 3.68701H13.9083C13.6744 3.68701 13.4863 3.87645 13.4863 4.11208C13.4863 4.3431 13.6744 4.53715 13.9083 4.53715Z" fill="#181438"/>
<path d="M12.4863 4.44011C12.6698 4.44011 12.8166 4.29226 12.8166 4.10744C12.8166 3.92263 12.6698 3.77478 12.4863 3.77478C12.3028 3.77478 12.156 3.92263 12.156 4.10744C12.156 4.29226 12.3028 4.44011 12.4863 4.44011Z" fill="#181438"/>
<path d="M15.5 38.7738C14.0734 38.7738 12.9128 39.9427 12.9128 41.3797C12.9128 42.8166 14.0734 43.9809 15.5 43.9809C16.9266 43.9809 18.0872 42.812 18.0872 41.3797C18.0872 39.9427 16.9266 38.7738 15.5 38.7738ZM15.5 43.0569C14.5826 43.0569 13.8303 42.3037 13.8303 41.3797C13.8303 40.4556 14.578 39.6979 15.5 39.6979C16.422 39.6979 17.1697 40.451 17.1697 41.3797C17.1697 42.3037 16.422 43.0569 15.5 43.0569Z" fill="#181438"/>
<path d="M26.3348 5.4566H4.66965C4.41736 5.4566 4.21094 5.66452 4.21094 5.91864V38.2425C4.21094 38.4966 4.41736 38.7045 4.66965 38.7045H26.3348C26.5871 38.7045 26.7935 38.4966 26.7935 38.2425V5.91864C26.7935 5.66452 26.5871 5.4566 26.3348 5.4566ZM25.8761 37.7804H5.12837V6.38067H25.8761V37.7804Z" fill="#181438"/>
</svg>
