<svg width="212" height="48" viewBox="0 0 212 48" fill="none" xmlns="http://www.w3.org/2000/svg">
<g clip-path="url(#clip0_82_11323)">
<path d="M86.5001 36.2188C83.1684 36.2105 79.8367 36.4337 76.505 36.1939C72.9418 35.9377 69.7259 34.8464 67.4772 31.8536C65.7328 29.5388 65.1541 26.8354 65.1954 23.9998C65.2698 18.3946 66.667 13.1284 69.6266 8.35817C73.2973 2.46363 78.795 -0.0826784 85.6237 -6.09178e-06C88.2197 0.0330628 90.7329 0.454692 93.0725 1.62037C97.6278 3.89386 100.381 9.00301 99.8434 14.2279C99.4218 18.3037 97.9171 22.0818 96.5448 25.893C96.2637 26.6701 95.9743 27.4389 95.6519 28.1913C95.3625 28.8609 95.6023 29.0841 96.2802 29.0676C97.0739 29.0511 97.8675 29.0759 98.6612 29.0593C99.2812 29.0428 99.5044 29.3073 99.3391 29.9026C98.8596 31.7296 98.3718 33.5567 97.9006 35.3838C97.7187 36.0865 97.2392 36.227 96.5861 36.227C93.2296 36.2105 89.8648 36.2188 86.5001 36.2188ZM82.9452 28.8196V28.8278C84.1356 28.8278 85.3261 28.8113 86.5249 28.8361C87.2855 28.8526 87.6823 28.5468 87.889 27.7944C88.8397 24.2974 89.84 20.8169 90.8156 17.3199C91.1876 15.9888 91.3943 14.633 91.3033 13.2524C91.138 10.8218 90.2038 8.84594 87.765 7.97788C84.4994 6.82046 79.3489 7.26689 76.7943 11.6733C74.7275 15.2448 73.7851 19.1386 73.9504 23.2392C74.0909 26.852 76.0337 28.646 79.6548 28.803C80.7378 28.8609 81.8456 28.8196 82.9452 28.8196Z" fill="#949494"/>
<path d="M147.785 24.6529C145.065 24.6529 142.337 24.6777 139.617 24.6364C138.774 24.6281 138.485 24.9836 138.451 25.7773C138.377 27.563 139.129 28.6129 140.866 29.0346C141.858 29.2743 142.866 29.2908 143.875 29.2908C147.455 29.2908 151.034 29.2908 154.614 29.2908C155.515 29.2908 155.68 29.5058 155.49 30.3821C155.143 31.986 154.763 33.5815 154.473 35.1937C154.316 36.0617 153.961 36.442 153.027 36.4337C148.686 36.3676 144.346 36.6239 139.997 36.3924C138.65 36.318 137.327 36.0948 136.046 35.6732C132.565 34.5488 130.589 32.2836 130.482 28.6543C130.325 23.2888 131.474 18.1466 134.235 13.4922C136.517 9.65616 140.196 7.95311 144.495 7.41574C146.752 7.13466 149.017 7.10985 151.257 7.53148C156.383 8.49048 158.673 11.4005 158.433 16.5758C158.318 19.056 157.805 21.47 157.21 23.8758C157.053 24.5124 156.648 24.6612 156.061 24.6529C153.291 24.6447 150.538 24.6529 147.785 24.6529ZM144.95 18.7253C146.264 18.7253 147.57 18.7253 148.885 18.7253C150.282 18.7253 150.472 18.5352 150.406 17.1297C150.389 16.7743 150.34 16.394 150.208 16.0633C149.645 14.6496 148.397 14.2941 147.049 14.1122C143.809 13.674 141.13 15.0051 140.014 17.634C139.65 18.4938 139.783 18.7088 140.742 18.7171C142.147 18.7336 143.552 18.7253 144.95 18.7253Z" fill="#949494"/>
<path d="M116.593 36.0784C114.328 36.0784 112.062 36.2025 109.805 36.0536C104.87 35.7147 102.448 33.0609 102.332 28.1171C102.257 25.0003 103.035 22.0076 103.663 18.9901C104.366 15.617 105.126 12.2523 105.804 8.87924C105.986 7.96158 106.391 7.58955 107.35 7.62262C109.061 7.68049 110.773 7.63915 112.484 7.63915C113.567 7.63915 113.691 7.8045 113.468 8.89577C112.649 12.9302 111.798 16.9563 111.012 20.999C110.682 22.7021 110.186 24.3803 110.194 26.1412C110.202 28.0675 111.037 29.0678 112.964 29.1918C114.642 29.2993 116.328 29.2332 118.007 29.2332C118.684 29.2332 118.858 28.7454 118.974 28.2163C119.908 23.8925 120.834 19.5688 121.768 15.2533C122.248 13.0459 122.752 10.8468 123.198 8.63949C123.339 7.95331 123.67 7.63089 124.372 7.63089C126.208 7.63915 128.043 7.64742 129.878 7.63089C130.639 7.62262 130.804 7.92851 130.647 8.66429C128.762 17.4606 126.894 26.257 125.042 35.0616C124.868 35.8718 124.455 36.1694 123.645 36.1528C121.289 36.1198 118.932 36.1446 116.576 36.1446C116.593 36.1198 116.593 36.095 116.593 36.0784Z" fill="#949494"/>
<path d="M186.244 36.1612C185.178 36.1612 184.103 36.1447 183.037 36.1695C182.301 36.186 182.036 35.9463 182.259 35.1774C182.722 33.5653 183.103 31.9367 183.541 30.3163C183.723 29.6466 183.706 29.0018 183.516 28.3322C182.491 24.7607 181.491 21.181 180.482 17.6013C180.201 16.5927 180.275 16.4852 181.317 16.4769C183.458 16.4687 185.599 16.4935 187.741 16.4687C188.509 16.4604 188.931 16.7415 189.063 17.5269C189.22 18.3949 189.452 19.2547 189.659 20.1063C189.733 20.4204 189.659 20.9082 190.006 20.9743C190.427 21.057 190.535 20.5444 190.725 20.2633C192.701 17.4029 194.66 14.5259 196.62 11.6571C198.24 9.29271 199.877 6.93654 201.464 4.54731C201.935 3.8446 202.473 3.51391 203.341 3.52218C205.788 3.56351 208.235 3.52218 210.674 3.53044C210.955 3.53044 211.344 3.37337 211.501 3.69579C211.658 4.01821 211.302 4.24143 211.129 4.47291C205.358 12.1284 199.596 19.7921 193.801 27.4228C192.858 28.6628 192.131 29.9443 191.833 31.482C191.61 32.6476 191.213 33.772 190.965 34.9377C190.775 35.8388 190.328 36.2356 189.378 36.1778C188.328 36.1034 187.286 36.1612 186.244 36.1612Z" fill="#949494"/>
<path d="M179.722 14.7405C177.274 14.7405 174.827 14.7405 172.389 14.7405C170.934 14.7405 170.917 14.7653 170.611 16.2203C169.338 22.3629 168.057 28.5137 166.775 34.6563C166.477 36.0865 166.461 36.0948 164.965 36.103C163.195 36.103 161.418 36.0617 159.649 36.1196C158.905 36.1444 158.797 35.8219 158.93 35.235C159.93 30.6053 160.93 25.9839 161.922 21.3543C162.807 17.2537 163.683 13.1532 164.559 9.04437C164.824 7.77948 164.898 7.70508 166.18 7.70508C171.314 7.71335 176.448 7.71335 181.582 7.72988C182.648 7.72988 183.715 7.77122 184.748 8.11017C186.195 8.58967 187.154 9.5156 187.542 10.9954C187.79 11.9379 187.972 12.8969 188.253 13.8228C188.477 14.5669 188.204 14.7488 187.518 14.7405C184.922 14.7322 182.326 14.7405 179.722 14.7405Z" fill="#949494"/>
<path d="M45.9412 47.6691C44.8995 47.6691 43.8661 47.6609 42.8244 47.6691C42.2209 47.6691 41.9977 47.3963 42.1383 46.8011C42.5847 44.9327 43.0146 43.0643 43.4693 41.1959C43.5933 40.6833 43.9571 40.4353 44.4862 40.4519C44.792 40.4601 45.1062 40.427 45.4038 40.4767C47.1978 40.7577 48.2643 39.8318 49.0993 38.3933C50.2484 36.4092 50.4386 34.1688 50.9263 32.011C52.0093 27.1912 53.051 22.3714 54.0927 17.5433C54.258 16.7662 54.6383 16.4025 55.4733 16.419C57.4575 16.4603 59.4499 16.4438 61.434 16.4273C62.1367 16.419 62.4757 16.6587 62.3103 17.4111C60.6817 24.6036 59.301 31.8539 57.5236 39.0133C57.0193 41.0306 56.2256 42.9486 54.969 44.6351C53.3982 46.735 51.2405 47.603 48.7024 47.7022C47.7848 47.7353 46.8671 47.7105 45.9495 47.7105C45.9412 47.6939 45.9412 47.6774 45.9412 47.6691Z" fill="#949494"/>
<path d="M36.69 31.0187C36.475 31.399 36.2683 31.7958 36.0286 32.1678C32.4075 37.7895 27.1496 40.278 20.5606 40.3359C10.921 40.4268 2.57936 32.7796 0.578686 24.7273C-0.760606 19.3371 0.157057 14.509 3.96825 10.3506C4.02612 10.2927 4.1088 10.2514 4.31548 10.1108C1.76917 19.6678 5.21661 26.8437 12.9217 32.2257C19.7917 37.029 30.7872 37.153 36.69 31.0187Z" fill="#949494"/>
<path d="M14.1948 6.58887C13.0787 9.72215 13.211 12.8141 14.5089 15.8564C15.7738 18.8078 17.8489 21.0813 20.544 22.7926C23.2722 24.5288 26.265 25.3886 29.5057 25.1736C32.7382 24.9587 35.4829 23.6772 37.6903 21.2467C37.095 22.8671 36.1112 24.1981 34.8546 25.3224C32.176 27.7199 28.9601 28.497 25.4548 28.4805C18.7087 28.4557 12.1941 22.7926 11.2021 16.2285C10.6481 12.5578 11.6485 9.35012 14.1948 6.58887Z" fill="#949494"/>
<path d="M58.8381 14.4927C57.8046 14.4927 56.763 14.4761 55.7296 14.5009C55.093 14.5175 54.8119 14.2942 54.969 13.6246C55.3741 11.8802 55.7626 10.1276 56.1595 8.37491C56.2835 7.821 56.6307 7.57299 57.2094 7.58125C59.3175 7.59779 61.4174 7.59779 63.5256 7.58125C64.22 7.57299 64.3523 7.86234 64.2035 8.49892C63.8067 10.1854 63.4264 11.8802 63.0874 13.575C62.9551 14.2529 62.5831 14.4927 61.9465 14.4927C60.9131 14.4844 59.8797 14.4927 58.8381 14.4927Z" fill="#949494"/>
<path d="M36.2022 14.8482C34.1685 17.8492 31.2419 18.461 27.9019 17.874C23.5947 17.1134 20.1969 12.831 20.4697 8.53202C20.5689 6.99432 21.1807 5.66329 22.2802 4.39014C21.2055 8.80484 22.8011 12.1035 26.3394 14.3687C29.4066 16.3363 32.73 16.8985 36.0534 14.7242C36.103 14.7655 36.1526 14.8069 36.2022 14.8482Z" fill="#949494"/>
<path d="M36.2602 14.5751C36.285 14.5338 36.318 14.4925 36.3428 14.4429C36.3511 14.4842 36.3676 14.5255 36.3759 14.5669C36.3263 14.5669 36.285 14.5669 36.2354 14.5586C36.2436 14.5586 36.2602 14.5751 36.2602 14.5751Z" fill="#949494"/>
<path d="M36.0452 14.7239C36.0782 14.6164 36.1361 14.5586 36.2601 14.5668L36.2436 14.5503C36.3676 14.666 36.2684 14.7487 36.2105 14.8396C36.1526 14.8066 36.103 14.7652 36.0452 14.7239Z" fill="#949494"/>
</g>
<defs>
<clipPath id="clip0_82_11323">
<rect width="211.534" height="47.7102" fill="white"/>
</clipPath>
</defs>
</svg>
