<svg width="59" height="67" viewBox="0 0 59 67" fill="none" xmlns="http://www.w3.org/2000/svg">
<g clip-path="url(#clip0_78_8983)">
<path d="M29.5909 0.0159954C39.0409 0.0159954 48.491 0.0251182 57.9388 3.05759e-05C58.787 -0.00225012 59.0727 0.120907 58.982 1.09476C57.9706 11.9805 57.0113 22.8708 56.0474 33.7589C55.3308 41.8599 54.621 49.9632 53.9247 58.0665C53.7365 60.2446 53.7683 60.2628 51.7181 60.8421C44.5472 62.8674 37.3718 64.8744 30.2009 66.9019C29.7043 67.0433 29.2598 67.0205 28.7699 66.8814C21.277 64.7467 13.7841 62.6165 6.27979 60.5228C5.61305 60.3358 5.39987 60.0485 5.34091 59.3734C4.2274 46.5262 3.1275 33.6722 1.93009 20.8296C1.30643 14.1267 0.898222 7.40089 0.0160337 0.723011C-0.097358 -0.13225 0.431048 0.0159954 0.902757 0.0159954C5.57223 0.0137147 10.2394 0.0159954 14.9089 0.0159954C19.8029 0.0159954 24.6969 0.0159954 29.5909 0.0159954ZM29.5569 33.8022C29.5569 42.8497 29.5569 51.895 29.5569 60.9425C29.5569 62.3269 29.5637 62.3474 30.9198 61.9779C33.0539 61.3986 35.1811 60.7897 37.3106 60.1967C40.9595 59.1818 44.6039 58.16 48.2574 57.1679C48.9491 56.9809 49.2235 56.6434 49.2281 55.8999C49.2349 54.7732 49.3664 53.6465 49.4707 52.5222C49.7519 49.4523 50.0558 46.3848 50.3325 43.315C50.5117 41.3285 50.6432 39.3375 50.8178 37.351C51.1013 34.1306 51.4029 30.9103 51.6932 27.69C51.861 25.8152 52.0107 23.9405 52.183 22.068C52.4665 18.9617 52.7659 15.8554 53.0448 12.7491C53.224 10.7626 53.3215 8.76702 53.5642 6.78966C53.7569 5.22282 53.8318 5.23195 52.2556 5.23195C45.2548 5.23195 38.254 5.23195 31.2509 5.23195C29.5569 5.23195 29.5546 5.23195 29.5546 6.88773C29.5569 15.86 29.5569 24.83 29.5569 33.8022ZM27.2164 32.7052C27.2164 26.5359 27.1892 20.3666 27.2437 14.1996C27.2527 13.1665 26.9579 12.8928 25.9827 12.9703C24.8987 13.057 23.7966 13.0593 22.7125 12.9703C21.7283 12.8905 21.4493 13.1779 21.4539 14.2042C21.497 23.6645 21.4788 33.1271 21.4788 42.5875C21.4788 43.949 21.4788 43.9467 20.1317 43.5704C17.0883 42.7197 14.0403 41.885 11.0037 41.0092C10.3052 40.8085 10.0603 40.9248 10.083 41.698C10.1283 43.3241 10.1465 44.9548 10.0761 46.5787C10.0399 47.4134 10.3097 47.7532 11.1126 47.9699C16.1585 49.3429 21.1953 50.7455 26.2186 52.2006C27.1983 52.4857 27.2369 52.1276 27.2323 51.3248C27.2051 45.119 27.2164 38.9133 27.2164 32.7052Z" fill="#949494"/>
<path d="M29.5566 33.8024C29.5566 24.8324 29.5566 15.8601 29.5566 6.89016C29.5566 5.23666 29.5566 5.23438 31.253 5.23438C38.2538 5.23438 45.2546 5.23438 52.2577 5.23438C53.8315 5.23438 53.759 5.22525 53.5662 6.79209C53.3235 8.76945 53.226 10.7651 53.0469 12.7515C52.7679 15.8579 52.4663 18.9642 52.1851 22.0705C52.015 23.9429 51.8653 25.8199 51.6952 27.6924C51.4072 30.9127 51.1033 34.1308 50.8199 37.3534C50.6452 39.3399 50.5114 41.3309 50.3345 43.3174C50.0579 46.3872 49.754 49.4548 49.4728 52.5246C49.3707 53.649 49.2369 54.7757 49.2301 55.9023C49.2256 56.6458 48.9512 56.9834 48.2595 57.1704C44.606 58.1625 40.9593 59.1842 37.3126 60.1991C35.1831 60.7921 33.0559 61.4011 30.9219 61.9804C29.5657 62.3476 29.5589 62.3293 29.5589 60.9449C29.5566 51.8951 29.5566 42.8476 29.5566 33.8024ZM31.9764 25.8177C31.9764 29.6401 32.0036 33.4625 31.9583 37.285C31.9469 38.2725 32.0535 38.6785 33.2237 38.4345C36.3511 37.7822 39.5147 37.3032 42.6511 36.6966C43.4267 36.546 43.6694 36.7034 43.6036 37.4994C43.5016 38.7424 43.3972 39.9945 43.4403 41.2374C43.4766 42.3094 42.9595 42.6378 42.0388 42.8659C38.9727 43.6253 35.927 44.4715 32.8654 45.2537C32.2191 45.418 31.9333 45.6848 31.9583 46.4055C32.015 48.0316 32.015 49.66 31.9605 51.2862C31.9311 52.1779 32.1601 52.3923 33.0536 52.1483C37.6641 50.8939 42.2837 49.6851 46.9124 48.5015C47.6018 48.3258 47.8921 48.0681 47.9465 47.3201C48.3865 41.4381 48.8672 35.5608 49.3526 29.6834C49.4229 28.835 48.8695 29.095 48.4726 29.1429C45.1888 29.5489 41.905 29.9526 38.628 30.4041C37.8592 30.509 37.6483 30.2855 37.6596 29.5261C37.6959 26.7254 37.714 23.9247 37.6505 21.124C37.6301 20.1729 37.9045 19.9152 38.8434 19.9312C42.2678 19.9859 45.6923 19.9312 49.1167 19.97C49.8832 19.9791 50.1667 19.7556 50.2075 18.9733C50.2937 17.3129 50.4457 15.6549 50.6294 14.0014C50.7201 13.1986 50.4638 12.9568 49.6633 12.9614C44.0935 12.991 38.5237 12.991 32.9539 12.9591C32.1329 12.9545 31.9537 13.2487 31.9605 14.0105C31.9923 17.9447 31.9742 21.8812 31.9764 25.8177Z" fill="#D0D0D0"/>
<path d="M27.2163 32.7054C27.2163 38.9111 27.2049 45.1192 27.2299 51.325C27.2322 52.1255 27.1959 52.4836 26.2162 52.2008C21.1929 50.7457 16.1561 49.3431 11.1101 47.9701C10.3096 47.7511 10.0374 47.4113 10.0737 46.5788C10.144 44.955 10.1259 43.3243 10.0805 41.6982C10.0578 40.925 10.3028 40.8087 11.0013 41.0094C14.0379 41.8875 17.0859 42.7199 20.1293 43.5706C21.4764 43.9469 21.4764 43.9492 21.4764 42.5876C21.4764 33.1273 21.4945 23.6647 21.4514 14.2044C21.4469 13.1803 21.7259 12.8907 22.7101 12.9705C23.7941 13.0595 24.8963 13.0572 25.9803 12.9705C26.9555 12.893 27.2503 13.1667 27.2412 14.1998C27.1891 20.3691 27.2163 26.5384 27.2163 32.7054Z" fill="#FEFEFD"/>
<path d="M31.9742 25.8176C31.9742 21.8811 31.99 17.9446 31.9606 14.0104C31.9537 13.251 32.1329 12.9545 32.9539 12.959C38.5237 12.991 44.0935 12.9887 49.6633 12.9613C50.4638 12.9568 50.7201 13.1985 50.6294 14.0013C50.4457 15.6548 50.2937 17.3129 50.2076 18.9732C50.1667 19.7555 49.881 19.979 49.1167 19.9699C45.6923 19.9311 42.2679 19.9859 38.8434 19.9311C37.9068 19.9152 37.6301 20.1729 37.6506 21.1239C37.7141 23.9223 37.6959 26.7253 37.6596 29.526C37.6506 30.2878 37.8615 30.509 38.628 30.4041C41.905 29.9525 45.1888 29.5488 48.4727 29.1429C48.8695 29.0927 49.4229 28.8327 49.3526 29.6834C48.8673 35.5607 48.3865 41.4404 47.9465 47.32C47.8898 48.0681 47.5995 48.3258 46.9124 48.5014C42.2837 49.6828 37.6619 50.8939 33.0537 52.1482C32.1601 52.3923 31.9311 52.1779 31.9606 51.2861C32.015 49.66 32.015 48.0316 31.9583 46.4054C31.9333 45.6847 32.2191 45.4179 32.8654 45.2537C35.927 44.4737 38.9727 43.6253 42.0388 42.8658C42.9573 42.6377 43.4766 42.3093 43.4403 41.2374C43.3972 39.9944 43.5016 38.7423 43.6036 37.4993C43.6694 36.7034 43.429 36.546 42.6511 36.6965C39.5124 37.3032 36.3511 37.7821 33.2237 38.4344C32.0535 38.6784 31.9469 38.2702 31.9583 37.2849C32.0014 33.4625 31.9764 29.64 31.9742 25.8176Z" fill="#FEFEFD"/>
</g>
<defs>
<clipPath id="clip0_78_8983">
<rect width="59" height="67" fill="white"/>
</clipPath>
</defs>
</svg>
