<svg width="558" height="422" viewBox="0 0 558 422" fill="none" xmlns="http://www.w3.org/2000/svg">
<g clip-path="url(#clip0_14_3194)">
<g opacity="0.7">
<mask id="mask0_14_3194" style="mask-type:alpha" maskUnits="userSpaceOnUse" x="16" y="248" width="295" height="172">
<g opacity="0.7">
<g opacity="0.7">
<path opacity="0.7" d="M20.87 250.08L19.5 250.86C14.43 253.75 15.03 258.86 20.86 262.26L285.75 417.03C291.57 420.43 300.41 420.84 305.48 417.95L306.85 417.17C311.92 414.28 311.32 409.17 305.49 405.77L40.6 251C34.78 247.6 25.94 247.19 20.87 250.08Z" fill="url(#paint0_linear_14_3194)"/>
</g>
</g>
</mask>
<g mask="url(#mask0_14_3194)">
<path opacity="0.66" d="M20.87 250.08L19.5 250.86C14.43 253.75 15.03 258.86 20.86 262.26L285.75 417.03C291.57 420.43 300.41 420.84 305.48 417.95L306.85 417.17C311.92 414.28 311.32 409.17 305.49 405.77L40.6 251C34.78 247.6 25.94 247.19 20.87 250.08Z" fill="url(#paint1_linear_14_3194)"/>
</g>
<mask id="mask1_14_3194" style="mask-type:alpha" maskUnits="userSpaceOnUse" x="121" y="267" width="158" height="92">
<g opacity="0.7">
<g opacity="0.7">
<path opacity="0.7" d="M126.36 268.97L124.99 269.75C119.92 272.64 120.52 277.75 126.35 281.15L254.29 355.91C260.11 359.31 268.95 359.72 274.02 356.83L275.39 356.05C280.46 353.16 279.86 348.05 274.03 344.65L146.09 269.89C140.27 266.49 131.44 266.08 126.36 268.97Z" fill="url(#paint2_linear_14_3194)"/>
</g>
</g>
</mask>
<g mask="url(#mask1_14_3194)">
<path opacity="0.66" d="M126.36 268.97L124.99 269.75C119.92 272.64 120.52 277.75 126.35 281.15L254.29 355.91C260.11 359.31 268.95 359.72 274.02 356.83L275.39 356.05C280.46 353.16 279.86 348.05 274.03 344.65L146.09 269.89C140.27 266.49 131.44 266.08 126.36 268.97Z" fill="url(#paint3_linear_14_3194)"/>
</g>
<mask id="mask2_14_3194" style="mask-type:alpha" maskUnits="userSpaceOnUse" x="189" y="263" width="271" height="159">
<g opacity="0.7">
<g opacity="0.7">
<path opacity="0.7" d="M194.02 265.76L192.65 266.54C187.58 269.43 188.18 274.54 194.01 277.94L434.99 418.6C440.81 422 449.65 422.41 454.72 419.52L456.09 418.74C461.16 415.85 460.56 410.74 454.73 407.34L213.75 266.68C207.93 263.27 199.09 262.86 194.02 265.76Z" fill="url(#paint4_linear_14_3194)"/>
</g>
</g>
</mask>
<g mask="url(#mask2_14_3194)">
<path opacity="0.66" d="M194.02 265.76L192.65 266.54C187.58 269.43 188.18 274.54 194.01 277.94L434.99 418.6C440.81 422 449.65 422.41 454.72 419.52L456.09 418.74C461.16 415.85 460.56 410.74 454.73 407.34L213.75 266.68C207.93 263.27 199.09 262.86 194.02 265.76Z" fill="url(#paint5_linear_14_3194)"/>
</g>
<mask id="mask3_14_3194" style="mask-type:alpha" maskUnits="userSpaceOnUse" x="49" y="139" width="480" height="281">
<g opacity="0.7">
<g opacity="0.7">
<path opacity="0.7" d="M54.72 141.62L53.35 142.4C48.28 145.29 48.88 150.4 54.71 153.8L504.25 417.04C510.07 420.44 518.91 420.85 523.98 417.96L525.35 417.18C530.42 414.29 529.82 409.18 523.99 405.78L74.45 142.54C68.62 139.13 59.79 138.72 54.72 141.62Z" fill="url(#paint6_linear_14_3194)"/>
</g>
</g>
</mask>
<g mask="url(#mask3_14_3194)">
<path opacity="0.66" d="M54.72 141.62L53.35 142.4C48.28 145.29 48.88 150.4 54.71 153.8L504.25 417.04C510.07 420.44 518.91 420.85 523.98 417.96L525.35 417.18C530.42 414.29 529.82 409.18 523.99 405.78L74.45 142.54C68.62 139.13 59.79 138.72 54.72 141.62Z" fill="url(#paint7_linear_14_3194)"/>
</g>
<mask id="mask4_14_3194" style="mask-type:alpha" maskUnits="userSpaceOnUse" x="23" y="0" width="535" height="313">
<g opacity="0.7">
<g opacity="0.7">
<path opacity="0.7" d="M28.01 1.93002L26.64 2.71002C21.57 5.60002 22.17 10.71 28 14.11L533.24 309.65C539.06 313.05 547.9 313.46 552.97 310.57L554.34 309.79C559.41 306.9 558.81 301.79 552.98 298.39L47.74 2.85002C41.91 -0.549976 33.08 -0.969976 28.01 1.93002Z" fill="url(#paint8_linear_14_3194)"/>
</g>
</g>
</mask>
<g mask="url(#mask4_14_3194)">
<path opacity="0.66" d="M28.01 1.93002L26.64 2.71002C21.57 5.60002 22.17 10.71 28 14.11L533.24 309.65C539.06 313.05 547.9 313.46 552.97 310.57L554.34 309.79C559.41 306.9 558.81 301.79 552.98 298.39L47.74 2.85002C41.91 -0.549976 33.08 -0.969976 28.01 1.93002Z" fill="url(#paint9_linear_14_3194)"/>
</g>
<mask id="mask5_14_3194" style="mask-type:alpha" maskUnits="userSpaceOnUse" x="136" y="25" width="372" height="218">
<g opacity="0.7">
<g opacity="0.7">
<path opacity="0.7" d="M141.21 27.47L139.84 28.25C134.77 31.14 135.37 36.25 141.2 39.65L483.3 239.54C489.12 242.94 497.96 243.35 503.03 240.46L504.4 239.68C509.47 236.79 508.87 231.68 503.04 228.28L160.94 28.39C155.12 24.99 146.28 24.58 141.21 27.47Z" fill="url(#paint10_linear_14_3194)"/>
</g>
</g>
</mask>
<g mask="url(#mask5_14_3194)">
<path opacity="0.66" d="M141.21 27.47L139.84 28.25C134.77 31.14 135.37 36.25 141.2 39.65L483.3 239.54C489.12 242.94 497.96 243.35 503.03 240.46L504.4 239.68C509.47 236.79 508.87 231.68 503.04 228.28L160.94 28.39C155.12 24.99 146.28 24.58 141.21 27.47Z" fill="url(#paint11_linear_14_3194)"/>
</g>
<mask id="mask6_14_3194" style="mask-type:alpha" maskUnits="userSpaceOnUse" x="141" y="150" width="318" height="186">
<g opacity="0.7">
<g opacity="0.7">
<path opacity="0.7" d="M146.24 152.35L144.87 153.13C139.8 156.02 140.4 161.13 146.23 164.53L433.82 332.57C439.64 335.97 448.48 336.38 453.55 333.49L454.92 332.71C459.99 329.82 459.39 324.71 453.56 321.31L165.97 153.27C160.15 149.87 151.32 149.45 146.24 152.35Z" fill="url(#paint12_linear_14_3194)"/>
</g>
</g>
</mask>
<g mask="url(#mask6_14_3194)">
<path opacity="0.66" d="M146.24 152.35L144.87 153.13C139.8 156.02 140.4 161.13 146.23 164.53L433.82 332.57C439.64 335.97 448.48 336.38 453.55 333.49L454.92 332.71C459.99 329.82 459.39 324.71 453.56 321.31L165.97 153.27C160.15 149.87 151.32 149.45 146.24 152.35Z" fill="url(#paint13_linear_14_3194)"/>
</g>
<mask id="mask7_14_3194" style="mask-type:alpha" maskUnits="userSpaceOnUse" x="201" y="142" width="138" height="81">
<g opacity="0.7">
<g opacity="0.7">
<path opacity="0.7" d="M205.96 144.49L204.59 145.27C199.52 148.16 200.12 153.27 205.95 156.67L313.72 219.64C319.54 223.04 328.38 223.45 333.45 220.56L334.82 219.78C339.89 216.89 339.29 211.78 333.46 208.38L225.69 145.41C219.87 142.01 211.04 141.6 205.96 144.49Z" fill="url(#paint14_linear_14_3194)"/>
</g>
</g>
</mask>
<g mask="url(#mask7_14_3194)">
<path opacity="0.66" d="M205.96 144.49L204.59 145.27C199.52 148.16 200.12 153.27 205.95 156.67L313.72 219.64C319.54 223.04 328.38 223.45 333.45 220.56L334.82 219.78C339.89 216.89 339.29 211.78 333.46 208.38L225.69 145.41C219.87 142.01 211.04 141.6 205.96 144.49Z" fill="url(#paint15_linear_14_3194)"/>
</g>
</g>
<circle cx="96.5" cy="309.5" r="2.5" fill="#00C88F"/>
<circle cx="96.5" cy="320.5" r="2.5" fill="#00C88F"/>
<circle cx="96.5" cy="331.5" r="2.5" fill="#00C88F"/>
<circle cx="96.5" cy="342.5" r="2.5" fill="#00C88F"/>
<circle cx="96.5" cy="353.5" r="2.5" fill="#00C88F"/>
<circle cx="96.5" cy="364.5" r="2.5" fill="#00C88F"/>
<circle cx="108.5" cy="309.5" r="2.5" fill="#00C88F"/>
<circle cx="108.5" cy="320.5" r="2.5" fill="#00C88F"/>
<circle cx="108.5" cy="331.5" r="2.5" fill="#00C88F"/>
<circle cx="108.5" cy="342.5" r="2.5" fill="#00C88F"/>
<circle cx="108.5" cy="353.5" r="2.5" fill="#00C88F"/>
<circle cx="108.5" cy="364.5" r="2.5" fill="#00C88F"/>
<circle cx="120.5" cy="309.5" r="2.5" fill="#00C88F"/>
<circle cx="120.5" cy="320.5" r="2.5" fill="#00C88F"/>
<circle cx="120.5" cy="331.5" r="2.5" fill="#00C88F"/>
<circle cx="120.5" cy="342.5" r="2.5" fill="#00C88F"/>
<circle cx="120.5" cy="353.5" r="2.5" fill="#00C88F"/>
<circle cx="120.5" cy="364.5" r="2.5" fill="#00C88F"/>
<circle cx="132.5" cy="309.5" r="2.5" fill="#00C88F"/>
<circle cx="132.5" cy="320.5" r="2.5" fill="#00C88F"/>
<circle cx="132.5" cy="331.5" r="2.5" fill="#00C88F"/>
<circle cx="132.5" cy="342.5" r="2.5" fill="#00C88F"/>
<circle cx="132.5" cy="353.5" r="2.5" fill="#00C88F"/>
<circle cx="132.5" cy="364.5" r="2.5" fill="#00C88F"/>
<circle cx="144.5" cy="309.5" r="2.5" fill="#00C88F"/>
<circle cx="144.5" cy="320.5" r="2.5" fill="#00C88F"/>
<circle cx="144.5" cy="331.5" r="2.5" fill="#00C88F"/>
<circle cx="144.5" cy="342.5" r="2.5" fill="#00C88F"/>
<circle cx="144.5" cy="353.5" r="2.5" fill="#00C88F"/>
<circle cx="144.5" cy="364.5" r="2.5" fill="#00C88F"/>
<circle cx="156.5" cy="309.5" r="2.5" fill="#00C88F"/>
<circle cx="156.5" cy="320.5" r="2.5" fill="#00C88F"/>
<circle cx="156.5" cy="331.5" r="2.5" fill="#00C88F"/>
<circle cx="156.5" cy="342.5" r="2.5" fill="#00C88F"/>
<circle cx="156.5" cy="353.5" r="2.5" fill="#00C88F"/>
<circle cx="156.5" cy="364.5" r="2.5" fill="#00C88F"/>
<path d="M264.12 284.84L184.56 238.91C184.52 238.89 184.49 238.89 184.46 238.87V238.85L176.27 230.15L141.4 127.45C141.25 127 140.87 126.63 140.56 126.63L138.9 126.61C138.83 126.61 138.77 126.63 138.72 126.66L21.79 194.19L58.93 298.51L65.85 306.97L82.57 317.08L134.09 346.4L147.65 356.01L264.57 288.47C264.68 288.4 264.75 288.26 264.75 288.06V285.92C264.75 285.54 264.47 285.05 264.12 284.84Z" fill="url(#paint16_linear_14_3194)"/>
<path d="M67.63 306.46L184.46 238.87L176.27 230.16L59.35 297.7L67.63 306.46Z" fill="#5351AF"/>
<path opacity="0.3" d="M145.67 354.61L264.75 285.86C264.73 285.55 264.56 285.22 264.33 285L144.82 354L145.67 354.61Z" fill="white"/>
<path opacity="0.3" d="M140.62 126.64L22.16 195.03L23.02 195.64L141.35 127.32C141.19 126.97 140.89 126.69 140.62 126.64Z" fill="white"/>
<path opacity="0.48" d="M60.7 297.81L54.79 204.02L171.72 136.48L177.63 230.27L60.7 297.81Z" fill="url(#paint17_linear_14_3194)"/>
<path opacity="0.5" d="M138.4 92.1199L151.63 84.4799V81.5699L138.4 89.2099V92.1199Z" fill="#42E8E0"/>
<path opacity="0.5" d="M131.61 96.0399L136.37 93.2899V90.3799L131.61 93.1299V96.0399Z" fill="#42E8E0"/>
<path opacity="0.5" d="M126.34 99.0799L129.58 97.2099V94.2999L126.34 96.1699V99.0799Z" fill="#42E8E0"/>
<path opacity="0.5" d="M144.42 95.28L151.63 91.12V88.21L144.42 92.38V95.28Z" fill="#42E8E0"/>
<path opacity="0.5" d="M133.56 101.56L142.4 96.4499V93.5399L133.56 98.6499V101.56Z" fill="#42E8E0"/>
<path opacity="0.5" d="M128.3 104.59L131.54 102.72V99.8199L128.3 101.69V104.59Z" fill="#42E8E0"/>
<path opacity="0.5" d="M123.29 107.48L126.53 105.61V102.71L123.29 104.58V107.48Z" fill="#42E8E0"/>
<path d="M146.42 100.77L151.63 97.76V94.85L146.42 97.87V100.77Z" fill="#42E8E0"/>
<path d="M142.61 102.97L144.39 101.94V99.0299L142.61 100.06V102.97Z" fill="#42E8E0"/>
<path opacity="0.5" d="M137.35 106.01L140.59 104.14V101.23L137.35 103.1V106.01Z" fill="#42E8E0"/>
<path opacity="0.5" d="M132.37 115.52L151.63 104.4V101.5L132.37 112.62V115.52Z" fill="#42E8E0"/>
<path opacity="0.5" d="M125.58 119.44L130.35 116.69V113.79L125.58 116.54V119.44Z" fill="#42E8E0"/>
<path opacity="0.5" d="M146.42 114.06L151.63 111.04V108.14L146.42 111.15V114.06Z" fill="#42E8E0"/>
<path opacity="0.5" d="M134.17 121.13L144.39 115.22V112.32L134.17 118.22V121.13Z" fill="#42E8E0"/>
<path opacity="0.5" d="M128.9 124.17L132.14 122.3V119.39L128.9 121.26V124.17Z" fill="#42E8E0"/>
<path opacity="0.5" d="M140.96 123.85L151.63 117.69V114.78L140.96 120.94V123.85Z" fill="#42E8E0"/>
<path d="M131.21 129.48L138.93 125.02V122.11L131.21 126.57V129.48Z" fill="#42E8E0"/>
<path opacity="0.5" d="M123.97 133.66L129.19 130.64V127.74L123.97 130.75V133.66Z" fill="#42E8E0"/>
<path opacity="0.5" d="M148.03 126.41L151.63 124.33V121.42L148.03 123.5V126.41Z" fill="#42E8E0"/>
<path opacity="0.5" d="M141.24 130.33L146.01 127.58V124.67L141.24 127.42V130.33Z" fill="#42E8E0"/>
<path opacity="0.5" d="M131.54 135.93L139.22 131.5V128.59L131.54 133.02V135.93Z" fill="#42E8E0"/>
<path opacity="0.5" d="M140.59 137.35L151.63 130.97V128.06L140.59 134.44V137.35Z" fill="#42E8E0"/>
<path opacity="0.5" d="M128.21 144.49L138.56 138.51V135.61L128.21 141.58V144.49Z" fill="#42E8E0"/>
<path d="M122.95 147.53L126.19 145.66V142.75L122.95 144.62V147.53Z" fill="#42E8E0"/>
<path opacity="0.5" d="M117.9 150.44L121.14 148.57V145.67L117.9 147.54V150.44Z" fill="#42E8E0"/>
<path opacity="0.5" d="M145.01 141.43L151.63 137.61V134.7L145.01 138.52V141.43Z" fill="#42E8E0"/>
<path d="M117.33 104.28L108.15 109.58V106.68L117.33 101.38V104.28Z" fill="#42E8E0"/>
<path opacity="0.5" d="M115.37 112.06L108.15 116.22V113.32L115.37 109.15V112.06Z" fill="#42E8E0"/>
<path opacity="0.5" d="M113.37 119.85L108.15 122.87V119.96L113.37 116.95V119.85Z" fill="#42E8E0"/>
<path opacity="0.5" d="M115.74 125.12L108.15 129.51V126.6L115.74 122.22V125.12Z" fill="#42E8E0"/>
<path opacity="0.5" d="M113.37 133.14L108.15 136.15V133.24L113.37 130.23V133.14Z" fill="#42E8E0"/>
<path opacity="0.5" d="M114.77 138.97L108.15 142.79V139.88L114.77 136.06V138.97Z" fill="#42E8E0"/>
<path opacity="0.5" d="M111.76 147.35L108.15 149.43V146.52L111.76 144.44V147.35Z" fill="#42E8E0"/>
<path opacity="0.5" d="M115.14 152.04L108.15 156.07V153.17L115.14 149.13V152.04Z" fill="#42E8E0"/>
<path opacity="0.5" d="M114.77 158.89L108.15 162.71V159.81L114.77 155.99V158.89Z" fill="#42E8E0"/>
<path opacity="0.5" d="M140.18 144.22L142.99 142.6V139.69L140.18 141.32V144.22Z" fill="#42E8E0"/>
<path opacity="0.5" d="M131.82 149.05L138.16 145.39V142.48L131.82 146.14V149.05Z" fill="#42E8E0"/>
<path opacity="0.5" d="M87.06 121.65L100.3 114V111.1L87.06 118.74V121.65Z" fill="#42E8E0"/>
<path opacity="0.5" d="M80.27 125.57L85.04 122.82V119.91L80.27 122.66V125.57Z" fill="#42E8E0"/>
<path d="M75.01 128.61L78.25 126.74V123.83L75.01 125.7V128.61Z" fill="#42E8E0"/>
<path opacity="0.5" d="M93.08 124.81L100.3 120.65V117.74L93.08 121.9V124.81Z" fill="#42E8E0"/>
<path opacity="0.5" d="M82.22 131.08L91.06 125.98V123.07L82.22 128.17V131.08Z" fill="#42E8E0"/>
<path d="M76.96 134.12L80.2 132.25V129.34L76.96 131.21V134.12Z" fill="#42E8E0"/>
<path opacity="0.5" d="M71.95 137.01L75.19 135.14V132.23L71.95 134.1V137.01Z" fill="#42E8E0"/>
<path opacity="0.5" d="M95.08 130.3L100.3 127.29V124.38L95.08 127.39V130.3Z" fill="#42E8E0"/>
<path opacity="0.5" d="M91.27 132.5L93.05 131.47V128.56L91.27 129.59V132.5Z" fill="#42E8E0"/>
<path opacity="0.5" d="M86.01 135.54L89.25 133.67V130.76L86.01 132.63V135.54Z" fill="#42E8E0"/>
<path opacity="0.5" d="M81.03 145.05L100.3 133.93V131.02L81.03 142.14V145.05Z" fill="#42E8E0"/>
<path opacity="0.5" d="M74.24 148.97L79.01 146.22V143.31L74.24 146.06V148.97Z" fill="#42E8E0"/>
<path opacity="0.5" d="M95.08 143.58L100.3 140.57V137.66L95.08 140.68V143.58Z" fill="#42E8E0"/>
<path opacity="0.5" d="M82.83 150.65L93.05 144.75V141.84L82.83 147.75V150.65Z" fill="#42E8E0"/>
<path opacity="0.5" d="M77.57 153.69L80.81 151.82V148.92L77.57 150.79V153.69Z" fill="#42E8E0"/>
<path d="M89.62 153.38L100.3 147.21V144.3L89.62 150.47V153.38Z" fill="#42E8E0"/>
<path opacity="0.5" d="M79.87 159L87.6 154.54V151.64L79.87 156.1V159Z" fill="#42E8E0"/>
<path opacity="0.5" d="M72.63 163.18L77.85 160.17V157.26L72.63 160.28V163.18Z" fill="#42E8E0"/>
<path opacity="0.5" d="M96.69 155.94L100.3 153.85V150.95L96.69 153.03V155.94Z" fill="#42E8E0"/>
<path opacity="0.5" d="M89.9 159.85L94.67 157.1V154.2L89.9 156.95V159.85Z" fill="#42E8E0"/>
<path d="M80.2 165.46L87.88 161.02V158.12L80.2 162.55V165.46Z" fill="#42E8E0"/>
<path opacity="0.5" d="M89.25 166.87L100.3 160.49V157.59L89.25 163.97V166.87Z" fill="#42E8E0"/>
<path opacity="0.5" d="M76.87 174.02L87.23 168.04V165.13L76.87 171.11V174.02Z" fill="#42E8E0"/>
<path opacity="0.5" d="M71.61 177.05L74.85 175.18V172.28L71.61 174.15V177.05Z" fill="#42E8E0"/>
<path opacity="0.5" d="M66.56 179.97L69.8 178.1V175.19L66.56 177.06V179.97Z" fill="#42E8E0"/>
<path opacity="0.5" d="M93.68 170.96L100.3 167.14V164.23L93.68 168.05V170.96Z" fill="#42E8E0"/>
<path d="M65.99 133.81L56.81 139.11V136.2L65.99 130.9V133.81Z" fill="#42E8E0"/>
<path opacity="0.5" d="M64.03 141.59L56.81 145.75V142.84L64.03 138.68V141.59Z" fill="#42E8E0"/>
<path opacity="0.5" d="M62.03 149.38L56.81 152.39V149.48L62.03 146.47V149.38Z" fill="#42E8E0"/>
<path opacity="0.5" d="M64.41 154.65L56.81 159.03V156.13L64.41 151.74V154.65Z" fill="#42E8E0"/>
<path opacity="0.5" d="M62.03 162.66L56.81 165.67V162.77L62.03 159.75V162.66Z" fill="#42E8E0"/>
<path opacity="0.5" d="M63.43 168.49L56.81 172.32V169.41L63.43 165.59V168.49Z" fill="#42E8E0"/>
<path opacity="0.5" d="M60.42 176.88L56.81 178.96V176.05L60.42 173.97V176.88Z" fill="#42E8E0"/>
<path opacity="0.5" d="M63.8 181.56L56.81 185.6V182.69L63.8 178.66V181.56Z" fill="#42E8E0"/>
<path opacity="0.5" d="M63.43 188.42L56.81 192.24V189.33L63.43 185.51V188.42Z" fill="#42E8E0"/>
<path d="M88.84 173.75L91.65 172.12V169.22L88.84 170.84V173.75Z" fill="#42E8E0"/>
<path opacity="0.5" d="M80.48 178.58L86.82 174.92V172.01L80.48 175.67V178.58Z" fill="#42E8E0"/>
<path opacity="0.5" d="M138.4 151.93L151.63 144.29V141.38L138.4 149.03V151.93Z" fill="#42E8E0"/>
<path opacity="0.5" d="M131.61 155.85L136.37 153.1V150.19L131.61 152.95V155.85Z" fill="#42E8E0"/>
<path opacity="0.5" d="M126.34 158.89L129.58 157.02V154.11L126.34 155.98V158.89Z" fill="#42E8E0"/>
<path opacity="0.5" d="M144.42 155.1L151.63 150.93V148.02L144.42 152.19V155.1Z" fill="#42E8E0"/>
<path opacity="0.5" d="M133.56 161.37L142.4 156.26V153.36L133.56 158.46V161.37Z" fill="#42E8E0"/>
<path opacity="0.5" d="M128.3 164.4L131.54 162.53V159.63L128.3 161.5V164.4Z" fill="#42E8E0"/>
<path opacity="0.5" d="M123.29 167.3L126.53 165.43V162.52L123.29 164.39V167.3Z" fill="#42E8E0"/>
<path opacity="0.5" d="M146.42 160.59L151.63 157.57V154.66L146.42 157.68V160.59Z" fill="#42E8E0"/>
<path opacity="0.5" d="M142.61 162.78L144.39 161.75V158.85L142.61 159.88V162.78Z" fill="#42E8E0"/>
<path opacity="0.5" d="M137.35 165.82L140.59 163.95V161.04L137.35 162.91V165.82Z" fill="#42E8E0"/>
<path opacity="0.5" d="M132.37 175.34L151.63 164.21V161.31L132.37 172.43V175.34Z" fill="#42E8E0"/>
<path opacity="0.5" d="M125.58 179.26L130.35 176.5V173.6L125.58 176.35V179.26Z" fill="#42E8E0"/>
<path opacity="0.5" d="M146.42 173.87L151.63 170.86V167.95L146.42 170.96V173.87Z" fill="#42E8E0"/>
<path opacity="0.5" d="M134.17 180.94L144.39 175.04V172.13L134.17 178.03V180.94Z" fill="#42E8E0"/>
<path opacity="0.5" d="M128.9 183.98L132.14 182.11V179.2L128.9 181.07V183.98Z" fill="#42E8E0"/>
<path opacity="0.5" d="M140.96 183.66L151.63 177.5V174.59L140.96 180.75V183.66Z" fill="#42E8E0"/>
<path opacity="0.5" d="M131.21 189.29L138.93 184.83V181.92L131.21 186.38V189.29Z" fill="#42E8E0"/>
<path opacity="0.5" d="M123.97 193.47L129.19 190.46V187.55L123.97 190.56V193.47Z" fill="#42E8E0"/>
<path opacity="0.5" d="M148.03 186.22L151.63 184.14V181.23L148.03 183.31V186.22Z" fill="#42E8E0"/>
<path opacity="0.5" d="M141.24 190.14L146.01 187.39V184.48L141.24 187.23V190.14Z" fill="#42E8E0"/>
<path opacity="0.5" d="M131.54 195.74L139.22 191.31V188.4L131.54 192.83V195.74Z" fill="#42E8E0"/>
<path opacity="0.5" d="M140.59 197.16L151.63 190.78V187.87L140.59 194.25V197.16Z" fill="#42E8E0"/>
<path opacity="0.5" d="M128.21 204.3L138.56 198.33V195.42L128.21 201.4V204.3Z" fill="#42E8E0"/>
<path opacity="0.5" d="M122.95 207.34L126.19 205.47V202.56L122.95 204.43V207.34Z" fill="#42E8E0"/>
<path opacity="0.5" d="M117.9 210.26L121.14 208.39V205.48L117.9 207.35V210.26Z" fill="#42E8E0"/>
<path opacity="0.5" d="M145.01 201.24L151.63 197.42V194.51L145.01 198.34V201.24Z" fill="#42E8E0"/>
<path opacity="0.5" d="M117.33 164.09L108.15 169.39V166.49L117.33 161.19V164.09Z" fill="#42E8E0"/>
<path opacity="0.5" d="M115.37 171.87L108.15 176.04V173.13L115.37 168.96V171.87Z" fill="#42E8E0"/>
<path opacity="0.5" d="M113.37 179.66L108.15 182.68V179.77L113.37 176.76V179.66Z" fill="#42E8E0"/>
<path opacity="0.5" d="M115.74 184.94L108.15 189.32V186.41L115.74 182.03V184.94Z" fill="#42E8E0"/>
<path opacity="0.5" d="M113.37 192.95L108.15 195.96V193.05L113.37 190.04V192.95Z" fill="#42E8E0"/>
<path opacity="0.5" d="M114.77 198.78L108.15 202.6V199.69L114.77 195.87V198.78Z" fill="#42E8E0"/>
<path opacity="0.5" d="M111.76 207.16L108.15 209.24V206.34L111.76 204.25V207.16Z" fill="#42E8E0"/>
<path opacity="0.5" d="M115.14 211.85L108.15 215.88V212.98L115.14 208.94V211.85Z" fill="#42E8E0"/>
<path opacity="0.5" d="M114.77 218.7L108.15 222.53V219.62L114.77 215.8V218.7Z" fill="#42E8E0"/>
<path opacity="0.5" d="M140.18 204.04L142.99 202.41V199.5L140.18 201.13V204.04Z" fill="#42E8E0"/>
<path opacity="0.5" d="M131.82 208.86L138.16 205.2V202.3L131.82 205.95V208.86Z" fill="#42E8E0"/>
<path opacity="0.5" d="M126.58 231.2L137.27 225.03V222.12L126.58 228.29V231.2Z" fill="#42E8E0"/>
<path opacity="0.5" d="M119.25 235.43L123.47 233V230.09L119.25 232.52V235.43Z" fill="#42E8E0"/>
<path opacity="0.5" d="M87.06 181.46L100.3 173.82V170.91L87.06 178.55V181.46Z" fill="#42E8E0"/>
<path opacity="0.5" d="M80.27 185.38L85.04 182.63V179.72L80.27 182.47V185.38Z" fill="#42E8E0"/>
<path opacity="0.5" d="M75.01 188.42L78.25 186.55V183.64L75.01 185.51V188.42Z" fill="#42E8E0"/>
<path opacity="0.5" d="M93.08 184.62L100.3 180.46V177.55L93.08 181.71V184.62Z" fill="#42E8E0"/>
<path opacity="0.5" d="M82.22 190.89L91.06 185.79V182.88L82.22 187.99V190.89Z" fill="#42E8E0"/>
<path opacity="0.5" d="M76.96 193.93L80.2 192.06V189.15L76.96 191.02V193.93Z" fill="#42E8E0"/>
<path opacity="0.5" d="M71.95 196.82L75.19 194.95V192.04L71.95 193.91V196.82Z" fill="#42E8E0"/>
<path opacity="0.5" d="M95.08 190.11L100.3 187.1V184.19L95.08 187.2V190.11Z" fill="#42E8E0"/>
<path opacity="0.5" d="M91.27 192.31L93.05 191.28V188.37L91.27 189.4V192.31Z" fill="#42E8E0"/>
<path opacity="0.5" d="M86.01 195.35L89.25 193.48V190.57L86.01 192.44V195.35Z" fill="#42E8E0"/>
<path opacity="0.5" d="M81.03 204.86L100.3 193.74V190.83L81.03 201.95V204.86Z" fill="#42E8E0"/>
<path opacity="0.5" d="M74.24 208.78L79.01 206.03V203.12L74.24 205.87V208.78Z" fill="#42E8E0"/>
<path opacity="0.5" d="M95.08 203.39L100.3 200.38V197.47L95.08 200.49V203.39Z" fill="#42E8E0"/>
<path opacity="0.5" d="M82.83 210.47L93.05 204.56V201.65L82.83 207.56V210.47Z" fill="#42E8E0"/>
<path opacity="0.5" d="M77.57 213.5L80.81 211.63V208.73L77.57 210.6V213.5Z" fill="#42E8E0"/>
<path opacity="0.5" d="M89.62 213.19L100.3 207.02V204.12L89.62 210.28V213.19Z" fill="#42E8E0"/>
<path opacity="0.5" d="M79.87 218.81L87.6 214.36V211.45L79.87 215.91V218.81Z" fill="#42E8E0"/>
<path opacity="0.5" d="M72.63 223L77.85 219.98V217.07L72.63 220.09V223Z" fill="#42E8E0"/>
<path opacity="0.5" d="M96.69 215.75L100.3 213.66V210.76L96.69 212.84V215.75Z" fill="#42E8E0"/>
<path opacity="0.5" d="M89.9 219.67L94.67 216.91V214.01L89.9 216.76V219.67Z" fill="#42E8E0"/>
<path opacity="0.5" d="M80.2 225.27L87.88 220.83V217.93L80.2 222.36V225.27Z" fill="#42E8E0"/>
<path opacity="0.5" d="M89.25 226.68L100.3 220.31V217.4L89.25 223.78V226.68Z" fill="#42E8E0"/>
<path opacity="0.5" d="M76.87 233.83L87.23 227.85V224.94L76.87 230.92V233.83Z" fill="#42E8E0"/>
<path opacity="0.5" d="M71.61 236.87L74.85 235V232.09L71.61 233.96V236.87Z" fill="#42E8E0"/>
<path opacity="0.5" d="M66.56 239.78L69.8 237.91V235L66.56 236.87V239.78Z" fill="#42E8E0"/>
<path opacity="0.5" d="M93.68 230.77L100.3 226.95V224.04L93.68 227.86V230.77Z" fill="#42E8E0"/>
<path opacity="0.5" d="M65.99 193.62L56.81 198.92V196.01L65.99 190.71V193.62Z" fill="#42E8E0"/>
<path opacity="0.5" d="M64.03 201.4L56.81 205.56V202.65L64.03 198.49V201.4Z" fill="#42E8E0"/>
<path opacity="0.5" d="M62.03 209.19L56.81 212.2V209.3L62.03 206.28V209.19Z" fill="#42E8E0"/>
<path opacity="0.5" d="M64.41 214.46L56.81 218.84V215.94L64.41 211.55V214.46Z" fill="#42E8E0"/>
<path opacity="0.5" d="M62.03 222.47L56.81 225.49V222.58L62.03 219.57V222.47Z" fill="#42E8E0"/>
<path opacity="0.5" d="M63.43 228.31L56.81 232.13V229.22L63.43 225.4V228.31Z" fill="#42E8E0"/>
<path opacity="0.5" d="M60.42 236.69L56.81 238.77V235.86L60.42 233.78V236.69Z" fill="#42E8E0"/>
<path opacity="0.5" d="M63.8 241.38L56.81 245.41V242.5L63.8 238.47V241.38Z" fill="#42E8E0"/>
<path opacity="0.5" d="M63.43 248.23L56.81 252.05V249.14L63.43 245.32V248.23Z" fill="#42E8E0"/>
<path opacity="0.5" d="M88.84 233.56L91.65 231.94V229.03L88.84 230.65V233.56Z" fill="#42E8E0"/>
<path opacity="0.5" d="M80.48 238.39L86.82 234.73V231.82L80.48 235.48V238.39Z" fill="#42E8E0"/>
<path opacity="0.5" d="M75.24 260.73L85.93 254.55V251.65L75.24 257.82V260.73Z" fill="#42E8E0"/>
<path opacity="0.5" d="M67.92 264.96L72.13 262.52V259.62L67.92 262.05V264.96Z" fill="#42E8E0"/>
<path opacity="0.48" d="M61.73 298.03L71.81 213.96L188.74 146.42L178.66 230.48L61.73 298.03Z" fill="url(#paint18_linear_14_3194)"/>
<path opacity="0.48" d="M62.81 298.51L88.46 227.67L205.39 160.12L179.73 230.97L62.81 298.51Z" fill="url(#paint19_linear_14_3194)"/>
<path opacity="0.48" d="M63.88 299.26L104.04 244.58L220.97 177.03L180.81 231.71L63.88 299.26Z" fill="url(#paint20_linear_14_3194)"/>
<path opacity="0.48" d="M64.91 300.22L117.91 263.98L234.84 196.43L181.84 232.68L64.91 300.22Z" fill="url(#paint21_linear_14_3194)"/>
<path opacity="0.48" d="M182.78 233.83L246.43 217.53L129.5 285.07L65.85 301.37L182.78 233.83Z" fill="url(#paint22_linear_14_3194)"/>
<path opacity="0.48" d="M183.6 235.11L255.24 239.43L138.31 306.98L66.67 302.66L183.6 235.11Z" fill="url(#paint23_linear_14_3194)"/>
<path opacity="0.48" d="M184.26 236.48L260.91 261.24L143.98 328.79L67.33 304.03L184.26 236.48Z" fill="url(#paint24_linear_14_3194)"/>
<path opacity="0.48" d="M184.73 237.88L263.22 282.04L146.29 349.59L67.8 305.42L184.73 237.88Z" fill="url(#paint25_linear_14_3194)"/>
<path opacity="0.48" d="M176.69 230.34L59.76 297.88L38.1 198.26L155.03 130.72L176.69 230.34Z" fill="url(#paint26_linear_14_3194)"/>
<path d="M147.19 352.39L67.63 306.46C67.59 306.44 67.56 306.44 67.53 306.42V306.4L59.34 297.7L24.47 195C24.32 194.55 23.94 194.18 23.63 194.18L21.97 194.16C21.66 194.16 21.53 194.52 21.68 194.97L56.56 297.68C56.71 298.13 57.09 298.5 57.4 298.5L57.8 298.94C57.78 299.27 57.95 299.69 58.23 300L65.76 308.21C66.05 308.52 66.37 308.62 66.58 308.5L67.01 308.97C67.01 309.37 67.29 309.86 67.64 310.06L147.2 355.99C147.55 356.19 147.83 356.03 147.83 355.63V353.49C147.82 353.08 147.54 352.59 147.19 352.39Z" fill="url(#paint27_linear_14_3194)"/>
<path d="M47.76 266.82C50.39 265.3 50.39 262.85 47.76 261.33C45.13 259.81 40.88 259.81 38.25 261.33C35.62 262.85 35.62 265.3 38.25 266.82C40.88 268.34 45.14 268.34 47.76 266.82Z" fill="url(#paint28_linear_14_3194)"/>
<path d="M47.76 266.49C45.13 268.01 40.88 268.01 38.25 266.49C37.01 265.77 36.36 264.85 36.29 263.91C36.21 264.96 36.86 266.02 38.25 266.82C40.88 268.34 45.13 268.34 47.76 266.82C49.15 266.02 49.79 264.96 49.72 263.91C49.65 264.85 49 265.78 47.76 266.49Z" fill="white"/>
<path d="M47.76 279.88C50.39 278.36 50.39 275.91 47.76 274.39C45.13 272.87 40.88 272.87 38.25 274.39C35.62 275.91 35.62 278.36 38.25 279.88C40.88 281.39 45.14 281.39 47.76 279.88Z" fill="url(#paint29_linear_14_3194)"/>
<path d="M47.76 293.16C50.39 291.64 50.39 289.19 47.76 287.67C45.13 286.15 40.88 286.15 38.25 287.67C35.62 289.19 35.62 291.64 38.25 293.16C40.88 294.68 45.14 294.68 47.76 293.16Z" fill="url(#paint30_linear_14_3194)"/>
<path d="M36.29 264.08V257.29C36.29 258.28 36.95 259.28 38.26 260.03C40.89 261.55 45.14 261.55 47.77 260.03C49.04 259.3 49.69 258.34 49.73 257.38V228.64H36.29V313.28C36.29 316.99 39.3 320 43.01 320C46.72 320 49.73 316.99 49.73 313.28V290.33C49.77 291.35 49.12 292.38 47.77 293.16C45.14 294.68 40.89 294.68 38.26 293.16C36.95 292.4 36.29 291.41 36.29 290.42V290.41V283.62C36.29 284.61 36.95 285.61 38.26 286.36C40.89 287.88 45.14 287.88 47.77 286.36C49.04 285.63 49.69 284.67 49.73 283.71V277.04C49.77 278.06 49.12 279.09 47.77 279.87C45.14 281.39 40.89 281.39 38.26 279.87C36.95 279.11 36.29 278.12 36.29 277.13V277.12V270.33C36.29 271.32 36.95 272.32 38.26 273.07C40.89 274.59 45.14 274.59 47.77 273.07C49.04 272.34 49.69 271.38 49.73 270.42V263.98C49.77 265 49.12 266.03 47.77 266.81C45.14 268.33 40.89 268.33 38.26 266.81C36.95 266.07 36.29 265.08 36.29 264.08Z" fill="url(#paint31_linear_14_3194)"/>
<path d="M47.76 279.55C45.13 281.07 40.88 281.07 38.25 279.55C37.01 278.83 36.36 277.91 36.29 276.97C36.21 278.02 36.86 279.08 38.25 279.88C40.88 281.4 45.13 281.4 47.76 279.88C49.15 279.08 49.79 278.02 49.72 276.97C49.65 277.91 49 278.83 47.76 279.55Z" fill="white"/>
<path d="M47.76 292.84C45.13 294.36 40.88 294.36 38.25 292.84C37.01 292.12 36.36 291.2 36.29 290.26C36.21 291.31 36.86 292.37 38.25 293.17C40.88 294.69 45.13 294.69 47.76 293.17C49.15 292.37 49.79 291.31 49.72 290.26C49.65 291.19 49 292.12 47.76 292.84Z" fill="white"/>
<path opacity="0.48" d="M47.77 260.03C45.14 261.55 40.89 261.55 38.26 260.03C36.95 259.27 36.29 258.28 36.29 257.29V264.08V264.09C36.29 265.08 36.95 266.07 38.26 266.83C40.89 268.35 45.14 268.35 47.77 266.83C49.12 266.05 49.77 265.02 49.73 264V257.39C49.69 258.34 49.04 259.29 47.77 260.03Z" fill="url(#paint32_linear_14_3194)"/>
<path opacity="0.48" d="M47.77 273.09C45.14 274.61 40.89 274.61 38.26 273.09C36.95 272.33 36.29 271.34 36.29 270.35V277.14V277.15C36.29 278.14 36.95 279.13 38.26 279.89C40.89 281.41 45.14 281.41 47.77 279.89C49.12 279.11 49.77 278.08 49.73 277.06V270.45C49.69 271.39 49.04 272.35 47.77 273.09Z" fill="url(#paint33_linear_14_3194)"/>
<path opacity="0.48" d="M47.77 286.37C45.14 287.89 40.89 287.89 38.26 286.37C36.95 285.61 36.29 284.62 36.29 283.63V290.42V290.43C36.29 291.42 36.95 292.41 38.26 293.17C40.89 294.69 45.14 294.69 47.77 293.17C49.12 292.39 49.77 291.36 49.73 290.34V283.73C49.69 284.68 49.04 285.64 47.77 286.37Z" fill="url(#paint34_linear_14_3194)"/>
<path d="M18.72 218.19C18.41 218.02 18.1 217.84 17.81 217.65L14.52 199.04L18.64 174.34L30.09 161.86L41.89 150.41L60.67 142.62L61.16 142.43C62.05 142.88 62.89 143.42 63.67 144.04C68.37 143.45 73.06 142.87 77.76 142.28C76.97 140.35 76.03 138.58 74.93 137.03L77.18 136.15L68.77 131.3C68.67 131.24 68.57 131.18 68.47 131.13L68.15 130.95L68.13 130.96C60.9 127.06 51.05 127.76 40.19 134.03C18 146.84 0 178.02 0 203.66C0 216.38 4.43 225.34 11.61 229.58L11.67 229.61C11.75 229.66 11.84 229.71 11.92 229.75L20.85 234.86L20.39 232.27C21.5 232.36 22.65 232.36 23.83 232.29C21.35 227.93 18 223.09 18.72 218.19Z" fill="url(#paint35_linear_14_3194)"/>
<path d="M80.39 158.27C80.4 157.92 80.41 157.58 80.41 157.23C80.41 151.42 79.46 146.42 77.77 142.27C73.07 142.86 68.38 143.44 63.68 144.03C68.2 147.6 70.93 153.99 70.93 162.7C70.93 182.29 57.17 206.12 40.21 215.92C31.84 220.75 24.26 221.25 18.72 218.19C18.01 223.09 21.35 227.93 23.83 232.3C27.56 232.07 31.59 231.04 35.81 229.13L34.48 230.62C34.48 230.62 51.2 224.82 51.55 224.45C51.89 224.08 71.36 204.42 71.36 204.42L84.07 177L80.39 158.27Z" fill="url(#paint36_linear_14_3194)"/>
<path opacity="0.5" d="M76.41 166.78C76.41 147.19 62.65 139.25 45.69 149.04C28.72 158.84 14.97 182.66 14.97 202.26C14.97 221.86 28.71 229.79 45.68 220C62.65 210.2 76.41 186.37 76.41 166.78Z" fill="url(#paint37_linear_14_3194)"/>
<path opacity="0.48" d="M73.74 165.33C73.74 145.74 59.98 137.8 43.02 147.59C26.05 157.39 12.3 181.21 12.3 200.81C12.3 220.4 26.06 228.34 43.02 218.55C59.98 208.75 73.74 184.92 73.74 165.33Z" fill="url(#paint38_linear_14_3194)"/>
<path d="M49.04 139.12C26.84 151.94 8.84 183.12 8.84 208.76C8.84 234.4 26.84 244.79 49.04 231.97C71.24 219.15 89.24 187.97 89.24 162.33C89.24 136.69 71.25 126.3 49.04 139.12ZM49.04 221.02C32.07 230.82 18.32 222.88 18.32 203.28C18.32 183.68 32.08 159.86 49.04 150.06C66.01 140.26 79.76 148.2 79.76 167.8C79.77 187.4 66.01 211.22 49.04 221.02Z" fill="#BCBEFF"/>
<path d="M49.04 139.12C26.84 151.94 8.84 183.12 8.84 208.76C8.84 234.4 26.84 244.79 49.04 231.97C71.24 219.15 89.24 187.97 89.24 162.33C89.24 136.69 71.25 126.3 49.04 139.12ZM49.04 221.02C32.07 230.82 18.32 222.88 18.32 203.28C18.32 183.68 32.08 159.86 49.04 150.06C66.01 140.26 79.76 148.2 79.76 167.8C79.77 187.4 66.01 211.22 49.04 221.02Z" fill="#BCBEFF"/>
<path d="M9.45 209.44C9.45 183.8 27.45 152.62 49.65 139.8C63.32 131.91 75.38 132.82 82.65 140.66C75.46 132.19 63.1 130.99 49.04 139.11C26.84 151.93 8.84 183.11 8.84 208.75C8.84 218.61 11.51 226.2 16.05 231.1C11.88 226.19 9.45 218.85 9.45 209.44Z" fill="white"/>
<path d="M49.65 221.71C66.62 211.91 80.37 188.09 80.37 168.49C80.37 160.9 78.3 155.07 74.78 151.33C77.92 155.08 79.76 160.66 79.76 167.8C79.76 187.39 66 211.22 49.04 221.02C38.64 227.02 29.46 226.36 23.9 220.44C29.39 226.98 38.87 227.93 49.65 221.71Z" fill="white"/>
</g>
<defs>
<linearGradient id="paint0_linear_14_3194" x1="306.169" y1="417.562" x2="164.038" y2="168.41" gradientUnits="userSpaceOnUse">
<stop/>
<stop offset="0.0576" stop-color="#292929"/>
<stop offset="0.1455" stop-color="#626262"/>
<stop offset="0.2308" stop-color="#919191"/>
<stop offset="0.3114" stop-color="#B6B6B6"/>
<stop offset="0.3863" stop-color="#D0D0D0"/>
<stop offset="0.4531" stop-color="#E0E0E0"/>
<stop offset="0.5054" stop-color="#E6E6E6"/>
<stop offset="0.5514" stop-color="#DEDEDE"/>
<stop offset="0.6211" stop-color="#C9C9C9"/>
<stop offset="0.7058" stop-color="#A7A7A7"/>
<stop offset="0.8025" stop-color="#777777"/>
<stop offset="0.9076" stop-color="#3B3B3B"/>
<stop offset="1"/>
</linearGradient>
<linearGradient id="paint1_linear_14_3194" x1="306.169" y1="417.562" x2="164.038" y2="168.41" gradientUnits="userSpaceOnUse">
<stop stop-color="#5761D7"/>
<stop offset="0.00965709" stop-color="#5665D7"/>
<stop offset="0.1262" stop-color="#4F94DA"/>
<stop offset="0.2375" stop-color="#49B8DD"/>
<stop offset="0.3408" stop-color="#45D3DF"/>
<stop offset="0.4332" stop-color="#43E2E0"/>
<stop offset="0.5054" stop-color="#42E8E0"/>
<stop offset="0.5719" stop-color="#43E0DF"/>
<stop offset="0.6727" stop-color="#46CCDE"/>
<stop offset="0.7952" stop-color="#4CA9DC"/>
<stop offset="0.9335" stop-color="#537AD9"/>
<stop offset="1" stop-color="#5761D7"/>
</linearGradient>
<linearGradient id="paint2_linear_14_3194" x1="274.712" y1="356.438" x2="200.643" y2="226.597" gradientUnits="userSpaceOnUse">
<stop/>
<stop offset="0.0576" stop-color="#292929"/>
<stop offset="0.1455" stop-color="#626262"/>
<stop offset="0.2308" stop-color="#919191"/>
<stop offset="0.3114" stop-color="#B6B6B6"/>
<stop offset="0.3863" stop-color="#D0D0D0"/>
<stop offset="0.4531" stop-color="#E0E0E0"/>
<stop offset="0.5054" stop-color="#E6E6E6"/>
<stop offset="0.5514" stop-color="#DEDEDE"/>
<stop offset="0.6211" stop-color="#C9C9C9"/>
<stop offset="0.7058" stop-color="#A7A7A7"/>
<stop offset="0.8025" stop-color="#777777"/>
<stop offset="0.9076" stop-color="#3B3B3B"/>
<stop offset="1"/>
</linearGradient>
<linearGradient id="paint3_linear_14_3194" x1="274.712" y1="356.438" x2="200.643" y2="226.597" gradientUnits="userSpaceOnUse">
<stop stop-color="#5761D7"/>
<stop offset="0.00965709" stop-color="#5665D7"/>
<stop offset="0.1262" stop-color="#4F94DA"/>
<stop offset="0.2375" stop-color="#49B8DD"/>
<stop offset="0.3408" stop-color="#45D3DF"/>
<stop offset="0.4332" stop-color="#43E2E0"/>
<stop offset="0.5054" stop-color="#42E8E0"/>
<stop offset="0.5719" stop-color="#43E0DF"/>
<stop offset="0.6727" stop-color="#46CCDE"/>
<stop offset="0.7952" stop-color="#4CA9DC"/>
<stop offset="0.9335" stop-color="#537AD9"/>
<stop offset="1" stop-color="#5761D7"/>
</linearGradient>
<linearGradient id="paint4_linear_14_3194" x1="455.344" y1="419.16" x2="325.158" y2="190.947" gradientUnits="userSpaceOnUse">
<stop/>
<stop offset="0.0576" stop-color="#292929"/>
<stop offset="0.1455" stop-color="#626262"/>
<stop offset="0.2308" stop-color="#919191"/>
<stop offset="0.3114" stop-color="#B6B6B6"/>
<stop offset="0.3863" stop-color="#D0D0D0"/>
<stop offset="0.4531" stop-color="#E0E0E0"/>
<stop offset="0.5054" stop-color="#E6E6E6"/>
<stop offset="0.5514" stop-color="#DEDEDE"/>
<stop offset="0.6211" stop-color="#C9C9C9"/>
<stop offset="0.7058" stop-color="#A7A7A7"/>
<stop offset="0.8025" stop-color="#777777"/>
<stop offset="0.9076" stop-color="#3B3B3B"/>
<stop offset="1"/>
</linearGradient>
<linearGradient id="paint5_linear_14_3194" x1="455.344" y1="419.16" x2="325.158" y2="190.947" gradientUnits="userSpaceOnUse">
<stop stop-color="#5761D7"/>
<stop offset="0.00965709" stop-color="#5665D7"/>
<stop offset="0.1262" stop-color="#4F94DA"/>
<stop offset="0.2375" stop-color="#49B8DD"/>
<stop offset="0.3408" stop-color="#45D3DF"/>
<stop offset="0.4332" stop-color="#43E2E0"/>
<stop offset="0.5054" stop-color="#42E8E0"/>
<stop offset="0.5719" stop-color="#43E0DF"/>
<stop offset="0.6727" stop-color="#46CCDE"/>
<stop offset="0.7952" stop-color="#4CA9DC"/>
<stop offset="0.9335" stop-color="#537AD9"/>
<stop offset="1" stop-color="#5761D7"/>
</linearGradient>
<linearGradient id="paint6_linear_14_3194" x1="524.915" y1="417.418" x2="290.765" y2="6.95909" gradientUnits="userSpaceOnUse">
<stop/>
<stop offset="0.0576" stop-color="#292929"/>
<stop offset="0.1455" stop-color="#626262"/>
<stop offset="0.2308" stop-color="#919191"/>
<stop offset="0.3114" stop-color="#B6B6B6"/>
<stop offset="0.3863" stop-color="#D0D0D0"/>
<stop offset="0.4531" stop-color="#E0E0E0"/>
<stop offset="0.5054" stop-color="#E6E6E6"/>
<stop offset="0.5514" stop-color="#DEDEDE"/>
<stop offset="0.6211" stop-color="#C9C9C9"/>
<stop offset="0.7058" stop-color="#A7A7A7"/>
<stop offset="0.8025" stop-color="#777777"/>
<stop offset="0.9076" stop-color="#3B3B3B"/>
<stop offset="1"/>
</linearGradient>
<linearGradient id="paint7_linear_14_3194" x1="524.915" y1="417.418" x2="290.765" y2="6.95909" gradientUnits="userSpaceOnUse">
<stop stop-color="#5761D7"/>
<stop offset="0.00965709" stop-color="#5665D7"/>
<stop offset="0.1262" stop-color="#4F94DA"/>
<stop offset="0.2375" stop-color="#49B8DD"/>
<stop offset="0.3408" stop-color="#45D3DF"/>
<stop offset="0.4332" stop-color="#43E2E0"/>
<stop offset="0.5054" stop-color="#42E8E0"/>
<stop offset="0.5719" stop-color="#43E0DF"/>
<stop offset="0.6727" stop-color="#46CCDE"/>
<stop offset="0.7952" stop-color="#4CA9DC"/>
<stop offset="0.9335" stop-color="#537AD9"/>
<stop offset="1" stop-color="#5761D7"/>
</linearGradient>
<linearGradient id="paint8_linear_14_3194" x1="553.802" y1="310.091" x2="292.074" y2="-148.712" gradientUnits="userSpaceOnUse">
<stop/>
<stop offset="0.0576" stop-color="#292929"/>
<stop offset="0.1455" stop-color="#626262"/>
<stop offset="0.2308" stop-color="#919191"/>
<stop offset="0.3114" stop-color="#B6B6B6"/>
<stop offset="0.3863" stop-color="#D0D0D0"/>
<stop offset="0.4531" stop-color="#E0E0E0"/>
<stop offset="0.5054" stop-color="#E6E6E6"/>
<stop offset="0.5514" stop-color="#DEDEDE"/>
<stop offset="0.6211" stop-color="#C9C9C9"/>
<stop offset="0.7058" stop-color="#A7A7A7"/>
<stop offset="0.8025" stop-color="#777777"/>
<stop offset="0.9076" stop-color="#3B3B3B"/>
<stop offset="1"/>
</linearGradient>
<linearGradient id="paint9_linear_14_3194" x1="553.802" y1="310.091" x2="292.074" y2="-148.712" gradientUnits="userSpaceOnUse">
<stop stop-color="#5761D7"/>
<stop offset="0.00965709" stop-color="#5665D7"/>
<stop offset="0.1262" stop-color="#4F94DA"/>
<stop offset="0.2375" stop-color="#49B8DD"/>
<stop offset="0.3408" stop-color="#45D3DF"/>
<stop offset="0.4332" stop-color="#43E2E0"/>
<stop offset="0.5054" stop-color="#42E8E0"/>
<stop offset="0.5719" stop-color="#43E0DF"/>
<stop offset="0.6727" stop-color="#46CCDE"/>
<stop offset="0.7952" stop-color="#4CA9DC"/>
<stop offset="0.9335" stop-color="#537AD9"/>
<stop offset="1" stop-color="#5761D7"/>
</linearGradient>
<linearGradient id="paint10_linear_14_3194" x1="503.717" y1="240.065" x2="323.213" y2="-76.3555" gradientUnits="userSpaceOnUse">
<stop/>
<stop offset="0.0576" stop-color="#292929"/>
<stop offset="0.1455" stop-color="#626262"/>
<stop offset="0.2308" stop-color="#919191"/>
<stop offset="0.3114" stop-color="#B6B6B6"/>
<stop offset="0.3863" stop-color="#D0D0D0"/>
<stop offset="0.4531" stop-color="#E0E0E0"/>
<stop offset="0.5054" stop-color="#E6E6E6"/>
<stop offset="0.5514" stop-color="#DEDEDE"/>
<stop offset="0.6211" stop-color="#C9C9C9"/>
<stop offset="0.7058" stop-color="#A7A7A7"/>
<stop offset="0.8025" stop-color="#777777"/>
<stop offset="0.9076" stop-color="#3B3B3B"/>
<stop offset="1"/>
</linearGradient>
<linearGradient id="paint11_linear_14_3194" x1="503.717" y1="240.065" x2="323.213" y2="-76.3555" gradientUnits="userSpaceOnUse">
<stop stop-color="#5761D7"/>
<stop offset="0.00965709" stop-color="#5665D7"/>
<stop offset="0.1262" stop-color="#4F94DA"/>
<stop offset="0.2375" stop-color="#49B8DD"/>
<stop offset="0.3408" stop-color="#45D3DF"/>
<stop offset="0.4332" stop-color="#43E2E0"/>
<stop offset="0.5054" stop-color="#42E8E0"/>
<stop offset="0.5719" stop-color="#43E0DF"/>
<stop offset="0.6727" stop-color="#46CCDE"/>
<stop offset="0.7952" stop-color="#4CA9DC"/>
<stop offset="0.9335" stop-color="#537AD9"/>
<stop offset="1" stop-color="#5761D7"/>
</linearGradient>
<linearGradient id="paint12_linear_14_3194" x1="454.242" y1="333.093" x2="300.829" y2="64.164" gradientUnits="userSpaceOnUse">
<stop/>
<stop offset="0.0576" stop-color="#292929"/>
<stop offset="0.1455" stop-color="#626262"/>
<stop offset="0.2308" stop-color="#919191"/>
<stop offset="0.3114" stop-color="#B6B6B6"/>
<stop offset="0.3863" stop-color="#D0D0D0"/>
<stop offset="0.4531" stop-color="#E0E0E0"/>
<stop offset="0.5054" stop-color="#E6E6E6"/>
<stop offset="0.5514" stop-color="#DEDEDE"/>
<stop offset="0.6211" stop-color="#C9C9C9"/>
<stop offset="0.7058" stop-color="#A7A7A7"/>
<stop offset="0.8025" stop-color="#777777"/>
<stop offset="0.9076" stop-color="#3B3B3B"/>
<stop offset="1"/>
</linearGradient>
<linearGradient id="paint13_linear_14_3194" x1="454.242" y1="333.093" x2="300.829" y2="64.164" gradientUnits="userSpaceOnUse">
<stop stop-color="#5761D7"/>
<stop offset="0.00965709" stop-color="#5665D7"/>
<stop offset="0.1262" stop-color="#4F94DA"/>
<stop offset="0.2375" stop-color="#49B8DD"/>
<stop offset="0.3408" stop-color="#45D3DF"/>
<stop offset="0.4332" stop-color="#43E2E0"/>
<stop offset="0.5054" stop-color="#42E8E0"/>
<stop offset="0.5719" stop-color="#43E0DF"/>
<stop offset="0.6727" stop-color="#46CCDE"/>
<stop offset="0.7952" stop-color="#4CA9DC"/>
<stop offset="0.9335" stop-color="#537AD9"/>
<stop offset="1" stop-color="#5761D7"/>
</linearGradient>
<linearGradient id="paint14_linear_14_3194" x1="334.138" y1="220.175" x2="270.095" y2="107.909" gradientUnits="userSpaceOnUse">
<stop/>
<stop offset="0.0576" stop-color="#292929"/>
<stop offset="0.1455" stop-color="#626262"/>
<stop offset="0.2308" stop-color="#919191"/>
<stop offset="0.3114" stop-color="#B6B6B6"/>
<stop offset="0.3863" stop-color="#D0D0D0"/>
<stop offset="0.4531" stop-color="#E0E0E0"/>
<stop offset="0.5054" stop-color="#E6E6E6"/>
<stop offset="0.5514" stop-color="#DEDEDE"/>
<stop offset="0.6211" stop-color="#C9C9C9"/>
<stop offset="0.7058" stop-color="#A7A7A7"/>
<stop offset="0.8025" stop-color="#777777"/>
<stop offset="0.9076" stop-color="#3B3B3B"/>
<stop offset="1"/>
</linearGradient>
<linearGradient id="paint15_linear_14_3194" x1="334.138" y1="220.175" x2="270.095" y2="107.909" gradientUnits="userSpaceOnUse">
<stop stop-color="#5761D7"/>
<stop offset="0.00965709" stop-color="#5665D7"/>
<stop offset="0.1262" stop-color="#4F94DA"/>
<stop offset="0.2375" stop-color="#49B8DD"/>
<stop offset="0.3408" stop-color="#45D3DF"/>
<stop offset="0.4332" stop-color="#43E2E0"/>
<stop offset="0.5054" stop-color="#42E8E0"/>
<stop offset="0.5719" stop-color="#43E0DF"/>
<stop offset="0.6727" stop-color="#46CCDE"/>
<stop offset="0.7952" stop-color="#4CA9DC"/>
<stop offset="0.9335" stop-color="#537AD9"/>
<stop offset="1" stop-color="#5761D7"/>
</linearGradient>
<linearGradient id="paint16_linear_14_3194" x1="62.4557" y1="158.746" x2="199.595" y2="342.659" gradientUnits="userSpaceOnUse">
<stop stop-color="#BCBEFF"/>
<stop offset="0.4839" stop-color="#5761D7"/>
<stop offset="0.5757" stop-color="#5C66D9"/>
<stop offset="0.6839" stop-color="#6A73DF"/>
<stop offset="0.8005" stop-color="#8289E8"/>
<stop offset="0.922" stop-color="#A3A7F5"/>
<stop offset="1" stop-color="#BCBEFF"/>
</linearGradient>
<linearGradient id="paint17_linear_14_3194" x1="54.786" y1="217.144" x2="177.633" y2="217.144" gradientUnits="userSpaceOnUse">
<stop stop-color="#42E8E0"/>
<stop offset="0.1507" stop-color="#43E3E0"/>
<stop offset="0.3285" stop-color="#45D5DF"/>
<stop offset="0.5199" stop-color="#49BDDD"/>
<stop offset="0.7209" stop-color="#4E9CDB"/>
<stop offset="0.9274" stop-color="#5472D8"/>
<stop offset="1" stop-color="#5761D7"/>
</linearGradient>
<linearGradient id="paint18_linear_14_3194" x1="61.7317" y1="222.221" x2="188.738" y2="222.221" gradientUnits="userSpaceOnUse">
<stop stop-color="#42E8E0"/>
<stop offset="0.1507" stop-color="#43E3E0"/>
<stop offset="0.3285" stop-color="#45D5DF"/>
<stop offset="0.5199" stop-color="#49BDDD"/>
<stop offset="0.7209" stop-color="#4E9CDB"/>
<stop offset="0.9274" stop-color="#5472D8"/>
<stop offset="1" stop-color="#5761D7"/>
</linearGradient>
<linearGradient id="paint19_linear_14_3194" x1="62.8053" y1="229.319" x2="205.388" y2="229.319" gradientUnits="userSpaceOnUse">
<stop stop-color="#42E8E0"/>
<stop offset="0.1507" stop-color="#43E3E0"/>
<stop offset="0.3285" stop-color="#45D5DF"/>
<stop offset="0.5199" stop-color="#49BDDD"/>
<stop offset="0.7209" stop-color="#4E9CDB"/>
<stop offset="0.9274" stop-color="#5472D8"/>
<stop offset="1" stop-color="#5761D7"/>
</linearGradient>
<linearGradient id="paint20_linear_14_3194" x1="63.8797" y1="238.144" x2="220.972" y2="238.144" gradientUnits="userSpaceOnUse">
<stop stop-color="#42E8E0"/>
<stop offset="0.1507" stop-color="#43E3E0"/>
<stop offset="0.3285" stop-color="#45D5DF"/>
<stop offset="0.5199" stop-color="#49BDDD"/>
<stop offset="0.7209" stop-color="#4E9CDB"/>
<stop offset="0.9274" stop-color="#5472D8"/>
<stop offset="1" stop-color="#5761D7"/>
</linearGradient>
<linearGradient id="paint21_linear_14_3194" x1="64.9102" y1="248.329" x2="234.844" y2="248.329" gradientUnits="userSpaceOnUse">
<stop stop-color="#42E8E0"/>
<stop offset="0.1507" stop-color="#43E3E0"/>
<stop offset="0.3285" stop-color="#45D5DF"/>
<stop offset="0.5199" stop-color="#49BDDD"/>
<stop offset="0.7209" stop-color="#4E9CDB"/>
<stop offset="0.9274" stop-color="#5472D8"/>
<stop offset="1" stop-color="#5761D7"/>
</linearGradient>
<linearGradient id="paint22_linear_14_3194" x1="65.854" y1="259.45" x2="246.426" y2="259.45" gradientUnits="userSpaceOnUse">
<stop stop-color="#42E8E0"/>
<stop offset="0.1507" stop-color="#43E3E0"/>
<stop offset="0.3285" stop-color="#45D5DF"/>
<stop offset="0.5199" stop-color="#49BDDD"/>
<stop offset="0.7209" stop-color="#4E9CDB"/>
<stop offset="0.9274" stop-color="#5472D8"/>
<stop offset="1" stop-color="#5761D7"/>
</linearGradient>
<linearGradient id="paint23_linear_14_3194" x1="66.6719" y1="271.045" x2="255.238" y2="271.045" gradientUnits="userSpaceOnUse">
<stop stop-color="#42E8E0"/>
<stop offset="0.1507" stop-color="#43E3E0"/>
<stop offset="0.3285" stop-color="#45D5DF"/>
<stop offset="0.5199" stop-color="#49BDDD"/>
<stop offset="0.7209" stop-color="#4E9CDB"/>
<stop offset="0.9274" stop-color="#5472D8"/>
<stop offset="1" stop-color="#5761D7"/>
</linearGradient>
<linearGradient id="paint24_linear_14_3194" x1="67.3299" y1="282.634" x2="260.913" y2="282.634" gradientUnits="userSpaceOnUse">
<stop stop-color="#42E8E0"/>
<stop offset="0.1507" stop-color="#43E3E0"/>
<stop offset="0.3285" stop-color="#45D5DF"/>
<stop offset="0.5199" stop-color="#49BDDD"/>
<stop offset="0.7209" stop-color="#4E9CDB"/>
<stop offset="0.9274" stop-color="#5472D8"/>
<stop offset="1" stop-color="#5761D7"/>
</linearGradient>
<linearGradient id="paint25_linear_14_3194" x1="67.8007" y1="293.733" x2="263.216" y2="293.733" gradientUnits="userSpaceOnUse">
<stop stop-color="#42E8E0"/>
<stop offset="0.1507" stop-color="#43E3E0"/>
<stop offset="0.3285" stop-color="#45D5DF"/>
<stop offset="0.5199" stop-color="#49BDDD"/>
<stop offset="0.7209" stop-color="#4E9CDB"/>
<stop offset="0.9274" stop-color="#5472D8"/>
<stop offset="1" stop-color="#5761D7"/>
</linearGradient>
<linearGradient id="paint26_linear_14_3194" x1="38.0971" y1="214.299" x2="176.693" y2="214.299" gradientUnits="userSpaceOnUse">
<stop stop-color="#42E8E0"/>
<stop offset="0.1507" stop-color="#43E3E0"/>
<stop offset="0.3285" stop-color="#45D5DF"/>
<stop offset="0.5199" stop-color="#49BDDD"/>
<stop offset="0.7209" stop-color="#4E9CDB"/>
<stop offset="0.9274" stop-color="#5472D8"/>
<stop offset="1" stop-color="#5761D7"/>
</linearGradient>
<linearGradient id="paint27_linear_14_3194" x1="14.126" y1="200.238" x2="165.588" y2="299.36" gradientUnits="userSpaceOnUse">
<stop stop-color="#5761D7"/>
<stop offset="1" stop-color="#5761D7"/>
</linearGradient>
<linearGradient id="paint28_linear_14_3194" x1="38.2571" y1="261.332" x2="43.0115" y2="269.566" gradientUnits="userSpaceOnUse">
<stop stop-color="#5761D7"/>
<stop offset="0.1645" stop-color="#5E67DA"/>
<stop offset="0.4051" stop-color="#727AE2"/>
<stop offset="0.6924" stop-color="#9297EE"/>
<stop offset="1" stop-color="#BCBEFF"/>
</linearGradient>
<linearGradient id="paint29_linear_14_3194" x1="38.2569" y1="274.389" x2="43.0113" y2="282.623" gradientUnits="userSpaceOnUse">
<stop stop-color="#5761D7"/>
<stop offset="0.1645" stop-color="#5E67DA"/>
<stop offset="0.4051" stop-color="#727AE2"/>
<stop offset="0.6924" stop-color="#9297EE"/>
<stop offset="1" stop-color="#BCBEFF"/>
</linearGradient>
<linearGradient id="paint30_linear_14_3194" x1="38.257" y1="287.674" x2="43.0114" y2="295.909" gradientUnits="userSpaceOnUse">
<stop stop-color="#5761D7"/>
<stop offset="0.1645" stop-color="#5E67DA"/>
<stop offset="0.4051" stop-color="#727AE2"/>
<stop offset="0.6924" stop-color="#9297EE"/>
<stop offset="1" stop-color="#BCBEFF"/>
</linearGradient>
<linearGradient id="paint31_linear_14_3194" x1="18.2652" y1="274.316" x2="55.0094" y2="274.316" gradientUnits="userSpaceOnUse">
<stop stop-color="#5761D7"/>
<stop offset="0.1645" stop-color="#5E67DA"/>
<stop offset="0.4051" stop-color="#727AE2"/>
<stop offset="0.6924" stop-color="#9297EE"/>
<stop offset="1" stop-color="#BCBEFF"/>
</linearGradient>
<linearGradient id="paint32_linear_14_3194" x1="36.2905" y1="262.622" x2="49.731" y2="262.622" gradientUnits="userSpaceOnUse">
<stop stop-color="#42E8E0"/>
<stop offset="0.1507" stop-color="#43E3E0"/>
<stop offset="0.3285" stop-color="#45D5DF"/>
<stop offset="0.5199" stop-color="#49BDDD"/>
<stop offset="0.7209" stop-color="#4E9CDB"/>
<stop offset="0.9274" stop-color="#5472D8"/>
<stop offset="1" stop-color="#5761D7"/>
</linearGradient>
<linearGradient id="paint33_linear_14_3194" x1="36.2905" y1="275.679" x2="49.731" y2="275.679" gradientUnits="userSpaceOnUse">
<stop stop-color="#42E8E0"/>
<stop offset="0.1507" stop-color="#43E3E0"/>
<stop offset="0.3285" stop-color="#45D5DF"/>
<stop offset="0.5199" stop-color="#49BDDD"/>
<stop offset="0.7209" stop-color="#4E9CDB"/>
<stop offset="0.9274" stop-color="#5472D8"/>
<stop offset="1" stop-color="#5761D7"/>
</linearGradient>
<linearGradient id="paint34_linear_14_3194" x1="36.2908" y1="288.965" x2="49.731" y2="288.965" gradientUnits="userSpaceOnUse">
<stop stop-color="#42E8E0"/>
<stop offset="0.1507" stop-color="#43E3E0"/>
<stop offset="0.3285" stop-color="#45D5DF"/>
<stop offset="0.5199" stop-color="#49BDDD"/>
<stop offset="0.7209" stop-color="#4E9CDB"/>
<stop offset="0.9274" stop-color="#5472D8"/>
<stop offset="1" stop-color="#5761D7"/>
</linearGradient>
<linearGradient id="paint35_linear_14_3194" x1="-5.2442" y1="205.18" x2="81.6159" y2="154.825" gradientUnits="userSpaceOnUse">
<stop stop-color="#5761D7"/>
<stop offset="0.1645" stop-color="#5E67DA"/>
<stop offset="0.4051" stop-color="#727AE2"/>
<stop offset="0.6924" stop-color="#9297EE"/>
<stop offset="1" stop-color="#BCBEFF"/>
</linearGradient>
<linearGradient id="paint36_linear_14_3194" x1="90.0008" y1="160.527" x2="11.7987" y2="217.783" gradientUnits="userSpaceOnUse">
<stop stop-color="#5761D7"/>
<stop offset="0.1645" stop-color="#5E67DA"/>
<stop offset="0.4051" stop-color="#727AE2"/>
<stop offset="0.6924" stop-color="#9297EE"/>
<stop offset="1" stop-color="#BCBEFF"/>
</linearGradient>
<linearGradient id="paint37_linear_14_3194" x1="14.9584" y1="184.518" x2="76.408" y2="184.518" gradientUnits="userSpaceOnUse">
<stop stop-color="#42E8E0"/>
<stop offset="0.1507" stop-color="#43E3E0"/>
<stop offset="0.3285" stop-color="#45D5DF"/>
<stop offset="0.5199" stop-color="#49BDDD"/>
<stop offset="0.7209" stop-color="#4E9CDB"/>
<stop offset="0.9274" stop-color="#5472D8"/>
<stop offset="1" stop-color="#5761D7"/>
</linearGradient>
<linearGradient id="paint38_linear_14_3194" x1="12.286" y1="183.067" x2="73.7356" y2="183.067" gradientUnits="userSpaceOnUse">
<stop stop-color="#42E8E0"/>
<stop offset="0.1507" stop-color="#43E3E0"/>
<stop offset="0.3285" stop-color="#45D5DF"/>
<stop offset="0.5199" stop-color="#49BDDD"/>
<stop offset="0.7209" stop-color="#4E9CDB"/>
<stop offset="0.9274" stop-color="#5472D8"/>
<stop offset="1" stop-color="#5761D7"/>
</linearGradient>
<clipPath id="clip0_14_3194">
<rect width="557.78" height="421.45" fill="white"/>
</clipPath>
</defs>
</svg>
