<svg width="67" height="69" viewBox="0 0 67 69" fill="none" xmlns="http://www.w3.org/2000/svg">
<g clip-path="url(#clip0_83_11331)">
<path d="M14.2818 0C15.6342 0.703221 16.9324 1.4998 18.2532 2.25723C21.2558 3.9799 24.2478 5.72214 27.2564 7.43276C27.8551 7.77308 28.1108 8.20826 28.1108 8.90094C28.0973 17.9133 28.1018 26.9257 28.1018 35.9366C28.1018 36.0465 28.1018 36.1564 28.1018 36.2693C28.2237 36.2784 28.2929 36.2061 28.3696 36.1609C31.7994 34.1853 35.2262 32.2066 38.659 30.237C38.8515 30.1271 38.9057 30.0096 38.9057 29.7988C38.8997 25.2316 38.9057 20.6645 38.8952 16.0973C38.8937 15.513 39.1283 15.1336 39.6263 14.849C43.8458 12.4261 48.0594 9.99718 52.2714 7.56226C52.7317 7.29573 53.1574 7.29272 53.6177 7.55925C57.8463 10.0017 62.0764 12.4411 66.311 14.8746C66.7924 15.1516 67.0015 15.5416 67.0015 16.0943C66.9955 20.9054 66.9955 25.7165 67.0015 30.5261C67.003 31.0923 66.7774 31.4733 66.284 31.7564C62.275 34.0558 58.2736 36.3687 54.2661 38.6696C54.0735 38.7796 54.0209 38.8985 54.0209 39.1093C54.0269 43.6765 54.0209 48.2437 54.0314 52.8108C54.0329 53.3801 53.8148 53.761 53.3244 54.0441C44.8026 58.9486 36.2837 63.8561 27.7694 68.7741C27.2368 69.0813 26.778 69.0708 26.25 68.7651C17.7342 63.8471 9.21383 58.9366 0.693482 54.0321C0.221132 53.761 0 53.3966 0 52.8485C0.0060172 38.1351 0.0045129 23.4216 0 8.70669C0 8.17062 0.216619 7.80169 0.673926 7.53967C4.92357 5.09572 9.17021 2.64724 13.4184 0.200275C13.5372 0.132513 13.656 0.0677622 13.7764 0C13.9449 0 14.1133 0 14.2818 0ZM25.9281 66.0757C25.9281 65.9176 25.9281 65.8152 25.9281 65.7128C25.9281 61.8021 25.9251 57.8915 25.9341 53.9809C25.9341 53.7249 25.8604 53.5863 25.6348 53.4584C21.6905 51.2342 17.7568 48.9921 13.8095 46.777C13.2168 46.4442 12.9641 46.0256 12.9656 45.3389C12.9806 35.8763 12.9746 26.4152 12.9806 16.9526C12.9806 16.7433 12.931 16.6198 12.7369 16.5084C9.30409 14.5403 5.8773 12.5616 2.4475 10.586C2.16469 10.4233 2.16469 10.4233 2.16469 10.7486C2.16469 24.5344 2.16469 38.3188 2.16017 52.1046C2.16017 52.3094 2.22335 52.4178 2.39936 52.5202C9.46957 56.589 16.5368 60.6637 23.6055 64.7385C24.3621 65.1752 25.1233 65.6119 25.9281 66.0757ZM51.8698 40.0655C51.7825 40.1077 51.7404 40.1258 51.6998 40.1483C43.8955 44.6071 36.0912 49.0674 28.2853 53.5216C28.1289 53.6104 28.0958 53.7174 28.0973 53.8815C28.1018 57.8569 28.1003 61.8323 28.1018 65.8076C28.1018 65.8859 28.0793 65.9703 28.1379 66.0546C28.2282 66.0034 28.3094 65.9597 28.3891 65.913C36.1363 61.4483 43.8834 56.982 51.6336 52.5217C51.8096 52.4208 51.8758 52.3139 51.8758 52.1091C51.8698 48.1895 51.8713 44.2713 51.8713 40.3516C51.8698 40.2703 51.8698 40.1875 51.8698 40.0655ZM50.7656 38.1893C50.6543 38.1215 50.5685 38.0688 50.4798 38.0176C47.0771 36.0555 43.6713 34.0964 40.2716 32.1268C40.0595 32.0033 39.9121 31.9988 39.6955 32.1238C31.9679 36.5856 24.2373 41.0398 16.5067 45.4971C16.4239 45.5452 16.3171 45.5693 16.266 45.6732C16.3502 45.7214 16.4315 45.7681 16.5127 45.8148C19.9305 47.7513 23.3497 49.6863 26.763 51.6288C26.9525 51.7372 27.0834 51.7282 27.2654 51.6243C34.6034 47.4245 41.9459 43.2308 49.2869 39.0355C49.7758 38.7585 50.2617 38.4799 50.7656 38.1893ZM15.1272 43.7834C15.2265 43.7322 15.2912 43.7006 15.3544 43.6645C18.8068 41.6753 22.2576 39.6846 25.7145 37.7014C25.9025 37.593 25.9326 37.4665 25.9326 37.2737C25.9281 28.4421 25.9296 19.6104 25.9281 10.7787C25.9281 10.6808 25.9552 10.5769 25.8935 10.464C25.8093 10.5077 25.728 10.5468 25.6498 10.592C22.2305 12.5631 18.8113 14.5357 15.389 16.4993C15.1934 16.6108 15.1242 16.7312 15.1242 16.9571C15.1302 25.7888 15.1287 34.6205 15.1287 43.4521C15.1272 43.5455 15.1272 43.6389 15.1272 43.7834ZM63.7357 15.9045C63.6409 15.8443 63.5882 15.8052 63.5326 15.7735C60.0652 13.7753 56.5963 11.7786 53.1304 9.77583C52.9859 9.69301 52.8882 9.70807 52.7543 9.78486C49.5546 11.6325 46.3535 13.4741 43.1538 15.3188C42.8274 15.507 42.504 15.6982 42.161 15.8985C42.2452 15.9512 42.2994 15.9874 42.3551 16.0205C45.8225 18.0187 49.2914 20.0154 52.7558 22.0197C52.9107 22.1101 53.0145 22.092 53.1574 22.0092C55.7554 20.5063 58.3563 19.0081 60.9572 17.5082C61.8718 16.9782 62.7865 16.4512 63.7357 15.9045ZM3.26583 8.54557C3.34255 8.59827 3.37113 8.62236 3.40423 8.64043C6.89571 10.6537 10.3887 12.6655 13.8772 14.6833C14.0291 14.7707 14.1314 14.733 14.2593 14.6592C17.7101 12.667 21.161 10.6778 24.6118 8.68561C24.678 8.64646 24.7773 8.63592 24.7924 8.52448C24.7126 8.4763 24.6329 8.42811 24.5532 8.38143C21.1414 6.41482 17.7297 4.45122 14.3224 2.47709C14.1133 2.35662 13.9674 2.36867 13.7673 2.48461C10.9513 4.11844 8.13074 5.74172 5.31168 7.3665C4.64076 7.7535 3.97135 8.13899 3.26583 8.54557ZM51.8592 36.31C51.8637 36.2257 51.8682 36.182 51.8682 36.1383C51.8682 32.163 51.8682 28.1876 51.8728 24.2107C51.8728 24.045 51.8111 23.9607 51.6742 23.8824C48.2113 21.8917 44.7514 19.895 41.29 17.9028C41.2223 17.8636 41.1621 17.7868 41.0644 17.823C41.0614 17.8516 41.0568 17.8802 41.0568 17.9073C41.0568 21.9023 41.0584 25.8957 41.0508 29.8907C41.0508 30.0864 41.1561 30.1467 41.287 30.2219C44.4972 32.0711 47.7058 33.9218 50.9145 35.7724C51.2184 35.9471 51.5238 36.1188 51.8592 36.31ZM64.7917 17.8034C64.7496 17.8245 64.7089 17.8425 64.6698 17.8651C61.1784 19.8784 57.6869 21.8932 54.1924 23.9005C54.039 23.9893 54.0224 24.0917 54.0224 24.2378C54.0239 28.1846 54.0239 32.1313 54.0254 36.0781C54.0254 36.1459 53.9908 36.2242 54.0615 36.2874C54.0886 36.2769 54.1157 36.2693 54.1382 36.2558C57.6387 34.2395 61.1392 32.2217 64.6428 30.2114C64.8203 30.1105 64.8248 29.9825 64.8248 29.8199C64.8233 25.9108 64.8233 22.0016 64.8218 18.0925C64.8233 18.0007 64.8473 17.9058 64.7917 17.8034Z" fill="#949494"/>
</g>
<defs>
<clipPath id="clip0_83_11331">
<rect width="67" height="69" fill="white"/>
</clipPath>
</defs>
</svg>
