<svg width="31" height="31" viewBox="0 0 31 31" fill="none" xmlns="http://www.w3.org/2000/svg">
<g clip-path="url(#clip0_18_4374)">
<path d="M30.8021 17.9579C32.1598 9.50624 26.409 1.55417 17.9573 0.196485C9.5056 -1.1612 1.55353 4.58964 0.195849 13.0413C-1.16183 21.493 4.589 29.4451 13.0407 30.8028C21.4924 32.1605 29.4445 26.4096 30.8021 17.9579Z" fill="#00C88F"/>
<path d="M16.9372 13.4683C18.2442 12.0464 19.7733 11.6312 21.5676 11.9867C23.3434 12.3391 24.6764 13.8636 24.8741 15.8831C25.1193 18.3883 24.9247 20.9027 24.989 23.4125C24.9997 23.8124 24.8067 23.8614 24.4757 23.8568C23.5074 23.843 22.5375 23.8247 21.5706 23.863C21.0956 23.8813 21.0405 23.6837 21.0451 23.2868C21.0619 21.4344 21.0512 19.5819 21.0543 17.7295C21.0543 17.3479 21.0221 16.9741 20.9393 16.5987C20.7049 15.543 20.1748 15.0312 19.2248 14.9837C18.2105 14.9331 17.3693 15.4985 17.0674 16.4378C16.9571 16.7795 16.9356 17.1304 16.9372 17.4889C16.9433 19.418 16.9249 21.3455 16.951 23.2746C16.9571 23.7404 16.8376 23.8844 16.3595 23.8645C15.4187 23.8246 14.4734 23.8354 13.531 23.8614C13.1327 23.8721 13.0101 23.7526 13.0116 23.3497C13.0285 19.7474 13.03 16.1436 13.0239 12.5413C13.0239 12.2517 13.0944 12.1322 13.4023 12.1368C14.4473 12.1506 15.4923 12.1567 16.5373 12.1338C16.8989 12.1261 16.9648 12.2778 16.9448 12.5827C16.9219 12.8754 16.9372 13.1726 16.9372 13.4683Z" fill="#FBFBFB"/>
<path d="M10.911 17.9975C10.911 19.7228 10.8926 21.4481 10.9217 23.1718C10.9294 23.6775 10.8359 23.8966 10.2644 23.8675C9.32363 23.8184 8.37978 23.8383 7.43746 23.8613C7.06666 23.8705 6.964 23.7525 6.96553 23.3894C6.97779 19.7871 6.97779 16.1864 6.964 12.5841C6.96247 12.2011 7.09731 12.1229 7.44665 12.1306C8.38897 12.1521 9.33436 12.175 10.2736 12.1245C10.8543 12.0923 10.9279 12.3283 10.9202 12.8232C10.8942 14.5469 10.911 16.2722 10.911 17.9975Z" fill="#FAFAFA"/>
<path d="M11.1362 8.54826C11.1454 9.71275 10.2307 10.5693 8.95738 10.5892C7.71168 10.6076 6.75098 9.74646 6.72646 8.5881C6.70042 7.40981 7.67185 6.50427 8.95892 6.50733C10.2153 6.5104 11.127 7.36385 11.1362 8.54826Z" fill="#F8F8F8"/>
</g>
<defs>
<clipPath id="clip0_18_4374">
<rect width="31" height="31" fill="white"/>
</clipPath>
</defs>
</svg>
