<svg width="64" height="20" viewBox="0 0 64 20" fill="none" xmlns="http://www.w3.org/2000/svg">
<path d="M4.23457 0C6.8384 0 8.22523 1.52923 8.22523 4.33491C8.22523 7.1406 6.8384 8.66983 4.23457 8.66983C1.61797 8.66983 0.23114 7.1406 0.23114 4.33491C0.23114 1.52923 1.61797 0 4.23457 0ZM4.23457 7.44265C6.0109 7.44265 6.91119 6.41896 6.91119 4.33618C6.91119 2.2534 6.0109 1.22844 4.23457 1.22844C2.44548 1.22844 1.54519 2.25213 1.54519 4.33491C1.54519 6.41769 2.44548 7.44265 4.23457 7.44265Z" fill="white"/>
<path d="M10.695 8.54977V0.120064H14.1506C16.098 0.120064 17.1681 1.09574 17.1681 2.91438C17.1681 4.73302 16.1095 5.70869 14.1506 5.70869H12.0575V8.55103H10.695V8.54977ZM12.0575 4.51564H14.0778C15.2705 4.51564 15.8541 3.9861 15.8541 2.91438C15.8541 1.85529 15.2705 1.32449 14.0778 1.32449H12.0575V4.51564Z" fill="white"/>
<path d="M18.8474 1.32449V0.120064H25.8557V1.32449H23.0322V8.54976H21.6581V1.32449H18.8474Z" fill="white"/>
<path d="M28.0087 0.120064H29.4083V8.54976H28.0087V0.120064Z" fill="white"/>
<path d="M32.256 8.54976V0.120064H33.7157L36.5634 6.35829L39.4111 0.120064H40.8835V8.54976H39.5452V2.78168H39.4967L37.1483 7.98357H35.9926L33.6327 2.78168H33.5956V8.54976H32.256Z" fill="white"/>
<path d="M44.9214 0.120064V4.82907C44.9214 6.76777 45.4207 7.44265 46.9774 7.44265C48.5469 7.44265 49.0462 6.76777 49.0462 4.82907V0.120064H50.4215V4.85308C50.4215 7.51469 49.3871 8.66983 46.9774 8.66983C44.5805 8.66983 43.5461 7.51343 43.5461 4.85308V0.120064H44.9214Z" fill="white"/>
<path d="M53.0867 8.54976V0.120064H54.5463L57.394 6.35829L60.2418 0.120064H61.7142V8.54976H60.3759V2.78168H60.3273L57.9789 7.98357H56.8232L54.4633 2.78168H54.4263V8.54976H53.0867Z" fill="white"/>
<path d="M1.27701 17.1337C1.27701 18.2294 2.06748 18.807 3.44282 18.807C4.74538 18.807 5.53585 18.3014 5.53585 17.4698C5.53585 15.3137 0.194106 16.9643 0.206876 13.7731C0.206876 12.2553 1.39961 11.3289 3.3943 11.3289C5.47455 11.3289 6.71581 12.34 6.71581 14.1106H5.43879C5.42602 13.0755 4.67259 12.5207 3.40707 12.5207C2.2386 12.5207 1.50943 12.9908 1.50943 13.7125C1.50943 15.6752 6.8384 14.0613 6.85117 17.4092C6.85117 19.0344 5.58565 19.9987 3.4441 19.9987C1.24126 20 0 18.9763 0 17.1337H1.27701Z" fill="white"/>
<path d="M11.6566 11.3289C14.2604 11.3289 15.6472 12.8581 15.6472 15.6638C15.6472 18.4695 14.2604 19.9987 11.6566 19.9987C9.03997 19.9987 7.65314 18.4695 7.65314 15.6638C7.65314 12.8581 9.03997 11.3289 11.6566 11.3289ZM11.6566 18.7716C13.4329 18.7716 14.3332 17.7479 14.3332 15.6651C14.3332 13.5823 13.4329 12.5586 11.6566 12.5586C9.86748 12.5586 8.96718 13.5823 8.96718 15.6651C8.96718 17.7479 9.86748 18.7716 11.6566 18.7716Z" fill="white"/>
<path d="M16.9 19.8799V11.4502H22.704V12.6547H18.2753V15.0989H22.2902V16.2793H18.2753V19.8799H16.9Z" fill="white"/>
<path d="M22.5674 12.6547V11.4502H31.1706L30.8935 12.6547H27.1454V19.8799H25.7701V12.6547H22.5674Z" fill="white"/>
<path d="M30.223 11.4502H31.5984L33.4718 17.8085H33.5203L35.2966 11.4502H36.6719L38.461 17.8085H38.4981L40.3842 11.4502H41.7583L39.2272 19.8799H37.7919L36.0156 13.5937H35.967L34.1907 19.8799H32.7554L30.223 11.4502Z" fill="white"/>
<path d="M41.3203 19.8799L44.6903 11.4502H46.0899L49.4599 19.8799H48.0488L47.3554 18.122H43.4133L42.7199 19.8799H41.3203ZM46.9174 16.9769L45.408 13.1476H45.3709L43.85 16.9769H46.9174Z" fill="white"/>
<path d="M50.0806 19.8799V11.4502H53.6089C55.5807 11.4502 56.6265 12.3779 56.6265 14.1359C56.6265 15.3276 56.0915 16.1466 55.0928 16.5321L56.8334 19.8799H55.361L53.7788 16.8215C53.6575 16.8329 53.5349 16.8329 53.4021 16.8329H51.4431V19.8799H50.0806ZM51.4431 12.642V15.6525H53.5234C54.7646 15.6525 55.3125 15.1823 55.3125 14.1472C55.3125 13.1235 54.7404 12.642 53.5234 12.642H51.4431Z" fill="white"/>
<path d="M57.8921 19.8799V11.4502H63.8915V12.6547H59.2661V14.8701H63.4764V16.0139H59.2661V18.6755H64V19.8799H57.8921Z" fill="white"/>
</svg>
