<svg width="57" height="39" viewBox="0 0 57 39" fill="none" xmlns="http://www.w3.org/2000/svg">
<g clip-path="url(#clip0_190_11449)">
<path d="M43.7523 3.73969H13.0229C12.5132 3.73969 12.1045 4.14617 12.1045 4.64299V25.0169C12.1045 25.5183 12.5178 25.9202 13.0229 25.9202H43.7523C44.262 25.9202 44.6707 25.5137 44.6707 25.0169V4.64299C44.6707 4.14165 44.262 3.73969 43.7523 3.73969ZM42.8339 24.1136H13.9413V5.54629H42.8339V24.1136Z" fill="#181438"/>
<path d="M56.9817 35.4952C56.9771 35.4726 56.9725 35.4545 56.9679 35.432C56.9587 35.3958 56.9495 35.3642 56.9358 35.3326C56.9266 35.3145 56.922 35.292 56.9128 35.2739C56.8944 35.2378 56.8761 35.2016 56.8531 35.17C56.8439 35.1565 56.8393 35.1429 56.8301 35.1339C56.798 35.0887 56.7659 35.0481 56.7245 35.0074C56.7153 34.9984 56.7016 34.9893 56.6924 34.9803C56.6602 34.9532 56.6327 34.9261 56.596 34.9035C56.5776 34.89 56.5592 34.881 56.5408 34.8719C56.5179 34.8584 56.4995 34.8448 56.4766 34.8358L49.5197 31.4529V0.903301C49.5197 0.401969 49.1065 0 48.6013 0H8.15996C7.65025 0 7.24157 0.406485 7.24157 0.903301V31.4529L0.50057 34.8358C0.482203 34.8448 0.463835 34.8584 0.445467 34.8719C0.427099 34.8855 0.408731 34.8945 0.390363 34.9081C0.35822 34.9306 0.330668 34.9532 0.303116 34.9803C0.28934 34.9939 0.275564 35.0029 0.26638 35.0119C0.229645 35.0526 0.192909 35.0932 0.160765 35.1384C0.156173 35.1429 0.156173 35.1519 0.151581 35.1565C0.12403 35.1971 0.10107 35.2378 0.082702 35.2829C0.0735181 35.301 0.0689261 35.319 0.0643341 35.3416C0.0505583 35.3732 0.0413744 35.4094 0.0321904 35.441C0.0275985 35.4636 0.0230065 35.4816 0.0184146 35.5042C0.0138226 35.5404 0.00923063 35.5765 0.00923063 35.6126C0.00923063 35.6262 0.00463867 35.6352 0.00463867 35.6488V38.1057C0.00463867 38.6071 0.417915 39.009 0.923031 39.009H56.0816C56.5914 39.009 57 38.6026 57 38.1057V35.6488C57 35.6352 56.9955 35.6262 56.9955 35.6126C56.9955 35.5675 56.9909 35.5313 56.9817 35.4952ZM9.08294 1.8066H47.6921V31.1052H9.08294V1.8066ZM8.38496 32.9163H48.3993L52.1463 34.7409H4.74354L8.38496 32.9163ZM55.1587 37.1934H1.83683V36.5475H55.1587V37.1934Z" fill="#181438"/>
<path d="M28.7548 26.4351C27.6619 26.4351 26.7803 27.3068 26.7803 28.3772C26.7803 29.4476 27.6665 30.3193 28.7548 30.3193C29.8431 30.3193 30.7294 29.4476 30.7294 28.3772C30.7294 27.3068 29.8431 26.4351 28.7548 26.4351ZM28.7548 29.2354C28.2727 29.2354 27.8823 28.8514 27.8823 28.3772C27.8823 27.903 28.2727 27.5191 28.7548 27.5191C29.237 27.5191 29.6273 27.903 29.6273 28.3772C29.6273 28.8514 29.237 29.2354 28.7548 29.2354Z" fill="#181438"/>
</g>
<defs>
<clipPath id="clip0_190_11449">
<rect width="57" height="39" fill="white"/>
</clipPath>
</defs>
</svg>
