<svg width="108" height="43" viewBox="0 0 108 43" fill="none" xmlns="http://www.w3.org/2000/svg">
<g clip-path="url(#clip0_83_11354)">
<path d="M81.0365 19.9046C81.0365 24.8378 81.0122 29.7738 81.0554 34.707C81.0635 35.7951 80.6881 36.455 79.7349 36.9677C76.4188 38.7567 73.127 40.592 69.8541 42.46C68.9657 42.9672 68.2122 42.9263 67.3427 42.4327C64.0644 40.5729 60.7699 38.743 57.4592 36.9432C56.614 36.4823 56.2495 35.9151 56.2657 34.9115C56.3197 31.2 56.3116 27.4885 56.2711 23.777C56.2603 22.8498 56.5465 22.2853 57.3755 21.8354C60.7672 19.9973 64.1373 18.1184 67.4912 16.2095C68.2879 15.7568 68.963 15.735 69.7461 16.2122C70.8586 16.8885 72.0387 17.4448 73.1486 18.1266C74.0262 18.6638 74.2774 18.492 74.272 17.4639C74.2422 12.258 74.2584 7.05208 74.2584 1.84888C74.2584 1.48618 74.2503 1.12349 74.2665 0.763517C74.3071 -0.0164167 74.6986 -0.174585 75.3386 0.185384C76.9832 1.10712 78.6223 2.03977 80.2668 2.95879C81.0257 3.38148 81.0446 4.08778 81.0446 4.83499C81.0311 9.8582 81.0365 14.8814 81.0365 19.9046ZM63.176 29.2884C62.4334 31.7073 63.5648 32.8444 65.5793 34.0443C67.8531 35.3997 69.4868 35.2988 71.7228 34.0116C73.713 32.8663 74.3476 31.6745 74.3719 29.4084C74.3989 27.0168 73.6482 25.795 71.5823 24.617C69.3923 23.368 67.7721 23.3352 65.6415 24.6579C63.762 25.825 62.2605 26.8231 63.176 29.2884Z" fill="#949494"/>
<path d="M51.7073 34.6936C51.98 35.8417 51.5075 36.5453 50.4948 37.0907C47.2192 38.8605 43.9733 40.6877 40.7275 42.5093C39.9065 42.9702 39.1126 43.3002 38.2755 42.5748C38.2863 42.2039 38.1648 41.893 37.9676 41.5685C36.153 38.5824 34.3788 35.569 32.5479 32.5938C31.8971 31.5384 31.5083 30.2949 30.4578 29.5122C29.5478 27.4806 28.5297 25.5144 27.0445 23.8345C26.8312 22.9237 27.2848 22.4056 28.0329 21.9938C31.4867 20.0903 34.9378 18.1759 38.3754 16.237C39.2422 15.7489 39.9821 15.8279 40.6951 16.4797C40.4736 16.6406 40.4655 16.8233 40.6059 17.0551C43.0633 21.1211 45.5153 25.1899 47.9699 29.2586C48.5937 30.2949 49.1716 31.3639 49.8575 32.3593C50.4165 33.1774 50.5731 34.3364 51.7073 34.6936Z" fill="#D0D0D0"/>
<path d="M83.2642 29.3892C83.2642 27.4884 83.2913 25.5877 83.2507 23.6897C83.2318 22.8743 83.4857 22.3289 84.2121 21.928C87.7091 20.0082 91.1953 18.0638 94.6762 16.1112C95.3324 15.7431 95.9129 15.754 96.5691 16.1248C100.007 18.061 103.461 19.9673 106.909 21.8844C106.987 21.928 107.071 21.9634 107.147 22.0125C108.259 22.7625 108.305 27.8866 107.168 28.5929C105.607 29.5637 103.998 30.4582 102.413 31.3881C101.603 31.8653 101.244 31.609 101.276 30.6927C101.279 30.6463 101.279 30.6027 101.276 30.5564C101.173 29.1274 101.897 27.2785 101.001 26.3567C99.707 25.0259 97.7573 24.3442 96.0885 23.387C95.7428 23.1879 95.4026 23.2206 95.0677 23.4197C94.876 23.5342 94.6789 23.6406 94.4871 23.7524C93.0262 24.6169 90.928 25.0014 90.2367 26.4003C89.5535 27.7857 90.0801 29.7573 89.9964 31.4699C89.9558 32.2771 90.2745 32.6753 90.9523 33.038C94.2333 34.7915 97.49 36.594 100.747 38.3939C101.119 38.6011 101.641 38.7048 101.684 39.2638C101.732 39.9156 101.157 40.0465 100.752 40.2783C99.4289 41.0364 98.0787 41.7454 96.7609 42.5117C95.9832 42.9644 95.273 42.9535 94.4871 42.5117C91.1278 40.6191 87.7577 38.7484 84.3768 36.8913C83.5883 36.4577 83.2129 35.9041 83.2453 34.9496C83.3101 33.1007 83.2642 31.2463 83.2642 29.3892Z" fill="#949494"/>
<path d="M24.7708 31.702C24.7708 34.3281 24.7573 36.9543 24.7762 39.5804C24.7843 40.6658 24.3739 40.8812 23.4692 40.344C22.0029 39.4713 20.542 38.5932 19.0514 37.7669C18.3007 37.3497 17.982 36.8261 18.0009 35.9289C18.0549 33.0791 17.9901 30.2239 18.0387 27.3742C18.0522 26.5315 17.7822 26.0434 17.0342 25.6861C15.4625 24.9335 14.0421 23.3981 12.3976 23.3954C10.699 23.3927 9.25701 24.9662 7.64216 25.7298C6.92116 26.0706 6.72133 26.5588 6.73213 27.3333C6.77533 30.2294 6.72673 33.1282 6.76453 36.0243C6.77533 36.7988 6.5215 37.2924 5.8572 37.6688C4.29366 38.5523 2.75713 39.4795 1.2071 40.3849C0.321367 40.903 -0.00268166 40.5867 1.8745e-05 39.6186C0.0189216 34.2736 0.021622 28.9313 1.8745e-05 23.589C-0.00268166 22.8118 0.286262 22.3155 0.94516 21.9528C4.44218 20.0248 7.93651 18.0913 11.4173 16.1333C12.1275 15.7324 12.7297 15.7842 13.4291 16.1769C16.8262 18.0995 20.2396 19.9948 23.6637 21.8683C24.4738 22.31 24.8032 22.8936 24.7897 23.8236C24.7438 26.4497 24.7708 29.0758 24.7708 31.702Z" fill="#949494"/>
<path d="M30.4551 29.5146C31.5056 30.2973 31.8944 31.5408 32.5452 32.5962C34.3788 35.5714 36.1503 38.5848 37.965 41.5709C38.1621 41.8954 38.2836 42.2063 38.2728 42.5772C34.8217 40.6819 31.376 38.7784 27.9167 36.8967C26.8609 36.3241 26.9203 35.4051 27.0607 34.437C27.3065 34.3606 27.6872 34.3606 27.7736 34.1997C28.6324 32.6126 29.8502 31.2409 30.4551 29.5146Z" fill="#6B6C6C"/>
<path d="M47.9674 29.2613C45.5127 25.1926 43.0607 21.1238 40.6034 17.0578C40.463 16.8288 40.4711 16.646 40.6925 16.4824C44.0653 18.3395 47.4246 20.2212 50.819 22.0347C51.4968 22.3974 51.4833 23.0137 51.7155 23.5591C51.6831 23.5836 51.6156 23.6164 51.621 23.63C51.6372 23.6982 51.6723 23.7636 51.702 23.8291C51.6966 24.0063 51.6912 24.1863 51.6858 24.3636C51.135 24.2872 50.9594 24.6908 50.7002 25.0699C49.755 26.447 49.2069 28.086 47.9674 29.2613Z" fill="#949494"/>
<path d="M30.4551 29.5148C29.8475 31.241 28.6296 32.6127 27.7763 34.1971C27.6898 34.358 27.3064 34.358 27.0634 34.4344C27.0553 30.9029 27.0498 27.3714 27.0417 23.8398C28.527 25.5197 29.545 27.4832 30.4551 29.5148Z" fill="#949494"/>
<path d="M47.9673 29.2611C49.2095 28.083 49.755 26.4468 50.7001 25.0696C50.9593 24.6906 51.1376 24.2897 51.6858 24.3633C51.6939 27.8048 51.6993 31.2491 51.7074 34.6906C50.5759 34.3334 50.4166 33.1744 49.8549 32.359C49.169 31.3691 48.5911 30.3001 47.9673 29.2611Z" fill="#6B6C6C"/>
<path d="M97.7033 29.351C97.706 30.3601 96.4746 31.6418 95.5565 31.5818C94.5951 31.5218 93.5474 30.3682 93.5474 29.3674C93.5474 28.3666 94.776 27.074 95.6726 27.1312C96.5934 27.194 97.7006 28.4048 97.7033 29.351Z" fill="#949494"/>
<path d="M51.702 23.8315C51.6722 23.7661 51.6371 23.7006 51.6209 23.6324C51.6182 23.6161 51.683 23.5861 51.7155 23.5615C51.71 23.6515 51.7047 23.7415 51.702 23.8315Z" fill="#4CAD50"/>
</g>
<defs>
<clipPath id="clip0_83_11354">
<rect width="108" height="43" fill="white"/>
</clipPath>
</defs>
</svg>
