<svg width="21" height="31" viewBox="0 0 21 31" fill="none" xmlns="http://www.w3.org/2000/svg">
<g clip-path="url(#clip0_79_8998)">
<path fill-rule="evenodd" clip-rule="evenodd" d="M0 30.0481C0 30.4017 0.174886 30.6963 0.474473 30.8731C0.77254 31.0498 1.1877 31.0498 1.48425 30.8141L8.02042 26.3268L0.533782 22.1372L0 30.0481Z" fill="#181438"/>
<path fill-rule="evenodd" clip-rule="evenodd" d="M15.3292 0.176716L20.2625 3.12895C20.9757 3.4825 21.2114 4.36787 20.7963 5.07646L20.0815 6.31537C19.6679 6.96505 18.7752 7.20074 18.0635 6.78677L13.1302 3.89647C12.417 3.48401 12.1797 2.59864 12.5964 1.94745L13.3096 0.708542C13.7248 -5.5906e-05 14.616 -0.176828 15.3292 0.176716Z" fill="#181438"/>
<path fill-rule="evenodd" clip-rule="evenodd" d="M18.4192 8.32337L8.25756 24.9127L1.54346 21.0766L11.8237 4.36792L18.4192 8.32337Z" fill="#181438"/>
</g>
<defs>
<clipPath id="clip0_79_8998">
<rect width="21" height="31" fill="white"/>
</clipPath>
</defs>
</svg>
