<svg width="84" height="45" viewBox="0 0 84 45" fill="none" xmlns="http://www.w3.org/2000/svg">
<g clip-path="url(#clip0_84_11396)">
<path d="M44.3149 45C42.4915 45 40.667 45 38.8436 45C38.79 44.9058 38.6986 44.9505 38.6252 44.9475C37.1452 44.8949 35.6681 44.7988 34.1951 44.6599C31.8862 44.4428 29.5903 44.1255 27.3142 43.6852C23.8043 43.007 20.3658 42.071 17.0336 40.7681C13.6944 39.4632 10.5269 37.841 7.66315 35.6665C5.36522 33.9213 3.36706 31.8976 1.91287 29.383C0.757448 27.385 0.0814687 25.2382 0.00801427 22.9229C-0.0823148 20.0712 0.731639 17.4674 2.24043 15.0678C3.82467 12.5482 5.94194 10.5393 8.34807 8.82097C11.9315 6.26175 15.9 4.48487 20.076 3.14527C25.6466 1.36146 31.375 0.439304 37.2067 0.11903C40.3007 -0.0505268 43.3957 -0.036645 46.4908 0.15076C49.4567 0.330233 52.4028 0.668355 55.3251 1.20479C58.975 1.87409 62.5505 2.82203 66.0147 4.16361C69.4949 5.51114 72.7914 7.19481 75.7534 9.48531C78.1248 11.3187 80.1775 13.4446 81.5762 16.1228C83.5823 19.9631 83.7798 23.8967 82.0526 27.8887C80.9399 30.4608 79.1839 32.5589 77.1004 34.3993C74.6546 36.5589 71.8901 38.2257 68.939 39.5911C64.1307 41.8171 59.0703 43.1994 53.8491 44.0382C50.7442 44.537 47.6223 44.8364 44.4807 44.9475C44.4231 44.9505 44.3497 44.9197 44.3149 45ZM13.8194 32.8852C13.9217 32.8852 14.0021 32.8852 14.0825 32.8852C15.4364 32.8852 16.7904 32.8782 18.1443 32.8921C18.3696 32.8941 18.4292 32.8158 18.4629 32.6174C18.7309 31.0567 19.0119 29.498 19.2759 27.9363C19.3087 27.7449 19.3652 27.6854 19.5618 27.6874C20.4641 27.6983 21.3674 27.6943 22.2697 27.6924C23.7973 27.6884 25.318 27.6061 26.8119 27.258C28.3068 26.909 29.6856 26.3151 30.704 25.1252C32.2505 23.3176 32.9344 21.1778 32.8024 18.8288C32.6893 16.8129 31.6311 15.3524 29.7868 14.4907C28.8577 14.0564 27.8671 13.8611 26.8477 13.8561C23.7517 13.8422 20.6556 13.8512 17.5596 13.8422C17.372 13.8412 17.3165 13.9057 17.2857 14.0743C16.9075 16.1546 16.5233 18.2339 16.1402 20.3132C15.5565 23.4812 14.9709 26.6482 14.3862 29.8163C14.2006 30.8316 14.012 31.847 13.8194 32.8852ZM50.228 32.8852C51.6822 32.8852 53.0987 32.8792 54.5152 32.8911C54.7464 32.8931 54.8348 32.8306 54.8745 32.5996C55.1385 31.0379 55.4214 29.4801 55.6855 27.9184C55.7172 27.733 55.7837 27.6874 55.9604 27.6884C56.8717 27.6963 57.7839 27.6933 58.6951 27.6914C60.2228 27.6874 61.7435 27.6041 63.2364 27.2531C64.7213 26.9041 66.0912 26.3121 67.1046 25.1302C68.6541 23.3245 69.3142 21.1877 69.215 18.8357C69.1564 17.4416 68.5747 16.2418 67.4977 15.3177C66.2976 14.2884 64.8593 13.8769 63.3198 13.8601C60.197 13.8254 57.0742 13.8492 53.9513 13.8412C53.7707 13.8412 53.724 13.9136 53.6972 14.0634C53.4253 15.5596 53.1503 17.0549 52.8743 18.5502C52.3066 21.629 51.7378 24.7078 51.169 27.7875C50.8563 29.4772 50.5446 31.1668 50.228 32.8852ZM32.9434 27.6676C32.9742 27.6785 32.991 27.6884 33.0079 27.6884C34.4522 27.6904 35.8964 27.6884 37.3407 27.6963C37.4827 27.6973 37.5035 27.621 37.5253 27.5218C37.5849 27.2402 37.6435 26.9586 37.703 26.676C38.3413 23.6478 38.9835 20.6196 39.6128 17.5893C39.6625 17.3504 39.7598 17.3008 39.9841 17.3028C41.1941 17.3147 42.4031 17.3028 43.6131 17.3157C44.1372 17.3216 44.6574 17.3801 45.1497 17.5834C45.5676 17.7559 45.8058 18.0643 45.8922 18.5075C45.9974 19.0519 45.9279 19.5873 45.8148 20.1158C45.2946 22.5442 44.7656 24.9695 44.2325 27.3949C44.1849 27.612 44.1849 27.7023 44.4618 27.6993C45.7979 27.6834 47.134 27.6844 48.4701 27.6993C48.7242 27.7023 48.8175 27.6348 48.8711 27.383C49.3594 25.0865 49.8627 22.7931 50.362 20.4986C50.5655 19.5665 50.7868 18.6374 50.76 17.6716C50.7114 15.9166 49.8736 14.7991 48.1961 14.2815C47.0724 13.9344 45.9121 13.8581 44.7447 13.8502C43.3818 13.8412 42.018 13.8422 40.6551 13.8512C40.4298 13.8531 40.3921 13.8006 40.4387 13.5815C40.8933 11.4427 41.3301 9.30088 41.7877 7.16308C41.8383 6.9261 41.7649 6.92015 41.5763 6.92114C40.2223 6.92709 38.8684 6.92808 37.5144 6.91915C37.3338 6.91816 37.2683 6.9727 37.2335 7.14325C37.0171 8.21017 36.7928 9.2751 36.5694 10.341C35.6394 14.7882 34.7083 19.2353 33.7782 23.6825C33.4993 25.0112 33.2213 26.3409 32.9434 27.6676Z" fill="#00C88F"/>
<path d="M13.8193 32.8852C14.0119 31.8461 14.2005 30.8317 14.3881 29.8163C14.9728 26.6483 15.5574 23.4813 16.1421 20.3132C16.5252 18.2339 16.9094 16.1546 17.2876 14.0743C17.3183 13.9058 17.3739 13.8413 17.5615 13.8423C20.6575 13.8502 23.7535 13.8423 26.8496 13.8562C27.868 13.8611 28.8596 14.0565 29.7887 14.4908C31.633 15.3524 32.6902 16.814 32.8043 18.8289C32.9363 21.1789 32.2524 23.3186 30.7059 25.1253C29.6875 26.3151 28.3087 26.9091 26.8138 27.2581C25.3199 27.6062 23.7992 27.6894 22.2716 27.6924C21.3693 27.6944 20.466 27.6994 19.5637 27.6875C19.3671 27.6855 19.3096 27.745 19.2778 27.9363C19.0138 29.498 18.7318 31.0568 18.4648 32.6175C18.4311 32.8158 18.3715 32.8941 18.1462 32.8922C16.7923 32.8783 15.4383 32.8852 14.0844 32.8852C14.002 32.8852 13.9216 32.8852 13.8193 32.8852ZM23.5709 17.3088C22.7907 17.3088 22.1405 17.3147 21.4904 17.3048C21.3206 17.3019 21.2581 17.3524 21.2303 17.522C21.1439 18.0455 21.0367 18.5661 20.9385 19.0877C20.6268 20.7327 20.3161 22.3767 19.9994 24.0207C19.9677 24.1853 19.9994 24.2418 20.1801 24.2358C20.5771 24.222 20.9742 24.2358 21.3712 24.2309C22.4989 24.216 23.6285 24.2854 24.7511 24.1278C25.7636 23.986 26.6848 23.6558 27.332 22.8159C28.0506 21.8829 28.2779 20.7862 28.2849 19.64C28.2908 18.6533 27.8134 17.993 26.8952 17.6281C26.652 17.5309 26.3999 17.4625 26.1428 17.4149C25.2465 17.2503 24.3412 17.3306 23.5709 17.3088Z" fill="#FDFEFE"/>
<path d="M50.228 32.8851C50.5447 31.1667 50.8564 29.4771 51.169 27.7875C51.7378 24.7087 52.3066 21.6299 52.8744 18.5501C53.1503 17.0548 53.4253 15.5596 53.6973 14.0633C53.7241 13.9136 53.7707 13.8412 53.9514 13.8412C57.0742 13.8501 60.197 13.8253 63.3198 13.86C64.8593 13.8769 66.2976 14.2884 67.4977 15.3176C68.5747 16.2418 69.1564 17.4415 69.215 18.8357C69.3142 21.1877 68.6531 23.3245 67.1047 25.1301C66.0912 26.311 64.7204 26.904 63.2364 27.253C61.7435 27.604 60.2228 27.6873 58.6951 27.6913C57.7839 27.6933 56.8717 27.6963 55.9604 27.6883C55.7838 27.6863 55.7172 27.732 55.6855 27.9184C55.4214 29.4801 55.1385 31.0378 54.8745 32.5995C54.8358 32.8306 54.7475 32.893 54.5152 32.891C53.0987 32.8791 51.6822 32.8851 50.228 32.8851ZM58.4132 24.2317C59.4505 24.2308 60.4898 24.2665 61.5172 24.0691C62.5733 23.8659 63.4577 23.3909 64.0047 22.4281C64.5437 21.4782 64.7541 20.442 64.6767 19.3592C64.629 18.6919 64.2916 18.1684 63.7039 17.8233C63.2364 17.5496 62.7232 17.4088 62.1892 17.3652C60.7469 17.2462 59.3016 17.3374 57.8583 17.3067C57.7005 17.3037 57.6658 17.3741 57.641 17.508C57.234 19.6745 56.824 21.8411 56.4091 24.0067C56.3764 24.1802 56.4061 24.2407 56.5987 24.2367C57.2032 24.2238 57.8077 24.2317 58.4132 24.2317Z" fill="#FDFEFE"/>
<path d="M32.9434 27.6674C33.2213 26.3397 33.4982 25.011 33.7772 23.6823C34.7073 19.2351 35.6383 14.788 36.5684 10.3408C36.7918 9.27491 37.0161 8.20997 37.2325 7.14305C37.2672 6.9725 37.3328 6.91797 37.5134 6.91896C38.8674 6.92788 40.2213 6.92689 41.5752 6.92094C41.7638 6.91995 41.8373 6.9259 41.7867 7.16288C41.3291 9.30069 40.8913 11.4425 40.4377 13.5813C40.391 13.8014 40.4288 13.8529 40.6541 13.851C42.017 13.842 43.3808 13.841 44.7437 13.85C45.91 13.8579 47.0704 13.9343 48.1951 14.2813C49.8726 14.7989 50.7104 15.9164 50.759 17.6714C50.7858 18.6372 50.5635 19.5663 50.361 20.4984C49.8617 22.7929 49.3584 25.0863 48.8701 27.3828C48.8165 27.6356 48.7231 27.7021 48.469 27.6991C47.133 27.6842 45.7969 27.6832 44.4608 27.6991C44.1839 27.7021 44.1839 27.6128 44.2315 27.3947C44.7646 24.9693 45.2946 22.543 45.8138 20.1156C45.9269 19.5871 45.9974 19.0517 45.8912 18.5073C45.8058 18.0641 45.5666 17.7557 45.1487 17.5832C44.6564 17.3799 44.1352 17.3214 43.6121 17.3155C42.4021 17.3026 41.1931 17.3145 39.9831 17.3026C39.7587 17.3006 39.6615 17.3502 39.6118 17.5891C38.9825 20.6194 38.3403 23.6476 37.702 26.6758C37.6425 26.9574 37.5839 27.239 37.5243 27.5216C37.5035 27.6208 37.4816 27.6971 37.3397 27.6961C35.8954 27.6892 34.4512 27.6902 33.0069 27.6882C32.992 27.6892 32.9751 27.6783 32.9434 27.6674Z" fill="#FDFEFE"/>
<path d="M23.5708 17.3087C24.3421 17.3305 25.2464 17.2502 26.1427 17.4148C26.4008 17.4624 26.6519 17.5308 26.8951 17.628C27.8133 17.9939 28.2908 18.6533 28.2848 19.6399C28.2788 20.7861 28.0505 21.8828 27.3319 22.8158C26.6847 23.6567 25.7635 23.9859 24.751 24.1277C23.6274 24.2853 22.4978 24.2159 21.3712 24.2308C20.9741 24.2358 20.5761 24.2219 20.18 24.2358C20.0003 24.2417 19.9686 24.1852 19.9993 24.0206C20.315 22.3766 20.6257 20.7316 20.9384 19.0876C21.0376 18.566 21.1438 18.0454 21.2302 17.5219C21.258 17.3523 21.3205 17.3028 21.4903 17.3047C22.1404 17.3147 22.7906 17.3087 23.5708 17.3087Z" fill="#00C88F"/>
<path d="M58.4132 24.2316C57.8087 24.2316 57.2032 24.2237 56.5987 24.2356C56.4071 24.2396 56.3763 24.1791 56.4091 24.0056C56.824 21.84 57.2339 19.6734 57.6409 17.5069C57.6657 17.372 57.7005 17.3016 57.8583 17.3056C59.3016 17.3363 60.7478 17.2451 62.1891 17.3641C62.7232 17.4077 63.2363 17.5485 63.7039 17.8222C64.2915 18.1672 64.629 18.6908 64.6766 19.3581C64.7541 20.4409 64.5436 21.4771 64.0046 22.427C63.4587 23.3898 62.5743 23.8648 61.5171 24.068C60.4897 24.2663 59.4505 24.2306 58.4132 24.2316Z" fill="#00C88F"/>
</g>
<defs>
<clipPath id="clip0_84_11396">
<rect width="83.2258" height="45" fill="white"/>
</clipPath>
</defs>
</svg>
