<svg width="65" height="60" viewBox="0 0 65 60" fill="none" xmlns="http://www.w3.org/2000/svg">
<circle cx="2.5" cy="2.5" r="2.5" fill="#00C88F"/>
<circle cx="2.5" cy="13.5" r="2.5" fill="#00C88F"/>
<circle cx="2.5" cy="24.5" r="2.5" fill="#00C88F"/>
<circle cx="2.5" cy="35.5" r="2.5" fill="#00C88F"/>
<circle cx="2.5" cy="46.5" r="2.5" fill="#00C88F"/>
<circle cx="2.5" cy="57.5" r="2.5" fill="#00C88F"/>
<circle cx="14.5" cy="2.5" r="2.5" fill="#00C88F"/>
<circle cx="14.5" cy="13.5" r="2.5" fill="#00C88F"/>
<circle cx="14.5" cy="24.5" r="2.5" fill="#00C88F"/>
<circle cx="14.5" cy="35.5" r="2.5" fill="#00C88F"/>
<circle cx="14.5" cy="46.5" r="2.5" fill="#00C88F"/>
<circle cx="14.5" cy="57.5" r="2.5" fill="#00C88F"/>
<circle cx="26.5" cy="2.5" r="2.5" fill="#00C88F"/>
<circle cx="26.5" cy="13.5" r="2.5" fill="#00C88F"/>
<circle cx="26.5" cy="24.5" r="2.5" fill="#00C88F"/>
<circle cx="26.5" cy="35.5" r="2.5" fill="#00C88F"/>
<circle cx="26.5" cy="46.5" r="2.5" fill="#00C88F"/>
<circle cx="26.5" cy="57.5" r="2.5" fill="#00C88F"/>
<circle cx="38.5" cy="2.5" r="2.5" fill="#00C88F"/>
<circle cx="38.5" cy="13.5" r="2.5" fill="#00C88F"/>
<circle cx="38.5" cy="24.5" r="2.5" fill="#00C88F"/>
<circle cx="38.5" cy="35.5" r="2.5" fill="#00C88F"/>
<circle cx="38.5" cy="46.5" r="2.5" fill="#00C88F"/>
<circle cx="38.5" cy="57.5" r="2.5" fill="#00C88F"/>
<circle cx="50.5" cy="2.5" r="2.5" fill="#00C88F"/>
<circle cx="50.5" cy="13.5" r="2.5" fill="#00C88F"/>
<circle cx="50.5" cy="24.5" r="2.5" fill="#00C88F"/>
<circle cx="50.5" cy="35.5" r="2.5" fill="#00C88F"/>
<circle cx="50.5" cy="46.5" r="2.5" fill="#00C88F"/>
<circle cx="50.5" cy="57.5" r="2.5" fill="#00C88F"/>
<circle cx="62.5" cy="2.5" r="2.5" fill="#00C88F"/>
<circle cx="62.5" cy="13.5" r="2.5" fill="#00C88F"/>
<circle cx="62.5" cy="24.5" r="2.5" fill="#00C88F"/>
<circle cx="62.5" cy="35.5" r="2.5" fill="#00C88F"/>
<circle cx="62.5" cy="46.5" r="2.5" fill="#00C88F"/>
<circle cx="62.5" cy="57.5" r="2.5" fill="#00C88F"/>
</svg>
