<svg width="59" height="61" viewBox="0 0 59 61" fill="none" xmlns="http://www.w3.org/2000/svg">
<g clip-path="url(#clip0_84_11397)">
<path d="M27.1406 45.5366C27.0433 45.4981 26.9639 45.549 26.8803 45.582C25.2183 46.2375 23.4988 46.397 21.7328 46.1839C20.5819 46.0451 19.4597 45.8087 18.4198 45.2659C17.932 45.0102 17.4813 44.7065 17.0908 44.3148C16.8661 44.088 16.8606 44.088 16.5852 44.2955C15.9207 44.7944 15.1959 45.1655 14.3807 45.3387C12.9722 45.6383 11.6665 45.3524 10.4567 44.5979C9.44691 43.9684 8.65087 43.1135 7.95074 42.1638C6.84369 40.6602 6.0134 39.0027 5.28175 37.293C3.93767 34.1538 2.94707 30.8965 2.08664 27.5979C1.41117 25.0058 0.846683 22.389 0.389064 19.7487C-0.142542 16.6825 -0.158983 13.6258 0.535667 10.5829C1.01795 8.47316 1.89345 6.55037 3.33345 4.91346C5.13241 2.86973 7.4301 1.71386 10.0594 1.17372C12.0721 0.761401 14.0998 0.74216 16.1386 0.953817C18.4732 1.19709 20.7463 1.71798 22.9741 2.44504C23.17 2.50964 23.3317 2.51651 23.5262 2.40656C25.865 1.08026 28.4039 0.600596 31.0605 0.655572C32.4128 0.68306 33.761 0.788889 35.0955 1.02391C35.2736 1.05552 35.4271 1.01704 35.5833 0.973059C37.9358 0.300977 40.3389 -0.02613 42.7819 0.00273244C46.3236 0.0439644 49.6694 0.838368 52.7138 2.7213C54.4525 3.79608 55.9364 5.15673 57.201 6.76203C57.9477 7.70762 58.3272 8.80851 58.5259 9.97675C58.7944 11.5518 58.7615 13.1338 58.5807 14.7143C57.9367 20.3466 56.0816 25.6051 53.6674 30.689C53.0413 32.0084 52.3508 33.2948 51.6205 34.5593C51.5465 34.6885 51.4753 34.819 51.3657 35.0156C51.7438 35.0389 52.0658 35.0128 52.385 34.9743C53.1537 34.8823 53.9141 34.7338 54.6759 34.595C55.4596 34.4521 56.2433 34.4273 57.0133 34.7077C58.5793 35.2781 59.348 36.8339 58.8424 38.4241C58.6149 39.1401 58.1888 39.7256 57.6696 40.2493C56.7283 41.2004 55.6171 41.9096 54.4279 42.5033C53.1084 43.163 51.6945 43.4984 50.2435 43.6908C49.1584 43.8337 48.0678 43.9382 46.9717 43.8131C46.7621 43.7884 46.7031 43.875 46.6935 44.0605C46.6675 44.5168 46.6223 44.9717 46.6059 45.428C46.5264 47.6229 46.3332 49.8055 45.8633 51.9551C45.6262 53.0422 45.3001 54.1019 44.8494 55.1217C43.7108 57.6891 41.8255 59.4235 39.1387 60.2537C37.8166 60.6619 36.478 61.0014 35.0791 61.0027C32.1607 61.0055 30.096 59.6586 28.9012 57.0032C28.0504 55.1134 27.5886 53.1219 27.4311 51.0507C27.2995 49.3176 27.2461 47.5817 27.1762 45.8458C27.1749 45.7414 27.2009 45.6328 27.1406 45.5366ZM48.5884 36.1714C48.5912 36.0299 48.6706 35.9502 48.7268 35.8622C50.0668 33.7896 51.2643 31.6359 52.3055 29.3984C54.5375 24.6017 56.2611 19.6484 56.8489 14.3515C57.0037 12.9537 57.0352 11.5532 56.7954 10.1595C56.6475 9.2978 56.3912 8.47041 55.8418 7.76672C54.9074 6.57236 53.8346 5.52232 52.5988 4.64133C49.7558 2.61547 46.5483 1.7331 43.1038 1.63415C40.4417 1.55855 37.8344 1.92552 35.2969 2.75428C35.1599 2.79964 35.0393 2.80926 34.901 2.7749C33.8651 2.52338 32.8129 2.38457 31.7511 2.31447C28.8916 2.12618 26.1815 2.58248 23.729 4.16167C23.5756 4.26062 23.4495 4.27849 23.2673 4.21527C20.7956 3.34115 18.265 2.72404 15.6494 2.50002C13.6093 2.32547 11.5802 2.37357 9.58803 2.91509C6.59296 3.73011 4.36103 5.48659 3.01832 8.32335C2.4552 9.51496 2.10856 10.7739 1.90852 12.0741C1.53311 14.5205 1.59477 16.9615 2.02087 19.3983C2.60317 22.7284 3.35263 26.0201 4.28157 29.2706C5.09816 32.1252 6.02847 34.94 7.29309 37.6324C7.99459 39.1237 8.78377 40.564 9.87713 41.8106C10.3717 42.3741 10.9239 42.873 11.5925 43.2249C12.7818 43.8475 13.9546 43.8035 15.1041 43.1177C15.6042 42.8194 16.0331 42.4318 16.4181 41.9962C16.6702 41.7117 16.914 41.4189 17.1579 41.1275C18.4116 39.6349 19.7036 38.1767 21.0271 36.7473C21.3231 36.4271 21.3245 36.4257 21.6999 36.603C22.3356 36.9026 22.9974 37.1088 23.6907 37.2297C24.0154 37.2875 24.3469 37.282 24.7539 37.3411C24.4908 37.6792 24.2565 37.9513 24.0537 38.2454C23.5536 38.9738 22.8672 39.4013 22.015 39.5937C21.2751 39.7614 20.538 39.94 19.8036 40.127C19.2871 40.2589 18.787 40.4445 18.3636 40.7839C17.6621 41.3447 17.5703 42.1831 18.1239 42.8799C18.2568 43.0476 18.4143 43.1919 18.587 43.317C18.9843 43.6042 19.4173 43.82 19.8804 43.9753C20.7202 44.2584 21.5862 44.4 22.4685 44.4563C24.6155 44.5924 26.561 44.0701 28.2463 42.6861C28.3189 42.627 28.3751 42.5019 28.5189 42.5707C28.5189 42.7205 28.5189 42.8716 28.5189 43.0228C28.5135 46.2389 28.5477 49.4536 28.8916 52.6574C29.03 53.9479 29.3807 55.1602 30.0206 56.2899C31.3017 58.5494 33.2541 59.5582 35.8121 59.3947C37.2 59.3067 38.5359 58.948 39.8156 58.401C41.6817 57.6038 42.9394 56.2391 43.5916 54.3094C43.8259 53.6153 44.004 52.9075 44.1191 52.186C44.6041 49.1485 44.9727 46.0946 45.3303 43.0393C45.3796 42.6243 45.3632 42.1927 45.5111 41.7804C46.0633 41.9288 46.6004 42.0168 47.1471 42.0401C48.798 42.113 50.4257 41.9384 52.0165 41.4917C53.6085 41.0451 55.0047 40.2355 56.2309 39.1305C56.6063 38.7924 56.9393 38.4131 57.1284 37.9362C57.4517 37.1225 57.0708 36.3955 56.2255 36.1756C55.6897 36.0368 55.1677 36.1371 54.6471 36.2402C53.2427 36.5192 51.8329 36.7336 50.3956 36.6484C49.7626 36.614 49.1351 36.5233 48.5884 36.1714Z" fill="#949494"/>
<path d="M48.5885 36.1717C49.1338 36.5235 49.7627 36.6142 50.3998 36.6513C51.8371 36.7365 53.2469 36.5208 54.6513 36.2431C55.1719 36.1401 55.6953 36.0384 56.2297 36.1785C57.075 36.3984 57.4573 37.1255 57.1326 37.9391C56.9421 38.4174 56.6092 38.7954 56.2351 39.1335C55.0089 40.2385 53.6114 41.048 52.0207 41.4947C50.4286 41.9414 48.8023 42.1159 47.1513 42.0431C46.606 42.0197 46.0675 41.9304 45.5153 41.7833C45.3687 42.1943 45.3838 42.6259 45.3345 43.0423C44.9755 46.0976 44.6083 49.1515 44.1233 52.1889C44.0082 52.9105 43.8301 53.6183 43.5958 54.3124C42.9436 56.242 41.6845 57.6068 39.8198 58.404C38.5401 58.951 37.2042 59.3083 35.8163 59.3977C33.2583 59.5612 31.3059 58.5524 30.0248 56.2929C29.3849 55.1618 29.0342 53.9509 28.8958 52.6603C28.5519 49.4566 28.5177 46.2419 28.5231 43.0258C28.5231 42.8746 28.5231 42.7221 28.5231 42.5736C28.3806 42.5049 28.3245 42.63 28.2505 42.6891C26.5652 44.0717 24.6197 44.594 22.4727 44.4593C21.5903 44.403 20.7244 44.2614 19.8846 43.9783C19.4215 43.823 18.9871 43.6072 18.5912 43.3199C18.4185 43.1949 18.261 43.0505 18.1281 42.8829C17.5745 42.186 17.6677 41.349 18.3678 40.7869C18.7912 40.4474 19.2899 40.2619 19.8078 40.1299C20.5422 39.9417 21.2793 39.763 22.0192 39.5967C22.8714 39.4043 23.5578 38.9782 24.0579 38.2484C24.2593 37.9543 24.4936 37.6835 24.7581 37.344C24.3511 37.2849 24.0196 37.2891 23.6948 37.2327C23.0029 37.1104 22.3398 36.9056 21.7041 36.606C21.3287 36.4287 21.3273 36.4301 21.0313 36.7503C19.7078 38.181 18.4158 39.6393 17.1621 41.1305C16.9169 41.4219 16.6744 41.7146 16.4223 41.9991C16.0373 42.4348 15.6084 42.8224 15.1083 43.1206C13.9588 43.8065 12.786 43.8504 11.5967 43.2278C10.9267 42.8774 10.3759 42.3785 9.88132 41.8136C8.7866 40.5656 7.99741 39.1266 7.29728 37.6354C6.03266 34.943 5.10235 32.1282 4.28576 29.2736C3.35682 26.0231 2.60737 22.7314 2.02507 19.4012C1.59896 16.9644 1.53731 14.5235 1.91272 12.0771C2.11276 10.7769 2.4594 9.51792 3.02251 8.32632C4.36386 5.48956 6.59715 3.73307 9.59223 2.91805C11.583 2.37654 13.6135 2.32844 15.6536 2.50299C18.2706 2.72701 20.8012 3.34412 23.2715 4.21824C23.4537 4.28283 23.5798 4.26359 23.7332 4.16464C26.1857 2.58545 28.8958 2.12915 31.7553 2.31744C32.8185 2.38754 33.8707 2.52635 34.9051 2.77787C35.0435 2.81223 35.1641 2.8026 35.3011 2.75725C37.8386 1.92849 40.4459 1.56152 43.108 1.63711C46.5525 1.7347 49.76 2.61706 52.603 4.6443C53.8388 5.52529 54.9116 6.57533 55.846 7.76969C56.3954 8.47338 56.6503 9.29939 56.7996 10.1625C57.0394 11.5562 57.0093 12.9553 56.8531 14.3544C56.2653 19.6514 54.5417 24.6047 52.3098 29.4014C51.2685 31.6389 50.0724 33.7926 48.731 35.8652C48.6707 35.9504 48.5913 36.0301 48.5885 36.1717ZM26.5406 36.0026C26.805 35.9902 27.0009 35.9669 27.1955 35.9765C27.3914 35.9861 27.586 36.0164 27.7778 36.0741C29.2493 36.5098 30.2892 37.913 30.2742 39.4675C30.2591 40.9615 30.2152 42.4541 30.2221 43.948C30.2358 46.8892 30.27 49.8291 30.6194 52.7552C30.7551 53.8849 31.1318 54.9144 31.7511 55.8558C32.5458 57.0653 33.6748 57.6879 35.1203 57.7003C36.7164 57.714 38.2167 57.3099 39.6348 56.5966C40.6829 56.0689 41.4009 55.2236 41.8421 54.1378C42.0435 53.643 42.1969 53.1331 42.3038 52.6109C42.6669 50.8338 42.8888 49.0347 43.1039 47.237C43.43 44.5019 43.8411 41.7765 43.9685 39.0167C44.0356 37.5529 44.7755 36.4864 46.2305 36.0191C46.3032 35.9957 46.3785 35.9806 46.3991 35.8542C46.199 35.5985 45.9853 35.3223 45.7702 35.0488C45.2125 34.341 44.7097 33.5974 44.3411 32.7728C44.074 32.1735 43.7616 31.599 43.4465 31.0259C43.0793 30.3593 42.7121 29.6927 42.3572 29.0193C41.4927 27.3728 40.7076 25.6919 40.1554 23.9106C39.8019 22.7713 39.5526 21.6126 39.5814 20.41C39.6362 18.1382 40.8885 16.592 43.0957 16.0697C44.0795 15.836 45.0769 15.7769 46.0839 15.8622C46.3032 15.88 46.5251 15.924 46.7416 15.8759C46.7416 15.8182 46.7498 15.7852 46.7402 15.7591C46.7005 15.6436 46.658 15.5296 46.6142 15.4169C45.8976 13.5875 44.9152 11.908 43.6753 10.3907C39.8513 5.71084 34.9435 3.55165 28.9068 4.10141C27.3887 4.24023 25.9761 4.74601 24.6882 5.57614C23.0454 6.63443 21.863 8.10229 20.9724 9.82029C20.0243 11.6496 19.4735 13.6068 19.1392 15.6299C19.031 16.2855 18.9323 16.9438 18.909 17.6076C19.0529 17.6448 19.1351 17.5582 19.2255 17.5114C19.7667 17.2324 20.3202 16.985 20.8943 16.7816C22.2233 16.3102 23.5784 15.9982 25.0019 16.17C26.5474 16.3569 27.7038 17.1142 28.3971 18.5354C28.5848 18.9202 28.7163 19.3243 28.8095 19.7421C29.1849 21.4408 29.4384 23.1561 29.4932 24.8975C29.5315 26.1193 29.4411 27.3315 29.2041 28.5328C28.9492 29.8274 28.4724 31.0424 27.9326 32.2368C27.3873 33.4421 26.9338 34.6846 26.5406 36.0026ZM21.8794 5.58439C21.7301 5.4552 21.5273 5.43458 21.3451 5.37961C19.5393 4.83397 17.7047 4.42852 15.8249 4.23473C14.015 4.04919 12.2133 4.06018 10.4335 4.46975C8.72494 4.86146 7.2 5.60913 5.98882 6.91618C4.86258 8.13115 4.19808 9.58939 3.8254 11.1851C3.23351 13.7277 3.22803 16.2868 3.65962 18.8528C4.22548 22.2174 4.98452 25.5393 5.92305 28.8186C6.69443 31.5125 7.56994 34.1705 8.7455 36.7201C9.34013 38.0079 10.0019 39.2572 10.8897 40.3718C11.2323 40.802 11.6077 41.2006 12.0612 41.5167C12.9271 42.1187 13.6533 42.1077 14.4918 41.481C14.7987 41.2514 15.0645 40.9807 15.3084 40.688C16.7223 38.9933 18.1719 37.3289 19.6736 35.7126C19.9298 35.4377 19.901 35.4487 19.664 35.2192C17.4266 33.0477 16.5826 30.3896 16.9881 27.3233C17.2553 25.3057 17.332 23.2798 17.1909 21.2581C16.9785 18.2124 17.2978 15.2341 18.1568 12.3162C18.8789 9.86152 19.9942 7.61301 21.7986 5.75482C21.8397 5.71084 21.8781 5.66411 21.8794 5.58439ZM47.5431 34.4702C47.6966 34.3808 47.7555 34.2159 47.8418 34.0757C48.5145 32.9886 49.1503 31.8794 49.7367 30.7428C52.2687 25.8307 54.206 20.7124 55.0308 15.2162C55.25 13.7525 55.3569 12.2791 55.1706 10.7989C55.0555 9.88764 54.7814 9.0575 54.1375 8.3648C53.6388 7.83016 53.1496 7.29002 52.5947 6.81173C50.0271 4.59482 46.9951 3.57777 43.6616 3.37298C41.8804 3.2644 40.1089 3.39497 38.3551 3.7317C38.277 3.74682 38.1619 3.71796 38.1564 3.87739C38.3935 3.99558 38.6387 4.11241 38.8799 4.23748C41.938 5.81804 44.3384 8.12291 46.221 10.9872C47.2033 12.4811 48.0199 14.0589 48.5433 15.7769C48.6461 16.1137 48.7296 16.4545 48.7269 16.8077C48.7187 18.1505 48.5803 19.481 48.3611 20.8045C48.1788 21.9026 48.0679 23.0118 48.1706 24.1264C48.2843 25.3538 48.4474 26.5784 48.5529 27.8057C48.7351 29.9401 48.4926 32.0031 47.4171 33.9067C47.2595 34.1884 47.2677 34.1939 47.5431 34.4702ZM27.8011 25.4142C27.786 24.0412 27.6394 22.6792 27.3887 21.3295C27.2804 20.7468 27.1955 20.1585 26.9968 19.595C26.6516 18.6151 25.972 18.0475 24.943 17.8812C24.4251 17.7973 23.9141 17.8166 23.4016 17.8935C21.8452 18.1272 20.423 18.7113 19.105 19.5648C18.9077 19.6926 18.8131 19.841 18.8392 20.0912C18.8761 20.454 18.8652 20.8224 18.8898 21.1866C19.0392 23.3994 18.931 25.6012 18.6514 27.7974C18.4363 29.4907 18.7501 31.0809 19.6489 32.5281C20.7573 34.3135 22.3398 35.3883 24.4539 35.615C24.854 35.6576 24.8731 35.6521 24.9636 35.3457C25.3924 33.8819 25.9446 32.4663 26.5817 31.0823C27.4092 29.2845 27.8175 27.3961 27.8011 25.4142ZM46.2045 32.5226C46.6032 31.6719 46.8046 30.7881 46.8704 29.87C46.9827 28.2936 46.7498 26.7364 46.5635 25.1806C46.3867 23.7017 46.4251 22.2353 46.6484 20.7646C46.7663 19.9826 46.9129 19.2019 46.9594 18.4103C46.9731 18.1725 47.0882 17.888 46.932 17.7025C46.7882 17.5321 46.5018 17.6118 46.2799 17.5898C45.3372 17.4908 44.3973 17.5087 43.4711 17.73C42.0462 18.0708 41.3351 18.9642 41.2967 20.432C41.2748 21.2635 41.4173 22.0703 41.6338 22.8661C42.1435 24.7435 42.9724 26.4876 43.8589 28.2084C44.5631 29.5745 45.3865 30.8775 46.0045 32.289C46.0387 32.3687 46.0634 32.4635 46.2045 32.5226ZM19.7064 41.9895C19.9832 42.2245 20.2983 42.3262 20.6121 42.4252C21.1492 42.5929 21.7041 42.685 22.2617 42.7386C24.7265 42.9736 26.768 42.1998 28.2875 40.1822C28.493 39.9087 28.5766 39.6214 28.5478 39.2902C28.5012 38.7624 28.271 38.324 27.8696 37.9914C27.3188 37.5337 26.8982 37.5708 26.3981 38.0931C26.2405 38.258 26.0926 38.4326 25.9487 38.6085C25.6884 38.926 25.4308 39.2448 25.1787 39.5678C24.621 40.2839 23.9127 40.7787 23.0509 41.0645C22.3878 41.2844 21.7095 41.4397 21.0286 41.5937C20.5888 41.6926 20.1367 41.7572 19.7064 41.9895ZM54.9157 37.9419C54.8417 37.9529 54.7677 37.9598 54.6951 37.9735C53.3223 38.2388 51.9426 38.4381 50.5396 38.3762C49.564 38.3336 48.5981 38.1989 47.7541 37.656C47.4924 37.4883 47.2705 37.4485 46.9964 37.5653C46.8293 37.6368 46.6512 37.6794 46.484 37.7495C46.1757 37.88 45.9634 38.1068 45.8332 38.4161C45.6524 38.8463 45.6332 39.3012 45.6208 39.7575C45.6167 39.932 45.7044 40.042 45.8661 40.097C46.1826 40.2069 46.5087 40.2784 46.8416 40.3072C48.4611 40.4474 50.0532 40.2743 51.6137 39.8386C52.8605 39.495 53.9443 38.8421 54.9157 37.9419Z" fill="white"/>
<path d="M26.5406 36.0024C26.9338 34.6844 27.3873 33.4419 27.934 32.2352C28.4738 31.0408 28.952 29.8259 29.2055 28.5312C29.4411 27.3286 29.5329 26.1177 29.4946 24.8959C29.4398 23.1545 29.1863 21.4393 28.8109 19.7405C28.7191 19.3227 28.5862 18.9186 28.3985 18.5338C27.7052 17.114 26.5488 16.3554 25.0033 16.1684C23.5811 15.9966 22.2247 16.3073 20.8957 16.7801C20.323 16.9835 19.7681 17.2309 19.2269 17.5099C19.1365 17.5566 19.0556 17.6432 18.9104 17.6061C18.9337 16.9436 19.0323 16.2853 19.1406 15.6283C19.4749 13.6038 20.0257 11.6467 20.9738 9.81872C21.8644 8.09934 23.0468 6.63286 24.6896 5.57457C25.9775 4.74443 27.3914 4.23865 28.9081 4.09984C34.9449 3.5487 39.8526 5.70926 43.6766 10.3891C44.9166 11.9064 45.899 13.5846 46.6155 15.4153C46.6594 15.528 46.7019 15.6421 46.7416 15.7575C46.7512 15.7836 46.743 15.8166 46.743 15.8743C46.5265 15.9238 46.3045 15.8798 46.0853 15.8606C45.0783 15.7767 44.0822 15.8358 43.0971 16.0681C40.8898 16.5918 39.6375 18.1366 39.5827 20.4085C39.554 21.6097 39.8033 22.7697 40.1568 23.9091C40.709 25.6903 41.494 27.3712 42.3586 29.0177C42.7121 29.6912 43.0806 30.3578 43.4478 31.0243C43.763 31.5975 44.074 32.172 44.3425 32.7712C44.7111 33.5958 45.2125 34.3408 45.7715 35.0472C45.988 35.3207 46.2018 35.597 46.4004 35.8526C46.3799 35.9804 46.3032 35.9955 46.2319 36.0175C44.7768 36.4835 44.037 37.5514 43.9698 39.0151C43.8424 41.7749 43.4314 44.5003 43.1053 47.2354C42.8902 49.0331 42.6682 50.8322 42.3051 52.6093C42.1983 53.1316 42.0448 53.6415 41.8434 54.1363C41.4022 55.222 40.6843 56.0673 39.6362 56.5951C38.2181 57.3084 36.7178 57.7124 35.1216 57.6987C33.6762 57.6863 32.5472 57.0637 31.7525 55.8543C31.1332 54.9128 30.7564 53.8834 30.6208 52.7536C30.2714 49.8261 30.2358 46.8863 30.2235 43.9464C30.2166 42.4538 30.2605 40.9599 30.2755 39.4659C30.2906 37.9128 29.2507 36.5096 27.7792 36.0725C27.5874 36.0162 27.3928 35.9859 27.1969 35.9749C27.0023 35.9653 26.8064 35.99 26.5406 36.0024Z" fill="#D0D0D0"/>
<path d="M21.8795 5.58433C21.8781 5.66405 21.8398 5.71078 21.7973 5.75476C19.9929 7.61157 18.879 9.86009 18.1555 12.3161C17.2965 15.2354 16.9772 18.2123 17.1896 21.258C17.3307 23.2797 17.254 25.3056 16.9868 27.3232C16.5813 30.3895 17.4253 33.0476 19.6627 35.2192C19.8997 35.4487 19.9285 35.4377 19.6723 35.7126C18.1706 37.3302 16.721 38.9946 15.3071 40.6879C15.0632 40.9806 14.7974 41.2528 14.4905 41.4809C13.652 42.1063 12.9258 42.1186 12.0599 41.5167C11.6064 41.2005 11.2323 40.802 10.8884 40.3718C9.99923 39.2571 9.33746 38.0078 8.7442 36.72C7.56727 34.1705 6.69177 31.5124 5.92176 28.8186C4.98323 25.5392 4.22418 22.2173 3.65833 18.8528C3.22674 16.2868 3.23085 13.7263 3.82411 11.185C4.19678 9.58933 4.86129 8.1311 5.98752 6.91613C7.19871 5.61045 8.72228 4.8614 10.4322 4.46969C12.2133 4.0615 14.0137 4.04913 15.8236 4.23467C17.7034 4.42709 19.538 4.83253 21.3438 5.37955C21.5274 5.43452 21.7302 5.45514 21.8795 5.58433Z" fill="#D0D0D0"/>
<path d="M47.543 34.4701C47.2663 34.1938 47.2594 34.1897 47.4183 33.908C48.4953 32.0044 48.7364 29.9414 48.5542 27.807C48.45 26.5783 48.2856 25.3551 48.1719 24.1277C48.0691 23.0131 48.1801 21.9039 48.3624 20.8058C48.5816 19.4809 48.72 18.1505 48.7282 16.809C48.7309 16.4558 48.646 16.115 48.5446 15.7782C48.0212 14.0589 47.2046 12.4811 46.2222 10.9885C44.3397 8.12421 41.9392 5.81934 38.8811 4.23878C38.64 4.11371 38.3947 3.99689 38.1577 3.87869C38.1632 3.72063 38.2783 3.74812 38.3564 3.733C40.1101 3.39627 41.8817 3.2657 43.6628 3.37428C46.9977 3.57769 50.0284 4.59612 52.5974 6.81303C53.1509 7.29132 53.6414 7.83146 54.1401 8.3661C54.7855 9.0588 55.0595 9.88894 55.1732 10.8002C55.3595 12.2804 55.2527 13.7538 55.0335 15.2175C54.21 20.7137 52.2727 25.832 49.7393 30.7441C49.1529 31.8807 48.5172 32.9899 47.8445 34.077C47.7554 34.2158 47.6978 34.3807 47.543 34.4701Z" fill="#D0D0D0"/>
<path d="M27.801 25.414C27.8174 27.3958 27.4091 29.2843 26.5816 31.082C25.9445 32.466 25.3923 33.8816 24.9635 35.3454C24.8744 35.6519 24.8552 35.6574 24.4538 35.6147C22.3397 35.388 20.7558 34.3132 19.6488 32.5278C18.75 31.0806 18.4362 29.4904 18.6513 27.7972C18.9295 25.6009 19.0377 23.3977 18.8897 21.1863C18.8651 20.8221 18.8774 20.4537 18.839 20.0909C18.813 19.8408 18.9075 19.6923 19.1048 19.5645C20.4229 18.711 21.8437 18.1269 23.4015 17.8932C23.9153 17.8163 24.425 17.797 24.9429 17.8809C25.9719 18.0472 26.6515 18.6148 26.9967 19.5947C27.1954 20.1582 27.2803 20.7465 27.3886 21.3292C27.6393 22.6803 27.7859 24.0409 27.801 25.414ZM24.4236 18.7783C24.1702 18.7935 23.866 18.7962 23.5865 18.9364C23.2522 19.1041 23.1522 19.3693 23.2837 19.7239C23.6934 20.8331 25.1621 21.1808 26.0294 20.374C26.5377 19.9012 26.4816 19.4326 25.8732 19.1055C25.4362 18.8704 24.9594 18.7976 24.4236 18.7783Z" fill="#D0D0D0"/>
<path d="M46.2046 32.5224C46.0635 32.4633 46.0388 32.3684 46.0032 32.2873C45.3852 30.8758 44.5618 29.5729 43.8576 28.2067C42.9711 26.486 42.1422 24.7419 41.6325 22.8644C41.416 22.0687 41.2735 21.2619 41.2954 20.4304C41.3338 18.9625 42.0449 18.0678 43.4698 17.7283C44.396 17.507 45.3359 17.4905 46.2786 17.5881C46.5005 17.6115 46.7869 17.5318 46.9307 17.7008C47.0869 17.8864 46.9718 18.1695 46.9581 18.4086C46.9116 19.2003 46.7663 19.9796 46.6471 20.763C46.4252 22.2322 46.3854 23.7001 46.5622 25.1789C46.7485 26.7348 46.9814 28.2906 46.8691 29.8684C46.8047 30.7879 46.6033 31.6716 46.2046 32.5224ZM44.0288 20.1129C44.5536 20.0772 45.0139 19.7446 45.3236 19.1962C45.5236 18.8416 45.4236 18.5736 45.0263 18.4581C44.2467 18.2341 43.4958 18.3413 42.8094 18.777C42.497 18.9749 42.4751 19.2649 42.719 19.5535C43.0273 19.9164 43.4205 20.1198 44.0288 20.1129Z" fill="#D0D0D0"/>
<path d="M24.4236 18.7783C24.9593 18.7962 25.4361 18.8704 25.8718 19.1054C26.4815 19.4325 26.5363 19.9026 26.028 20.374C25.1607 21.1808 23.6933 20.833 23.2823 19.7239C23.1508 19.3693 23.2508 19.1041 23.5851 18.9364C23.8646 18.7962 24.1701 18.7934 24.4236 18.7783Z" fill="white"/>
<path d="M44.0288 20.1132C43.4205 20.12 43.0273 19.9166 42.719 19.5524C42.4751 19.2652 42.497 18.9752 42.8094 18.7759C43.4945 18.3402 44.2467 18.233 45.0263 18.457C45.425 18.5711 45.5236 18.8405 45.3236 19.1951C45.0139 19.7448 44.5536 20.0774 44.0288 20.1132Z" fill="white"/>
</g>
<defs>
<clipPath id="clip0_84_11397">
<rect width="59" height="61" fill="white"/>
</clipPath>
</defs>
</svg>
