<svg width="71" height="70" viewBox="0 0 71 70" fill="none" xmlns="http://www.w3.org/2000/svg">
<g clip-path="url(#clip0_78_8992)">
<path d="M51.0004 0C51.4439 0.170351 51.9104 0.251881 52.3497 0.443443C54.2498 1.27399 55.4973 2.81245 56.3044 4.81557C56.8818 6.2493 57.1587 7.76655 57.3035 9.32092C57.5077 11.5169 57.3787 13.697 57.1254 15.8778C56.9206 17.6376 56.6001 19.3723 56.2184 21.095C56.1244 21.5192 56.1244 21.5153 56.5213 21.6405C58.9073 22.3922 61.2309 23.3228 63.4449 24.561C65.2389 25.5639 66.9282 26.7418 68.3581 28.3134C69.3784 29.4349 70.2145 30.701 70.6575 32.2282C71.3136 34.4891 71.0101 36.6248 69.8867 38.6312C68.8307 40.517 67.3293 41.9064 65.6582 43.0955C63.2146 44.8335 60.542 46.0239 57.781 46.9983C57.3023 47.1673 56.8188 47.3218 56.3353 47.4749C56.1802 47.524 56.1347 47.5902 56.1784 47.7805C56.5577 49.4469 56.8745 51.1278 57.0902 52.8294C57.2157 53.821 57.3078 54.8179 57.3599 55.8188C57.4162 56.8986 57.4277 57.977 57.3562 59.0561C57.1957 61.4689 56.7691 63.7981 55.4919 65.8384C54.3564 67.6512 52.7926 68.8026 50.7901 69.0313C48.9918 69.2368 47.222 68.9723 45.5176 68.216C43.2928 67.2283 41.2873 65.8523 39.3914 64.2648C38.1015 63.1843 36.8782 62.0177 35.7185 60.7736C35.5501 60.5933 35.4604 60.5953 35.2907 60.7742C33.2713 62.9106 31.1167 64.864 28.7053 66.4561C26.9621 67.6068 25.1341 68.5341 23.1147 68.957C22.4621 69.0936 21.8096 69.0406 21.1558 69.0545C18.3487 69.1141 16.3971 67.6009 15.0593 65.0217C14.314 63.5847 13.9663 61.9992 13.7718 60.3706C13.6239 59.133 13.5633 57.8895 13.6076 56.6434C13.6936 54.218 13.9978 51.8225 14.4752 49.4522C14.5837 48.9146 14.6836 48.3751 14.8169 47.8448C14.8769 47.6055 14.8291 47.522 14.6164 47.4544C13.1368 46.9831 11.6742 46.4581 10.2448 45.8224C8.07998 44.86 6.00479 43.7199 4.14045 42.1609C2.79839 41.0387 1.61266 39.7488 0.838929 38.0844C-0.489799 35.2255 -0.206846 32.4794 1.44846 29.8837C2.72205 27.8872 4.47248 26.48 6.37136 25.2762C8.90582 23.6695 11.6311 22.5639 14.4292 21.6545C14.4964 21.6326 14.5637 21.6034 14.6321 21.5922C14.8448 21.557 14.8696 21.4477 14.8188 21.2243C14.4007 19.3869 14.0614 17.5309 13.8487 15.6511C13.6682 14.0536 13.55 12.4482 13.6094 10.8375C13.6954 8.48772 13.9972 6.18235 15.0381 4.07451C16.0984 1.92821 17.6871 0.531601 19.9083 0.0603188C19.944 0.0523647 19.9761 0.021211 20.0101 0.000662844C20.9183 0.000662844 21.8259 0.000662844 22.7342 0.000662844C22.7796 0.0205482 22.8232 0.051039 22.8699 0.0589932C23.6091 0.178968 24.3265 0.391078 25.0293 0.662844C27.5686 1.64518 29.7886 3.23004 31.8953 5.02569C33.0962 6.04912 34.2371 7.14944 35.3253 8.31472C35.4664 8.46585 35.5476 8.47115 35.6858 8.31605C35.9457 8.02439 36.2262 7.75528 36.4989 7.47689C38.0482 5.89401 39.695 4.4457 41.4697 3.17436C43.0517 2.04156 44.713 1.0864 46.5265 0.46598C47.1021 0.269115 47.697 0.170351 48.2775 0.000662844C49.1845 0 50.0928 0 51.0004 0ZM35.5616 47.001C36.7928 47.0514 38.0718 46.9625 39.3514 46.9267C40.1458 46.9042 40.9377 46.8088 41.7314 46.7637C41.9192 46.7531 42.0162 46.6623 42.1125 46.5058C44.4288 42.7541 46.4919 38.8433 48.306 34.7748C48.3847 34.5985 48.3878 34.4606 48.3072 34.2836C47.6849 32.9109 47.0518 31.5441 46.3768 30.2012C45.0511 27.5624 43.6248 24.9906 42.0792 22.4983C41.9974 22.3664 41.9107 22.3113 41.7641 22.2961C40.3391 22.1483 38.9091 22.1019 37.4804 22.0661C35.8984 22.027 34.3159 22.0237 32.7326 22.0979C31.5857 22.1516 30.4387 22.194 29.2936 22.2941C29.0955 22.3113 28.9906 22.3955 28.887 22.5632C26.578 26.307 24.5173 30.2065 22.7087 34.2664C22.6245 34.4553 22.6221 34.5978 22.7075 34.7874C23.4291 36.3895 24.178 37.9757 24.9754 39.5347C26.2011 41.9315 27.511 44.2714 28.9228 46.5429C28.9925 46.655 29.0537 46.7464 29.2009 46.7551C29.6329 46.7809 30.0631 46.8485 30.4951 46.8638C32.1673 46.9248 33.8378 47.048 35.5616 47.001ZM16.6801 11.5958C16.6994 12.3475 16.737 13.0839 16.7891 13.8196C16.9454 16.0316 17.3265 18.2004 17.7991 20.354C17.8585 20.6244 17.9373 20.6748 18.1869 20.6138C19.7665 20.224 21.3612 19.9198 22.9626 19.6533C24.3458 19.4233 25.7358 19.2623 27.1245 19.0906C27.3099 19.0674 27.408 18.9806 27.5068 18.8288C29.2566 16.1409 31.1301 13.5618 33.1762 11.1358C33.3428 10.9383 33.2973 10.8488 33.1489 10.6937C31.8577 9.34346 30.5126 8.06284 29.0664 6.91546C27.3717 5.57055 25.5976 4.38008 23.577 3.69602C22.5245 3.34007 21.4521 3.14984 20.3615 3.40172C18.9431 3.72916 18.0845 4.77845 17.5313 6.17572C16.8449 7.91039 16.7237 9.75309 16.6801 11.5958ZM16.6825 57.5581C16.6552 57.9134 16.7158 58.3959 16.7425 58.8798C16.8182 60.2612 17.0194 61.618 17.5368 62.892C18.4753 65.202 19.9561 65.951 22.0289 65.7243C23.2534 65.5904 24.398 65.1178 25.497 64.5272C28.4078 62.9629 30.8683 60.7285 33.2022 58.3058C33.3549 58.1474 33.2937 58.0665 33.1853 57.9359C32.6515 57.2903 32.1134 56.6474 31.5984 55.9832C30.1443 54.1073 28.7616 52.1698 27.4638 50.1614C27.3887 50.0448 27.3063 49.9838 27.1711 49.9699C26.6907 49.9201 26.212 49.8479 25.7315 49.7942C24.4507 49.651 23.1759 49.4542 21.9059 49.2268C20.636 48.9995 19.3696 48.7443 18.116 48.4228C17.9458 48.379 17.8585 48.4102 17.8204 48.6203C17.744 49.0406 17.6362 49.4542 17.5513 49.8731C17.046 52.3607 16.7164 54.8736 16.6825 57.5581ZM67.9012 34.5415C67.8994 33.7686 67.714 33.0428 67.3559 32.368C66.6937 31.1212 65.7527 30.1601 64.6973 29.3335C61.8968 27.1408 58.7189 25.8596 55.4489 24.807C55.2895 24.7559 55.2604 24.8361 55.2229 24.968C55.1011 25.3995 54.9763 25.8297 54.8436 26.2573C53.9971 28.9816 53.0332 31.6541 51.9274 34.2651C51.8486 34.4513 51.8517 34.6111 51.9298 34.796C52.1752 35.376 52.4115 35.96 52.6442 36.5466C53.61 38.9839 54.4685 41.4642 55.1938 43.9996C55.2441 44.1766 55.272 44.3105 55.5143 44.2316C57.9815 43.4309 60.3954 42.4863 62.6578 41.1255C64.0871 40.2658 65.4322 39.2795 66.5252 37.9346C67.3129 36.9682 67.8952 35.8917 67.9012 34.5415ZM54.3237 11.5845C54.3328 10.8448 54.2783 10.1084 54.205 9.37527C54.0783 8.10924 53.8287 6.87502 53.2852 5.73559C52.5176 4.12621 51.3233 3.27843 49.6347 3.29831C48.1987 3.31489 46.8815 3.81069 45.614 4.47884C42.6542 6.03785 40.1627 8.30213 37.8016 10.7573C37.6665 10.8978 37.7058 10.9774 37.8119 11.1033C39.8755 13.5572 41.7678 16.1615 43.5352 18.8758C43.6157 18.9998 43.6994 19.0687 43.849 19.0859C44.6591 19.1787 45.468 19.2874 46.2768 19.3915C48.4956 19.6779 50.6956 20.0868 52.875 20.6257C53.0901 20.6788 53.1574 20.6165 53.1986 20.3924C53.2943 19.8754 53.4209 19.365 53.5233 18.8486C53.9984 16.4551 54.2934 14.0371 54.3237 11.5845ZM54.3298 57.4222C54.291 56.2821 54.2316 55.1076 54.1008 53.9357C53.9014 52.1526 53.5833 50.3961 53.1968 48.6521C53.1447 48.4175 53.0677 48.381 52.8647 48.4321C52.2867 48.5785 51.7044 48.7032 51.1228 48.8298C49.6923 49.1406 48.2521 49.3879 46.8058 49.5947C45.8782 49.7273 44.9499 49.8558 44.0168 49.9361C43.7921 49.9553 43.6224 50.0368 43.4734 50.2662C41.7363 52.9361 39.8762 55.4993 37.8428 57.9081C37.6658 58.1175 37.7167 58.2117 37.8731 58.3741C39.2848 59.8416 40.7529 61.2356 42.3494 62.4585C43.8817 63.6317 45.4813 64.6691 47.2747 65.3048C48.3514 65.6866 49.4487 65.9053 50.5751 65.6687C52.0389 65.3618 52.9199 64.2959 53.4821 62.8615C54.1583 61.1368 54.288 59.3067 54.3298 57.4222ZM3.1074 34.5077C3.09104 35.2932 3.29947 36.011 3.65271 36.6812C4.36342 38.0314 5.40132 39.0396 6.55434 39.9092C9.30086 41.9806 12.3837 43.2248 15.5555 44.2462C15.7112 44.2966 15.7476 44.2283 15.7845 44.0911C15.8663 43.7849 15.9566 43.4813 16.0481 43.1783C16.9182 40.3115 17.9385 37.509 19.0855 34.7616C19.1545 34.5958 19.1576 34.4619 19.0873 34.2956C18.8219 33.6652 18.5632 33.0315 18.3142 32.3932C17.3732 29.9811 16.5189 27.5339 15.8064 25.0283C15.7543 24.8454 15.7118 24.7533 15.4986 24.8222C13.0598 25.611 10.6762 26.5496 8.43443 27.8792C7.00088 28.7297 5.65216 29.71 4.54701 31.0423C3.73087 32.0273 3.11528 33.119 3.1074 34.5077ZM45.9369 46.2931C46.1381 46.2791 46.2756 46.2785 46.4107 46.2579C46.7591 46.2049 47.1063 46.1386 47.4553 46.0863C48.9809 45.8582 50.4914 45.5407 51.9989 45.1994C52.2316 45.147 52.2897 45.0708 52.2049 44.8123C51.8911 43.8591 51.6093 42.8933 51.2949 41.9402C50.9192 40.8014 50.5139 39.6746 50.0491 38.502C48.7749 41.1706 47.4244 43.7318 45.9369 46.2931ZM45.9381 22.7674C47.4292 25.3266 48.7719 27.8879 50.0528 30.5532C50.8574 28.4718 51.5572 26.4309 52.1613 24.3509C52.2861 23.9214 52.2861 23.9287 51.8965 23.8365C50.4999 23.5065 49.0948 23.2274 47.6819 22.9994C47.1269 22.9099 46.5737 22.7879 45.9381 22.7674ZM25.0608 22.7826C24.9027 22.7826 24.8112 22.7714 24.7233 22.7846C22.7996 23.0696 20.8862 23.4203 18.9867 23.8657C18.7443 23.9227 18.7395 24.0195 18.8061 24.2402C19.2945 25.8622 19.8107 27.4729 20.3954 29.0571C20.5729 29.5383 20.7541 30.0169 20.9589 30.5631C22.2379 27.8726 23.5891 25.3213 25.0608 22.7826ZM20.9643 38.5139C20.9183 38.612 20.8928 38.6584 20.8741 38.7081C20.127 40.6715 19.4399 42.6593 18.8516 44.687C18.7225 45.1324 18.7219 45.1251 19.1285 45.2199C20.6632 45.5785 22.2076 45.8788 23.7599 46.1247C24.1713 46.1903 24.5834 46.2957 25.0632 46.2778C23.5848 43.7325 22.2355 41.1706 20.9643 38.5139ZM31.37 50.284C31.6838 50.7268 31.9583 51.1179 32.2364 51.5057C33.2192 52.8751 34.2534 54.1968 35.3113 55.4973C35.4719 55.6948 35.5622 55.675 35.7046 55.488C35.9815 55.1241 36.2783 54.7781 36.5625 54.4215C37.555 53.1754 38.5171 51.9021 39.4242 50.5797C39.4702 50.5127 39.5714 50.4511 39.5326 50.3623C39.486 50.2549 39.3714 50.3106 39.2878 50.3132C38.7346 50.3331 38.1803 50.3483 37.6271 50.3629C35.564 50.416 33.4997 50.3947 31.37 50.284ZM31.4427 18.6763C32.2504 18.6763 33.0647 18.6809 33.879 18.6756C35.6828 18.6637 37.4859 18.667 39.2884 18.7426C39.3714 18.7459 39.4866 18.8009 39.5326 18.6935C39.5708 18.6047 39.4696 18.5431 39.4235 18.4761C38.2554 16.7753 36.9951 15.1573 35.7052 13.5658C35.5307 13.3504 35.4362 13.3994 35.2913 13.585C34.6436 14.4136 33.9784 15.2262 33.3373 16.0614C32.6715 16.9271 32.0274 17.8126 31.4427 18.6763Z" fill="#949494"/>
<path d="M35.5058 41.4464C32.1056 41.4345 29.1809 38.508 29.1797 34.5289C29.1785 30.5439 32.1159 27.6122 35.504 27.6108C38.9025 27.6102 41.8284 30.5446 41.829 34.5263C41.8296 38.4808 38.9334 41.4338 35.5058 41.4464Z" fill="#949494"/>
</g>
<defs>
<clipPath id="clip0_78_8992">
<rect width="71" height="69.0982" fill="white"/>
</clipPath>
</defs>
</svg>
