<svg width="36" height="36" viewBox="0 0 36 36" fill="none" xmlns="http://www.w3.org/2000/svg">
<path d="M18.5 32C27.0604 32 34 25.2843 34 17C34 8.71573 27.0604 2 18.5 2C9.93959 2 3 8.71573 3 17C3 25.2843 9.93959 32 18.5 32Z" fill="#00C88F"/>
<path fill-rule="evenodd" clip-rule="evenodd" d="M22.7277 14.5296C24.1868 15.5462 25.9733 16.143 27.9039 16.143V12.5241C27.5391 12.5241 27.1743 12.4877 26.8167 12.4131V15.2617C24.8861 15.2617 23.0996 14.6632 21.6405 13.6466V21.0336C21.6405 24.7289 18.5658 27.7251 14.774 27.7251C13.3594 27.7251 12.0444 27.3087 10.9519 26.5939C12.1992 27.8361 13.9377 28.6064 15.8612 28.6064C19.653 28.6064 22.7277 25.6102 22.7277 21.915V14.5296ZM24.0676 10.8777C23.322 10.0831 22.8327 9.05781 22.7259 7.9232V7.45825H21.6957C21.9572 8.89993 22.8416 10.1317 24.0676 10.8777ZM13.3505 23.7591C12.9341 23.2265 12.7081 22.576 12.7099 21.9063C12.7099 20.2165 14.1156 18.846 15.8505 18.846C16.1743 18.846 16.4946 18.8945 16.8024 18.99V15.2877C16.443 15.2392 16.0782 15.2201 15.7152 15.227V18.1069C15.4074 18.0115 15.0854 17.9629 14.7615 17.9629C13.0266 17.9629 11.6209 19.3335 11.6209 21.0232C11.6227 22.2203 12.3256 23.2543 13.3505 23.7591Z" fill="white"/>
<path fill-rule="evenodd" clip-rule="evenodd" d="M21.6405 13.6483C23.0996 14.6649 24.8861 15.2635 26.8167 15.2635V12.4131C25.7402 12.1893 24.7847 11.641 24.0676 10.8777C22.8398 10.1317 21.9555 8.89993 21.6957 7.45825H18.9893V21.9167C18.984 23.603 17.58 24.9666 15.8487 24.9666C14.8291 24.9666 13.9217 24.493 13.3487 23.7591C12.3238 23.256 11.621 22.2203 11.621 21.025C11.621 19.3352 13.0267 17.9647 14.7615 17.9647C15.0943 17.9647 15.4146 18.015 15.7153 18.1086V15.2288C11.9893 15.3034 8.99463 18.27 8.99463 21.9184C8.99463 23.7401 9.74018 25.3899 10.9519 26.5957C12.0445 27.3104 13.3594 27.7268 14.774 27.7268C18.5658 27.7268 21.6405 24.7307 21.6405 21.0354V13.6483Z" fill="white"/>
<path fill-rule="evenodd" clip-rule="evenodd" d="M26.8168 12.413V11.6427C25.8452 11.6445 24.8933 11.379 24.0677 10.8777C24.799 11.6566 25.7598 12.1927 26.8168 12.413ZM21.6976 7.45822C21.6726 7.32117 21.6531 7.18238 21.6406 7.04185V6.5769H17.904V21.0354C17.8986 22.7199 16.4947 24.0853 14.7634 24.0853C14.2545 24.0853 13.7758 23.9673 13.3506 23.7591C13.9253 24.493 14.831 24.9666 15.8506 24.9666C17.5819 24.9666 18.9858 23.6012 18.9911 21.9167V7.45822H21.6976ZM15.7171 15.227V14.4064C15.4057 14.3648 15.0908 14.3439 14.7758 14.3439C10.984 14.3439 7.9093 17.3401 7.9093 21.0354C7.9093 23.3514 9.11749 25.3934 10.9538 26.5939C9.74382 25.3882 8.99649 23.7366 8.99649 21.9149C8.99471 18.2682 11.9912 15.3016 15.7171 15.227Z" fill="#00C9D0"/>
</svg>
