<svg width="47" height="44" viewBox="0 0 47 44" fill="none" xmlns="http://www.w3.org/2000/svg">
<path d="M47 36.1455V1.01968C47 0.456511 46.5432 0 45.9797 0H1.02035C0.456808 0 0 0.456511 0 1.01968V36.1455C0 36.7086 0.456808 37.1651 1.02035 37.1651H45.9754C46.5432 37.1651 47 36.7086 47 36.1455ZM44.955 35.1258H2.04496V2.04363H44.955V35.1258Z" fill="#181438"/>
<path d="M6.42516 29.2722H40.579C41.1426 29.2722 41.5994 28.8157 41.5994 28.2525V5.2435C41.5994 4.68033 41.1426 4.22382 40.579 4.22382H6.42516C5.86162 4.22382 5.40481 4.68033 5.40481 5.2435V28.2525C5.40055 28.8114 5.85735 29.2722 6.42516 29.2722ZM7.44551 6.26318H39.5544V27.2286H7.44551V6.26318Z" fill="#181438"/>
<path d="M23.498 30.07C22.2855 30.07 21.2993 31.0556 21.2993 32.2672C21.2993 33.4789 22.2855 34.4645 23.498 34.4645C24.7104 34.4645 25.6966 33.4789 25.6966 32.2672C25.6966 31.0556 24.7104 30.07 23.498 30.07ZM23.498 33.2357C22.9643 33.2357 22.5289 32.8005 22.5289 32.2672C22.5289 31.7339 22.9643 31.2987 23.498 31.2987C24.0316 31.2987 24.4671 31.7339 24.4671 32.2672C24.4671 32.8005 24.0359 33.2357 23.498 33.2357Z" fill="#181438"/>
<path d="M35.3022 44C35.8657 44 36.3225 43.5435 36.3225 42.9803V39.4135C36.3225 38.8504 35.8657 38.3939 35.3022 38.3939H11.6976C11.1341 38.3939 10.6772 38.8504 10.6772 39.4135V42.9803C10.6772 43.5435 11.1341 44 11.6976 44H35.3022ZM12.7179 40.4332H34.2818V41.9606H12.7179V40.4332Z" fill="#181438"/>
</svg>
