<svg width="22" height="29" viewBox="0 0 22 29" fill="none" xmlns="http://www.w3.org/2000/svg">
<g clip-path="url(#clip0_79_9003)">
<path d="M14.4821 11.9356C16.2685 10.7823 17.4542 8.77417 17.4542 6.4832C17.4542 2.90063 14.5666 0 11 0C7.43658 0 4.54892 2.90063 4.54892 6.4832C4.54892 8.77417 5.73464 10.7823 7.52105 11.9356C3.31001 12.3127 0 15.8765 0 20.2007V26.929L0.0156428 27.0359L0.478669 27.1804C4.82736 28.5443 8.60353 29 11.7133 29C17.7858 29 21.3055 27.259 21.5245 27.149L21.9562 26.929H22.0031V20.2007C22 15.8765 18.69 12.3159 14.4821 11.9356Z" fill="#181438"/>
</g>
<defs>
<clipPath id="clip0_79_9003">
<rect width="22" height="29" fill="white"/>
</clipPath>
</defs>
</svg>
