<svg width="77" height="66" viewBox="0 0 77 66" fill="none" xmlns="http://www.w3.org/2000/svg">
<g clip-path="url(#clip0_82_11306)">
<path d="M61.5967 0.0492184C66.6856 0.0492184 71.7745 0.0492184 77 0.0492184C75.9068 1.92917 74.8737 3.72194 73.8352 5.50926C62.2472 25.4313 50.6592 45.3588 39.0712 65.2754C38.9182 65.5424 38.8471 65.9838 38.5246 65.9947C38.1912 66.0056 38.1146 65.5642 37.9616 65.3027C25.4881 43.8603 13.0201 22.4179 0.546603 0.975572C0.388088 0.708564 0.300632 0.381616 0 0.212693C0 0.147303 0 0.0873623 0 0.0219727C5.14354 0.0328709 10.2816 0.0437692 15.4251 0.0546675C16.0592 1.16084 16.6933 2.27247 17.3328 3.37864C20.9294 9.56342 24.5316 15.7482 28.1282 21.9384C31.4516 27.6546 34.7749 33.3707 38.0928 39.0978C38.4098 39.6427 38.623 39.6427 38.9346 39.0978C40.1097 37.0434 41.3068 35.0055 42.4929 32.962C46.3793 26.2759 50.2656 19.5953 54.152 12.9092C56.6336 8.62072 59.1151 4.33769 61.5967 0.0492184Z" fill="#D0D0D0"/>
<path d="M61.5966 0.049131C59.1151 4.33216 56.6335 8.62063 54.1464 12.9037C50.2655 19.5898 46.3737 26.2704 42.4874 32.9565C41.3013 34.9999 40.1042 37.0379 38.929 39.0922C38.6174 39.6371 38.4043 39.6371 38.0872 39.0922C34.7748 33.3706 31.446 27.6545 28.1226 21.9329C24.5315 15.7481 20.9293 9.56333 17.3327 3.37311C16.6932 2.26693 16.0591 1.16076 15.425 0.049131C19.9783 0.0382327 24.5315 0.0382327 29.0847 8.87609e-05C29.6641 8.87609e-05 29.839 0.332486 30.0631 0.724824C32.6758 5.22037 35.2941 9.71591 37.9123 14.206C38.0818 14.4948 38.1801 14.849 38.5081 15.0506C38.8361 14.849 38.9345 14.4948 39.1039 14.206C41.7112 9.74315 44.3185 5.28031 46.893 0.801112C47.2155 0.239851 47.5435 -0.00536038 48.2267 8.87609e-05C52.6815 0.049131 57.1418 0.0382327 61.5966 0.049131Z" fill="#949494"/>
</g>
<defs>
<clipPath id="clip0_82_11306">
<rect width="77" height="66" fill="white"/>
</clipPath>
</defs>
</svg>
