<svg width="141" height="122" viewBox="0 0 141 122" fill="none" xmlns="http://www.w3.org/2000/svg">
<g clip-path="url(#clip0_192_11529)">
<path d="M112.69 0.0900391C122 0.0900391 131.31 0.0900391 140.87 0.0900391C138.87 3.54004 136.98 6.83004 135.08 10.11C113.88 46.67 92.68 83.24 71.48 119.79C71.2 120.28 71.07 121.09 70.48 121.11C69.87 121.13 69.73 120.32 69.45 119.84C46.63 80.49 23.82 41.14 1 1.79004C0.71 1.30004 0.55 0.700039 0 0.390039C0 0.270039 0 0.160039 0 0.0400391C9.41 0.0600391 18.81 0.0800391 28.22 0.100039C29.38 2.13004 30.54 4.17004 31.71 6.20004C38.29 17.55 44.88 28.9 51.46 40.26C57.54 50.75 63.62 61.24 69.69 71.75C70.27 72.75 70.66 72.75 71.23 71.75C73.38 67.98 75.57 64.24 77.74 60.49C84.85 48.22 91.96 35.96 99.07 23.69C103.61 15.82 108.15 7.96004 112.69 0.0900391Z" fill="#00C88F"/>
<path d="M112.69 0.0901629C108.15 7.95016 103.61 15.8202 99.06 23.6802C91.96 35.9502 84.84 48.2102 77.73 60.4802C75.56 64.2302 73.37 67.9702 71.22 71.7402C70.65 72.7402 70.26 72.7402 69.68 71.7402C63.62 61.2402 57.53 50.7502 51.45 40.2502C44.88 28.9002 38.29 17.5502 31.71 6.19016C30.54 4.16016 29.38 2.13016 28.22 0.0901629C36.55 0.0701629 44.88 0.0701629 53.21 0.00016289C54.27 0.00016289 54.59 0.610163 55 1.33016C59.78 9.58016 64.57 17.8302 69.36 26.0702C69.67 26.6002 69.85 27.2502 70.45 27.6202C71.05 27.2502 71.23 26.6002 71.54 26.0702C76.31 17.8802 81.08 9.69016 85.79 1.47016C86.38 0.440163 86.98 -0.00983711 88.23 0.00016289C96.38 0.0901629 104.54 0.0701629 112.69 0.0901629Z" fill="#328868"/>
</g>
<defs>
<clipPath id="clip0_192_11529">
<rect width="140.87" height="121.12" fill="white"/>
</clipPath>
</defs>
</svg>
