<svg width="36" height="56" viewBox="0 0 36 56" fill="none" xmlns="http://www.w3.org/2000/svg">
<g clip-path="url(#clip0_190_11443)">
<path d="M36 5.96667C36 6.38066 36 6.72894 36 7.11007C35.2619 6.74208 35.3015 6.3938 36 5.96667Z" fill="#181438"/>
<path d="M22.8798 0C23.5915 0.282563 23.888 0.827975 24.0132 1.57052C24.4877 4.40272 25.0083 7.23492 25.4959 10.0671C25.5487 10.3694 25.6475 10.4877 25.944 10.56C29.1994 11.4011 31.2686 13.9901 31.2752 17.348C31.3015 24.4581 31.3015 31.5616 31.2752 38.6717C31.262 42.0361 29.206 44.5923 25.9243 45.4532C25.6607 45.5255 25.5487 45.6175 25.4959 45.9C25.0017 48.8045 24.4811 51.709 23.9737 54.6069C23.8024 55.5663 23.3147 56 22.3328 56C17.8188 56 13.3048 56.0066 8.79083 56C7.82873 56 7.35426 55.5926 7.18952 54.6398C6.67551 51.7353 6.16151 48.8374 5.66069 45.9329C5.60797 45.624 5.48935 45.4663 5.17304 45.3875C2.10879 44.6318 -0.0131185 41.8324 6.10516e-05 38.5797C0.0264202 31.5287 6.10518e-05 24.4778 0.0132406 17.4203C0.0198304 14.0559 1.93746 11.5391 5.17304 10.6191C5.5223 10.5205 5.61456 10.3431 5.67387 10.0211C6.14833 7.22835 6.65574 4.43558 7.12362 1.63624C7.24224 0.913401 7.51901 0.341704 8.18457 0C13.0808 0 17.9836 0 22.8798 0ZM15.6508 37.9488C19.7628 37.9488 23.8749 37.9423 27.9803 37.962C28.4218 37.962 28.5602 37.8831 28.5602 37.41C28.5404 31.141 28.5404 24.8721 28.5602 18.6097C28.5602 18.1629 28.4679 18.038 28.0001 18.038C19.7628 18.0512 11.519 18.0512 3.28177 18.038C2.87321 18.038 2.72823 18.1103 2.72823 18.5637C2.748 24.8524 2.74141 31.1345 2.72823 37.4231C2.72823 37.8371 2.8139 37.9686 3.262 37.9686C7.38721 37.9423 11.519 37.9488 15.6508 37.9488ZM15.5585 10.3825C17.8254 10.3825 20.0923 10.376 22.3526 10.3891C22.6755 10.3891 22.7809 10.3694 22.7085 9.98169C22.2867 7.72776 21.8979 5.46726 21.5223 3.20676C21.4564 2.82563 21.3378 2.72049 20.9424 2.72049C17.3773 2.7402 13.8188 2.7402 10.2538 2.72049C9.81225 2.72049 9.67387 2.84534 9.60138 3.2659C9.23894 5.47383 8.85673 7.67519 8.44816 9.87655C8.37568 10.2708 8.40204 10.4023 8.85673 10.3957C11.0973 10.3694 13.3312 10.3825 15.5585 10.3825ZM15.5849 45.6175C13.3378 45.6175 11.0907 45.6306 8.84355 45.6109C8.4284 45.6043 8.37568 45.7095 8.44816 46.0972C8.85673 48.2985 9.23894 50.4999 9.60797 52.7078C9.68046 53.1349 9.81225 53.2861 10.2867 53.2795C13.7925 53.2532 17.3048 53.2532 20.8106 53.2795C21.318 53.2861 21.4828 53.1349 21.5552 52.6552C21.9111 50.4473 22.2933 48.2394 22.7019 46.0446C22.7744 45.6372 22.6689 45.6043 22.3263 45.6043C20.0791 45.624 17.832 45.6175 15.5849 45.6175ZM3.22247 15.2912C11.5388 15.2912 19.7628 15.2912 28.0594 15.2912C27.1961 13.8521 25.9902 13.1227 24.3559 13.1162C21.3971 13.1096 18.4383 13.1096 15.4795 13.1162C12.5404 13.1162 9.59479 13.0899 6.65574 13.1359C5.14009 13.1556 4.02642 13.9441 3.22247 15.2912ZM3.20929 40.689C4.11209 42.1873 5.36415 42.8904 7.03136 42.8904C12.7645 42.8838 18.5042 42.8904 24.2373 42.8904C24.6393 42.8904 25.0412 42.8707 25.43 42.7655C26.5833 42.4501 27.4531 41.7864 28.0528 40.689C19.7562 40.689 11.5388 40.689 3.20929 40.689Z" fill="#181438"/>
<path d="M32.7446 32.5933C32.7446 31.1936 32.738 29.7874 32.7446 28.3877C32.7446 27.6846 33.1005 27.2509 33.6606 27.2575C34.1944 27.264 34.57 27.6714 34.57 28.3417C34.5832 31.2002 34.5832 34.0653 34.57 36.9237C34.57 37.6071 34.2076 37.9817 33.6474 37.9817C33.0873 37.9817 32.7446 37.594 32.7446 36.9106C32.738 35.4715 32.7446 34.0324 32.7446 32.5933Z" fill="#181438"/>
<path d="M32.7446 21.3236C32.7446 20.5614 32.738 19.7991 32.7446 19.0303C32.7512 18.3994 33.0939 18.0183 33.6408 18.0117C34.1812 18.0052 34.5568 18.3666 34.5634 19.004C34.5832 20.5877 34.5832 22.1648 34.5634 23.7484C34.5568 24.3858 34.1746 24.7473 33.6408 24.7407C33.0807 24.7341 32.7512 24.3464 32.7446 23.6696C32.738 22.8876 32.7446 22.1056 32.7446 21.3236Z" fill="#181438"/>
</g>
<defs>
<clipPath id="clip0_190_11443">
<rect width="36" height="56" fill="white"/>
</clipPath>
</defs>
</svg>
