<svg width="32" height="32" viewBox="0 0 32 32" fill="none" xmlns="http://www.w3.org/2000/svg">
<g clip-path="url(#clip0_18_4349)">
<path d="M31.7957 18.5372C33.1972 9.81286 27.2609 1.60427 18.5365 0.202793C9.81222 -1.19868 1.60363 4.73766 0.20215 13.462C-1.19933 22.1863 4.73702 30.3949 13.4613 31.7964C22.1857 33.1979 30.3943 27.2615 31.7957 18.5372Z" fill="#00C88F"/>
<path d="M7.35461 25.0533L8.68795 20.0759C7.93192 18.7125 7.53492 17.1862 7.53492 15.6362C7.53492 10.5686 11.6583 6.44678 16.7243 6.44678C21.7919 6.44678 25.9153 10.5701 25.9153 15.6362C25.9153 20.7038 21.7919 24.8272 16.7243 24.8272C15.2028 24.8272 13.7002 24.4428 12.3558 23.7137L7.35461 25.0533ZM12.6073 21.8489L12.922 22.0371C14.0782 22.7267 15.3942 23.0905 16.7259 23.0905C20.835 23.0905 24.1787 19.7469 24.1787 15.6378C24.1787 11.5286 20.835 8.18501 16.7259 8.18501C12.6168 8.18501 9.27316 11.5286 9.27316 15.6378C9.27316 16.9948 9.64959 18.3313 10.3629 19.5017L10.5559 19.8197L9.81092 22.5986L12.6073 21.8489Z" fill="white"/>
<path fill-rule="evenodd" clip-rule="evenodd" d="M20.1455 16.9143C19.7675 16.6881 19.2756 16.435 18.8296 16.6185C18.488 16.7577 18.2697 17.2938 18.0483 17.5675C17.9344 17.7082 17.7984 17.7304 17.6244 17.6592C16.3416 17.1483 15.3579 16.2911 14.6493 15.1112C14.5291 14.9277 14.5512 14.7838 14.6952 14.6129C14.9087 14.3615 15.1776 14.0752 15.2361 13.7351C15.2946 13.3967 15.1348 12.9997 14.9941 12.696C14.8154 12.3101 14.6145 11.7596 14.227 11.5398C13.8711 11.3389 13.4029 11.4512 13.0866 11.709C12.5394 12.1551 12.2752 12.8526 12.2831 13.5437C12.2847 13.7399 12.31 13.936 12.3559 14.1258C12.4666 14.5829 12.677 15.0084 12.9142 15.4133C13.0929 15.7185 13.2875 16.0143 13.4978 16.3006C14.1843 17.2322 15.0384 18.0436 16.0269 18.6493C16.5204 18.9514 17.0534 19.2171 17.6038 19.399C18.2222 19.6031 18.7726 19.815 19.4401 19.6885C20.1392 19.5556 20.8272 19.1238 21.1056 18.45C21.1878 18.2507 21.229 18.0293 21.1831 17.8174C21.0866 17.384 20.4966 17.1262 20.1455 16.9143Z" fill="white"/>
</g>
<defs>
<clipPath id="clip0_18_4349">
<rect width="32" height="32" fill="white"/>
</clipPath>
</defs>
</svg>
