<svg width="475" height="34" viewBox="0 0 475 34" fill="none" xmlns="http://www.w3.org/2000/svg">
<path d="M5.39 8.64V27H1.52V8.64H5.39ZM6.038 3.096C6.038 3.444 5.966 3.774 5.822 4.086C5.69 4.398 5.504 4.674 5.264 4.914C5.024 5.142 4.742 5.328 4.418 5.472C4.106 5.604 3.77 5.67 3.41 5.67C3.062 5.67 2.732 5.604 2.42 5.472C2.12 5.328 1.856 5.142 1.628 4.914C1.4 4.674 1.214 4.398 1.07 4.086C0.938 3.774 0.872 3.444 0.872 3.096C0.872 2.736 0.938 2.4 1.07 2.088C1.214 1.776 1.4 1.506 1.628 1.278C1.856 1.038 2.12 0.851998 2.42 0.719999C2.732 0.575998 3.062 0.503998 3.41 0.503998C3.77 0.503998 4.106 0.575998 4.418 0.719999C4.742 0.851998 5.024 1.038 5.264 1.278C5.504 1.506 5.69 1.776 5.822 2.088C5.966 2.4 6.038 2.736 6.038 3.096ZM13.8705 11.07C14.2665 10.662 14.6745 10.296 15.0945 9.972C15.5265 9.636 15.9825 9.348 16.4625 9.108C16.9425 8.868 17.4525 8.682 17.9925 8.55C18.5325 8.418 19.1205 8.352 19.7565 8.352C20.7645 8.352 21.6465 8.52 22.4025 8.856C23.1705 9.192 23.8125 9.666 24.3285 10.278C24.8565 10.89 25.2525 11.628 25.5165 12.492C25.7805 13.344 25.9125 14.286 25.9125 15.318V27H22.0605V15.318C22.0605 14.082 21.7725 13.122 21.1965 12.438C20.6325 11.754 19.7685 11.412 18.6045 11.412C17.7405 11.412 16.9365 11.61 16.1925 12.006C15.4605 12.402 14.7705 12.942 14.1225 13.626V27H10.2525V8.64H12.5925C13.1205 8.64 13.4565 8.886 13.6005 9.378L13.8705 11.07ZM36.0721 27.288C34.5481 27.288 33.3721 26.862 32.5441 26.01C31.7281 25.146 31.3201 23.934 31.3201 22.374V11.682H29.3041C29.0881 11.682 28.9021 11.616 28.7461 11.484C28.5901 11.34 28.5121 11.13 28.5121 10.854V9.288L31.4821 8.856L32.3281 3.546C32.3881 3.342 32.4901 3.18 32.6341 3.06C32.7781 2.928 32.9701 2.862 33.2101 2.862H35.1901V8.892H40.2841V11.682H35.1901V22.104C35.1901 22.764 35.3521 23.268 35.6761 23.616C36.0001 23.964 36.4321 24.138 36.9721 24.138C37.2721 24.138 37.5301 24.102 37.7461 24.03C37.9621 23.946 38.1481 23.862 38.3041 23.778C38.4601 23.682 38.5921 23.598 38.7001 23.526C38.8201 23.442 38.9341 23.4 39.0421 23.4C39.2581 23.4 39.4321 23.52 39.5641 23.76L40.7161 25.65C40.1161 26.178 39.4081 26.586 38.5921 26.874C37.7761 27.15 36.9361 27.288 36.0721 27.288ZM55.2359 15.75C55.2359 15.102 55.1399 14.502 54.9479 13.95C54.7679 13.386 54.4979 12.9 54.1379 12.492C53.7779 12.072 53.3279 11.748 52.7879 11.52C52.2599 11.28 51.6479 11.16 50.9519 11.16C49.5479 11.16 48.4439 11.562 47.6399 12.366C46.8359 13.17 46.3259 14.298 46.1099 15.75H55.2359ZM46.0019 18.126C46.0499 19.17 46.2119 20.076 46.4879 20.844C46.7639 21.6 47.1299 22.23 47.5859 22.734C48.0539 23.238 48.6059 23.616 49.2419 23.868C49.8899 24.108 50.6099 24.228 51.4019 24.228C52.1579 24.228 52.8119 24.144 53.3639 23.976C53.9159 23.796 54.3959 23.604 54.8039 23.4C55.2119 23.184 55.5599 22.992 55.8479 22.824C56.1359 22.644 56.3999 22.554 56.6399 22.554C56.9519 22.554 57.1919 22.674 57.3599 22.914L58.4579 24.336C58.0019 24.876 57.4859 25.332 56.9099 25.704C56.3339 26.076 55.7219 26.382 55.0739 26.622C54.4259 26.85 53.7599 27.012 53.0759 27.108C52.3919 27.216 51.7259 27.27 51.0779 27.27C49.8059 27.27 48.6239 27.06 47.5319 26.64C46.4519 26.208 45.5099 25.578 44.7059 24.75C43.9139 23.922 43.2899 22.896 42.8339 21.672C42.3899 20.448 42.1679 19.038 42.1679 17.442C42.1679 16.17 42.3659 14.982 42.7619 13.878C43.1699 12.774 43.7459 11.814 44.4899 10.998C45.2459 10.182 46.1579 9.54 47.2259 9.072C48.3059 8.592 49.5239 8.352 50.8799 8.352C52.0079 8.352 53.0519 8.538 54.0119 8.91C54.9719 9.27 55.7999 9.804 56.4959 10.512C57.1919 11.22 57.7319 12.09 58.1159 13.122C58.5119 14.142 58.7099 15.306 58.7099 16.614C58.7099 17.214 58.6439 17.616 58.5119 17.82C58.3799 18.024 58.1399 18.126 57.7919 18.126H46.0019ZM65.9729 12.042C66.5489 10.878 67.2449 9.966 68.0609 9.306C68.8769 8.634 69.8549 8.298 70.9949 8.298C71.3909 8.298 71.7629 8.346 72.1109 8.442C72.4589 8.526 72.7709 8.658 73.0469 8.838L72.7769 11.754C72.7289 11.958 72.6509 12.102 72.5429 12.186C72.4469 12.258 72.3149 12.294 72.1469 12.294C71.9669 12.294 71.7089 12.264 71.3729 12.204C71.0369 12.132 70.6829 12.096 70.3109 12.096C69.7709 12.096 69.2909 12.174 68.8709 12.33C68.4629 12.486 68.0909 12.714 67.7549 13.014C67.4309 13.314 67.1429 13.68 66.8909 14.112C66.6389 14.544 66.4049 15.036 66.1889 15.588V27H62.3189V8.64H64.5689C64.9769 8.64 65.2589 8.718 65.4149 8.874C65.5709 9.018 65.6789 9.276 65.7389 9.648L65.9729 12.042ZM87.0172 15.75C87.0172 15.102 86.9212 14.502 86.7292 13.95C86.5492 13.386 86.2792 12.9 85.9192 12.492C85.5592 12.072 85.1092 11.748 84.5692 11.52C84.0412 11.28 83.4292 11.16 82.7332 11.16C81.3292 11.16 80.2252 11.562 79.4212 12.366C78.6172 13.17 78.1072 14.298 77.8912 15.75H87.0172ZM77.7832 18.126C77.8312 19.17 77.9932 20.076 78.2692 20.844C78.5452 21.6 78.9112 22.23 79.3672 22.734C79.8352 23.238 80.3872 23.616 81.0232 23.868C81.6712 24.108 82.3912 24.228 83.1832 24.228C83.9392 24.228 84.5932 24.144 85.1452 23.976C85.6972 23.796 86.1772 23.604 86.5852 23.4C86.9932 23.184 87.3412 22.992 87.6292 22.824C87.9172 22.644 88.1812 22.554 88.4212 22.554C88.7332 22.554 88.9732 22.674 89.1412 22.914L90.2392 24.336C89.7832 24.876 89.2672 25.332 88.6912 25.704C88.1152 26.076 87.5032 26.382 86.8552 26.622C86.2072 26.85 85.5412 27.012 84.8572 27.108C84.1732 27.216 83.5072 27.27 82.8592 27.27C81.5872 27.27 80.4052 27.06 79.3132 26.64C78.2332 26.208 77.2912 25.578 76.4872 24.75C75.6952 23.922 75.0712 22.896 74.6152 21.672C74.1712 20.448 73.9492 19.038 73.9492 17.442C73.9492 16.17 74.1472 14.982 74.5432 13.878C74.9512 12.774 75.5272 11.814 76.2712 10.998C77.0272 10.182 77.9392 9.54 79.0072 9.072C80.0872 8.592 81.3052 8.352 82.6612 8.352C83.7892 8.352 84.8332 8.538 85.7932 8.91C86.7532 9.27 87.5812 9.804 88.2772 10.512C88.9732 11.22 89.5132 12.09 89.8972 13.122C90.2932 14.142 90.4912 15.306 90.4912 16.614C90.4912 17.214 90.4252 17.616 90.2932 17.82C90.1612 18.024 89.9212 18.126 89.5732 18.126H77.7832ZM105.062 11.97C104.966 12.138 104.858 12.258 104.738 12.33C104.618 12.402 104.468 12.438 104.288 12.438C104.084 12.438 103.862 12.378 103.622 12.258C103.382 12.126 103.1 11.982 102.776 11.826C102.452 11.67 102.068 11.532 101.624 11.412C101.192 11.28 100.682 11.214 100.094 11.214C99.6142 11.214 99.1762 11.274 98.7802 11.394C98.3962 11.502 98.0662 11.664 97.7902 11.88C97.5262 12.084 97.3222 12.33 97.1782 12.618C97.0342 12.894 96.9622 13.194 96.9622 13.518C96.9622 13.95 97.0942 14.31 97.3582 14.598C97.6222 14.886 97.9702 15.138 98.4022 15.354C98.8342 15.558 99.3262 15.744 99.8782 15.912C100.43 16.08 100.994 16.26 101.57 16.452C102.146 16.644 102.71 16.866 103.262 17.118C103.814 17.37 104.306 17.682 104.738 18.054C105.17 18.414 105.518 18.858 105.782 19.386C106.046 19.902 106.178 20.532 106.178 21.276C106.178 22.14 106.022 22.938 105.71 23.67C105.398 24.402 104.942 25.038 104.342 25.578C103.742 26.118 102.992 26.538 102.092 26.838C101.204 27.138 100.184 27.288 99.0322 27.288C98.3962 27.288 97.7782 27.228 97.1782 27.108C96.5902 27 96.0262 26.85 95.4862 26.658C94.9582 26.454 94.4602 26.214 93.9922 25.938C93.5362 25.662 93.1282 25.362 92.7682 25.038L93.6682 23.562C93.7762 23.382 93.9082 23.244 94.0642 23.148C94.2322 23.04 94.4362 22.986 94.6762 22.986C94.9282 22.986 95.1742 23.07 95.4142 23.238C95.6662 23.394 95.9542 23.568 96.2782 23.76C96.6142 23.952 97.0162 24.132 97.4842 24.3C97.9522 24.456 98.5342 24.534 99.2302 24.534C99.8062 24.534 100.304 24.468 100.724 24.336C101.144 24.192 101.492 24 101.768 23.76C102.044 23.52 102.248 23.25 102.38 22.95C102.512 22.638 102.578 22.308 102.578 21.96C102.578 21.492 102.446 21.108 102.182 20.808C101.918 20.508 101.564 20.25 101.12 20.034C100.688 19.818 100.19 19.626 99.6262 19.458C99.0742 19.29 98.5102 19.11 97.9342 18.918C97.3582 18.726 96.7882 18.504 96.2242 18.252C95.6722 18 95.1742 17.682 94.7302 17.298C94.2982 16.902 93.9502 16.428 93.6862 15.876C93.4222 15.312 93.2902 14.628 93.2902 13.824C93.2902 13.092 93.4342 12.396 93.7222 11.736C94.0222 11.076 94.4542 10.494 95.0182 9.99C95.5942 9.486 96.2962 9.09 97.1242 8.802C97.9642 8.502 98.9302 8.352 100.022 8.352C101.258 8.352 102.38 8.55 103.388 8.946C104.396 9.342 105.242 9.882 105.926 10.566L105.062 11.97ZM115.701 27.288C114.177 27.288 113.001 26.862 112.173 26.01C111.357 25.146 110.949 23.934 110.949 22.374V11.682H108.933C108.717 11.682 108.531 11.616 108.375 11.484C108.219 11.34 108.141 11.13 108.141 10.854V9.288L111.111 8.856L111.957 3.546C112.017 3.342 112.119 3.18 112.263 3.06C112.407 2.928 112.599 2.862 112.839 2.862H114.819V8.892H119.913V11.682H114.819V22.104C114.819 22.764 114.981 23.268 115.305 23.616C115.629 23.964 116.061 24.138 116.601 24.138C116.901 24.138 117.159 24.102 117.375 24.03C117.591 23.946 117.777 23.862 117.933 23.778C118.089 23.682 118.221 23.598 118.329 23.526C118.449 23.442 118.563 23.4 118.671 23.4C118.887 23.4 119.061 23.52 119.193 23.76L120.345 25.65C119.745 26.178 119.037 26.586 118.221 26.874C117.405 27.15 116.565 27.288 115.701 27.288ZM134.865 15.75C134.865 15.102 134.769 14.502 134.577 13.95C134.397 13.386 134.127 12.9 133.767 12.492C133.407 12.072 132.957 11.748 132.417 11.52C131.889 11.28 131.277 11.16 130.581 11.16C129.177 11.16 128.073 11.562 127.269 12.366C126.465 13.17 125.955 14.298 125.739 15.75H134.865ZM125.631 18.126C125.679 19.17 125.841 20.076 126.117 20.844C126.393 21.6 126.759 22.23 127.215 22.734C127.683 23.238 128.235 23.616 128.871 23.868C129.519 24.108 130.239 24.228 131.031 24.228C131.787 24.228 132.441 24.144 132.993 23.976C133.545 23.796 134.025 23.604 134.433 23.4C134.841 23.184 135.189 22.992 135.477 22.824C135.765 22.644 136.029 22.554 136.269 22.554C136.581 22.554 136.821 22.674 136.989 22.914L138.087 24.336C137.631 24.876 137.115 25.332 136.539 25.704C135.963 26.076 135.351 26.382 134.703 26.622C134.055 26.85 133.389 27.012 132.705 27.108C132.021 27.216 131.355 27.27 130.707 27.27C129.435 27.27 128.253 27.06 127.161 26.64C126.081 26.208 125.139 25.578 124.335 24.75C123.543 23.922 122.919 22.896 122.463 21.672C122.019 20.448 121.797 19.038 121.797 17.442C121.797 16.17 121.995 14.982 122.391 13.878C122.799 12.774 123.375 11.814 124.119 10.998C124.875 10.182 125.787 9.54 126.855 9.072C127.935 8.592 129.153 8.352 130.509 8.352C131.637 8.352 132.681 8.538 133.641 8.91C134.601 9.27 135.429 9.804 136.125 10.512C136.821 11.22 137.361 12.09 137.745 13.122C138.141 14.142 138.339 15.306 138.339 16.614C138.339 17.214 138.273 17.616 138.141 17.82C138.009 18.024 137.769 18.126 137.421 18.126H125.631ZM153.666 13.158C153.126 12.462 152.532 11.976 151.884 11.7C151.236 11.424 150.534 11.286 149.778 11.286C148.266 11.286 147.084 11.844 146.232 12.96C145.38 14.064 144.954 15.702 144.954 17.874C144.954 19.002 145.05 19.968 145.242 20.772C145.434 21.564 145.71 22.212 146.07 22.716C146.43 23.22 146.868 23.586 147.384 23.814C147.9 24.042 148.482 24.156 149.13 24.156C150.114 24.156 150.96 23.946 151.668 23.526C152.388 23.094 153.054 22.488 153.666 21.708V13.158ZM157.536 0.36V27H155.196C154.68 27 154.35 26.754 154.206 26.262L153.864 24.264C153.096 25.164 152.22 25.89 151.236 26.442C150.264 26.994 149.13 27.27 147.834 27.27C146.802 27.27 145.866 27.066 145.026 26.658C144.186 26.238 143.466 25.632 142.866 24.84C142.266 24.048 141.798 23.07 141.462 21.906C141.138 20.73 140.976 19.386 140.976 17.874C140.976 16.506 141.156 15.24 141.516 14.076C141.888 12.912 142.416 11.904 143.1 11.052C143.784 10.188 144.612 9.516 145.584 9.036C146.568 8.544 147.666 8.298 148.878 8.298C149.958 8.298 150.876 8.472 151.632 8.82C152.388 9.156 153.066 9.63 153.666 10.242V0.36H157.536ZM175.265 8.64V27H171.395V8.64H175.265ZM175.913 3.096C175.913 3.444 175.841 3.774 175.697 4.086C175.565 4.398 175.379 4.674 175.139 4.914C174.899 5.142 174.617 5.328 174.293 5.472C173.981 5.604 173.645 5.67 173.285 5.67C172.937 5.67 172.607 5.604 172.295 5.472C171.995 5.328 171.731 5.142 171.503 4.914C171.275 4.674 171.089 4.398 170.945 4.086C170.813 3.774 170.747 3.444 170.747 3.096C170.747 2.736 170.813 2.4 170.945 2.088C171.089 1.776 171.275 1.506 171.503 1.278C171.731 1.038 171.995 0.851998 172.295 0.719999C172.607 0.575998 172.937 0.503998 173.285 0.503998C173.645 0.503998 173.981 0.575998 174.293 0.719999C174.617 0.851998 174.899 1.038 175.139 1.278C175.379 1.506 175.565 1.776 175.697 2.088C175.841 2.4 175.913 2.736 175.913 3.096ZM183.746 11.07C184.142 10.662 184.55 10.296 184.97 9.972C185.402 9.636 185.858 9.348 186.338 9.108C186.818 8.868 187.328 8.682 187.868 8.55C188.408 8.418 188.996 8.352 189.632 8.352C190.64 8.352 191.522 8.52 192.278 8.856C193.046 9.192 193.688 9.666 194.204 10.278C194.732 10.89 195.128 11.628 195.392 12.492C195.656 13.344 195.788 14.286 195.788 15.318V27H191.936V15.318C191.936 14.082 191.648 13.122 191.072 12.438C190.508 11.754 189.644 11.412 188.48 11.412C187.616 11.412 186.812 11.61 186.068 12.006C185.336 12.402 184.646 12.942 183.998 13.626V27H180.128V8.64H182.468C182.996 8.64 183.332 8.886 183.476 9.378L183.746 11.07ZM372.246 8.64L366.36 27H363.282C362.922 27 362.67 26.766 362.526 26.298L358.872 14.868C358.776 14.544 358.686 14.22 358.602 13.896C358.53 13.572 358.464 13.254 358.404 12.942C358.272 13.59 358.11 14.238 357.918 14.886L354.21 26.298C354.078 26.766 353.796 27 353.364 27H350.43L344.544 8.64H347.604C347.904 8.64 348.15 8.718 348.342 8.874C348.546 9.018 348.678 9.192 348.738 9.396L351.798 20.088C351.918 20.58 352.02 21.06 352.104 21.528C352.2 21.984 352.284 22.44 352.356 22.896C352.476 22.44 352.602 21.984 352.734 21.528C352.866 21.06 353.004 20.58 353.148 20.088L356.586 9.342C356.646 9.126 356.766 8.952 356.946 8.82C357.138 8.676 357.366 8.604 357.63 8.604H359.322C359.598 8.604 359.832 8.676 360.024 8.82C360.216 8.952 360.342 9.126 360.402 9.342L363.75 20.088C363.894 20.58 364.026 21.06 364.146 21.528C364.278 21.996 364.398 22.464 364.506 22.932C364.59 22.476 364.68 22.014 364.776 21.546C364.872 21.078 364.986 20.592 365.118 20.088L368.232 9.396C368.304 9.18 368.436 9 368.628 8.856C368.82 8.712 369.054 8.64 369.33 8.64H372.246ZM379.101 8.64V27H375.231V8.64H379.101ZM379.749 3.096C379.749 3.444 379.677 3.774 379.533 4.086C379.401 4.398 379.215 4.674 378.975 4.914C378.735 5.142 378.453 5.328 378.129 5.472C377.817 5.604 377.481 5.67 377.121 5.67C376.773 5.67 376.443 5.604 376.131 5.472C375.831 5.328 375.567 5.142 375.339 4.914C375.111 4.674 374.925 4.398 374.781 4.086C374.649 3.774 374.583 3.444 374.583 3.096C374.583 2.736 374.649 2.4 374.781 2.088C374.925 1.776 375.111 1.506 375.339 1.278C375.567 1.038 375.831 0.851998 376.131 0.719999C376.443 0.575998 376.773 0.503998 377.121 0.503998C377.481 0.503998 377.817 0.575998 378.129 0.719999C378.453 0.851998 378.735 1.038 378.975 1.278C379.215 1.506 379.401 1.776 379.533 2.088C379.677 2.4 379.749 2.736 379.749 3.096ZM389.849 27.288C388.325 27.288 387.149 26.862 386.321 26.01C385.505 25.146 385.097 23.934 385.097 22.374V11.682H383.081C382.865 11.682 382.679 11.616 382.523 11.484C382.367 11.34 382.289 11.13 382.289 10.854V9.288L385.259 8.856L386.105 3.546C386.165 3.342 386.267 3.18 386.411 3.06C386.555 2.928 386.747 2.862 386.987 2.862H388.967V8.892H394.061V11.682H388.967V22.104C388.967 22.764 389.129 23.268 389.453 23.616C389.777 23.964 390.209 24.138 390.749 24.138C391.049 24.138 391.307 24.102 391.523 24.03C391.739 23.946 391.925 23.862 392.081 23.778C392.237 23.682 392.369 23.598 392.477 23.526C392.597 23.442 392.711 23.4 392.819 23.4C393.035 23.4 393.209 23.52 393.341 23.76L394.493 25.65C393.893 26.178 393.185 26.586 392.369 26.874C391.553 27.15 390.713 27.288 389.849 27.288ZM400.982 10.818C401.738 10.074 402.566 9.48 403.466 9.036C404.366 8.58 405.416 8.352 406.616 8.352C407.624 8.352 408.506 8.52 409.262 8.856C410.03 9.192 410.672 9.666 411.188 10.278C411.716 10.89 412.112 11.628 412.376 12.492C412.64 13.344 412.772 14.286 412.772 15.318V27H408.92V15.318C408.92 14.082 408.632 13.122 408.056 12.438C407.492 11.754 406.628 11.412 405.464 11.412C404.6 11.412 403.796 11.61 403.052 12.006C402.32 12.402 401.63 12.942 400.982 13.626V27H397.112V0.36H400.982V10.818ZM441.736 8.64V27H439.396C438.88 27 438.55 26.754 438.406 26.262L438.118 24.552C437.734 24.96 437.326 25.332 436.894 25.668C436.474 26.004 436.024 26.292 435.544 26.532C435.064 26.772 434.548 26.958 433.996 27.09C433.456 27.222 432.874 27.288 432.25 27.288C431.242 27.288 430.354 27.12 429.586 26.784C428.818 26.448 428.17 25.974 427.642 25.362C427.126 24.75 426.736 24.018 426.472 23.166C426.208 22.302 426.076 21.354 426.076 20.322V8.64H429.946V20.322C429.946 21.558 430.228 22.518 430.792 23.202C431.368 23.886 432.238 24.228 433.402 24.228C434.254 24.228 435.046 24.036 435.778 23.652C436.522 23.256 437.218 22.716 437.866 22.032V8.64H441.736ZM457.398 11.97C457.302 12.138 457.194 12.258 457.074 12.33C456.954 12.402 456.804 12.438 456.624 12.438C456.42 12.438 456.198 12.378 455.958 12.258C455.718 12.126 455.436 11.982 455.112 11.826C454.788 11.67 454.404 11.532 453.96 11.412C453.528 11.28 453.018 11.214 452.43 11.214C451.95 11.214 451.512 11.274 451.116 11.394C450.732 11.502 450.402 11.664 450.126 11.88C449.862 12.084 449.658 12.33 449.514 12.618C449.37 12.894 449.298 13.194 449.298 13.518C449.298 13.95 449.43 14.31 449.694 14.598C449.958 14.886 450.306 15.138 450.738 15.354C451.17 15.558 451.662 15.744 452.214 15.912C452.766 16.08 453.33 16.26 453.906 16.452C454.482 16.644 455.046 16.866 455.598 17.118C456.15 17.37 456.642 17.682 457.074 18.054C457.506 18.414 457.854 18.858 458.118 19.386C458.382 19.902 458.514 20.532 458.514 21.276C458.514 22.14 458.358 22.938 458.046 23.67C457.734 24.402 457.278 25.038 456.678 25.578C456.078 26.118 455.328 26.538 454.428 26.838C453.54 27.138 452.52 27.288 451.368 27.288C450.732 27.288 450.114 27.228 449.514 27.108C448.926 27 448.362 26.85 447.822 26.658C447.294 26.454 446.796 26.214 446.328 25.938C445.872 25.662 445.464 25.362 445.104 25.038L446.004 23.562C446.112 23.382 446.244 23.244 446.4 23.148C446.568 23.04 446.772 22.986 447.012 22.986C447.264 22.986 447.51 23.07 447.75 23.238C448.002 23.394 448.29 23.568 448.614 23.76C448.95 23.952 449.352 24.132 449.82 24.3C450.288 24.456 450.87 24.534 451.566 24.534C452.142 24.534 452.64 24.468 453.06 24.336C453.48 24.192 453.828 24 454.104 23.76C454.38 23.52 454.584 23.25 454.716 22.95C454.848 22.638 454.914 22.308 454.914 21.96C454.914 21.492 454.782 21.108 454.518 20.808C454.254 20.508 453.9 20.25 453.456 20.034C453.024 19.818 452.526 19.626 451.962 19.458C451.41 19.29 450.846 19.11 450.27 18.918C449.694 18.726 449.124 18.504 448.56 18.252C448.008 18 447.51 17.682 447.066 17.298C446.634 16.902 446.286 16.428 446.022 15.876C445.758 15.312 445.626 14.628 445.626 13.824C445.626 13.092 445.77 12.396 446.058 11.736C446.358 11.076 446.79 10.494 447.354 9.99C447.93 9.486 448.632 9.09 449.46 8.802C450.3 8.502 451.266 8.352 452.358 8.352C453.594 8.352 454.716 8.55 455.724 8.946C456.732 9.342 457.578 9.882 458.262 10.566L457.398 11.97ZM460.634 3.402C461.03 3.042 461.462 2.706 461.93 2.394C462.398 2.082 462.902 1.806 463.442 1.566C463.994 1.326 464.588 1.14 465.224 1.008C465.872 0.863998 466.568 0.791998 467.312 0.791998C468.308 0.791998 469.22 0.935999 470.048 1.224C470.888 1.5 471.608 1.902 472.208 2.43C472.82 2.946 473.294 3.576 473.63 4.32C473.966 5.052 474.134 5.874 474.134 6.786C474.134 7.698 474.002 8.49 473.738 9.162C473.474 9.822 473.138 10.398 472.73 10.89C472.322 11.382 471.878 11.814 471.398 12.186C470.918 12.546 470.462 12.888 470.03 13.212C469.61 13.524 469.244 13.842 468.932 14.166C468.632 14.478 468.452 14.826 468.392 15.21L468.014 17.91H465.386L465.116 14.94C465.056 14.376 465.146 13.89 465.386 13.482C465.626 13.074 465.944 12.69 466.34 12.33C466.748 11.97 467.192 11.628 467.672 11.304C468.164 10.968 468.62 10.596 469.04 10.188C469.46 9.78 469.814 9.324 470.102 8.82C470.39 8.316 470.534 7.71 470.534 7.002C470.534 6.534 470.444 6.114 470.264 5.742C470.084 5.358 469.832 5.034 469.508 4.77C469.184 4.506 468.806 4.302 468.374 4.158C467.942 4.014 467.474 3.942 466.97 3.942C466.262 3.942 465.662 4.026 465.17 4.194C464.678 4.362 464.258 4.548 463.91 4.752C463.562 4.944 463.274 5.124 463.046 5.292C462.818 5.448 462.626 5.526 462.47 5.526C462.098 5.526 461.822 5.364 461.642 5.04L460.634 3.402ZM464.09 24.768C464.09 24.42 464.15 24.096 464.27 23.796C464.402 23.484 464.576 23.214 464.792 22.986C465.02 22.758 465.284 22.578 465.584 22.446C465.896 22.314 466.226 22.248 466.574 22.248C466.922 22.248 467.246 22.314 467.546 22.446C467.858 22.578 468.128 22.758 468.356 22.986C468.584 23.214 468.764 23.484 468.896 23.796C469.028 24.096 469.094 24.42 469.094 24.768C469.094 25.128 469.028 25.458 468.896 25.758C468.764 26.058 468.584 26.322 468.356 26.55C468.128 26.778 467.858 26.952 467.546 27.072C467.246 27.204 466.922 27.27 466.574 27.27C466.226 27.27 465.896 27.204 465.584 27.072C465.284 26.952 465.02 26.778 464.792 26.55C464.576 26.322 464.402 26.058 464.27 25.758C464.15 25.458 464.09 25.128 464.09 24.768Z" fill="white"/>
<path d="M235.066 8.64L229.18 27H226.102C225.742 27 225.49 26.766 225.346 26.298L221.692 14.868C221.596 14.544 221.506 14.22 221.422 13.896C221.35 13.572 221.284 13.254 221.224 12.942C221.092 13.59 220.93 14.238 220.738 14.886L217.03 26.298C216.898 26.766 216.616 27 216.184 27H213.25L207.364 8.64H210.424C210.724 8.64 210.97 8.718 211.162 8.874C211.366 9.018 211.498 9.192 211.558 9.396L214.618 20.088C214.738 20.58 214.84 21.06 214.924 21.528C215.02 21.984 215.104 22.44 215.176 22.896C215.296 22.44 215.422 21.984 215.554 21.528C215.686 21.06 215.824 20.58 215.968 20.088L219.406 9.342C219.466 9.126 219.586 8.952 219.766 8.82C219.958 8.676 220.186 8.604 220.45 8.604H222.142C222.418 8.604 222.652 8.676 222.844 8.82C223.036 8.952 223.162 9.126 223.222 9.342L226.57 20.088C226.714 20.58 226.846 21.06 226.966 21.528C227.098 21.996 227.218 22.464 227.326 22.932C227.41 22.476 227.5 22.014 227.596 21.546C227.692 21.078 227.806 20.592 227.938 20.088L231.052 9.396C231.124 9.18 231.256 9 231.448 8.856C231.64 8.712 231.874 8.64 232.15 8.64H235.066ZM245.546 8.352C246.902 8.352 248.126 8.574 249.218 9.018C250.322 9.462 251.258 10.092 252.026 10.908C252.806 11.724 253.406 12.714 253.826 13.878C254.246 15.042 254.456 16.35 254.456 17.802C254.456 19.254 254.246 20.562 253.826 21.726C253.406 22.89 252.806 23.886 252.026 24.714C251.258 25.53 250.322 26.16 249.218 26.604C248.126 27.048 246.902 27.27 245.546 27.27C244.178 27.27 242.942 27.048 241.838 26.604C240.746 26.16 239.81 25.53 239.03 24.714C238.25 23.886 237.65 22.89 237.23 21.726C236.81 20.562 236.6 19.254 236.6 17.802C236.6 16.35 236.81 15.042 237.23 13.878C237.65 12.714 238.25 11.724 239.03 10.908C239.81 10.092 240.746 9.462 241.838 9.018C242.942 8.574 244.178 8.352 245.546 8.352ZM245.546 24.246C247.202 24.246 248.432 23.694 249.236 22.59C250.052 21.474 250.46 19.884 250.46 17.82C250.46 15.756 250.052 14.166 249.236 13.05C248.432 11.922 247.202 11.358 245.546 11.358C243.866 11.358 242.618 11.922 241.802 13.05C240.986 14.166 240.578 15.756 240.578 17.82C240.578 19.884 240.986 21.474 241.802 22.59C242.618 23.694 243.866 24.246 245.546 24.246ZM261.828 12.042C262.404 10.878 263.1 9.966 263.916 9.306C264.732 8.634 265.71 8.298 266.85 8.298C267.246 8.298 267.618 8.346 267.966 8.442C268.314 8.526 268.626 8.658 268.902 8.838L268.632 11.754C268.584 11.958 268.506 12.102 268.398 12.186C268.302 12.258 268.17 12.294 268.002 12.294C267.822 12.294 267.564 12.264 267.228 12.204C266.892 12.132 266.538 12.096 266.166 12.096C265.626 12.096 265.146 12.174 264.726 12.33C264.318 12.486 263.946 12.714 263.61 13.014C263.286 13.314 262.998 13.68 262.746 14.112C262.494 14.544 262.26 15.036 262.044 15.588V27H258.174V8.64H260.424C260.832 8.64 261.114 8.718 261.27 8.874C261.426 9.018 261.534 9.276 261.594 9.648L261.828 12.042ZM275.333 0.36V15.804H276.161C276.425 15.804 276.641 15.768 276.809 15.696C276.977 15.624 277.151 15.474 277.331 15.246L282.479 9.36C282.659 9.12 282.857 8.94 283.073 8.82C283.289 8.7 283.565 8.64 283.901 8.64H287.411L281.219 15.624C280.859 16.092 280.463 16.464 280.031 16.74C280.271 16.908 280.481 17.1 280.661 17.316C280.841 17.52 281.015 17.754 281.183 18.018L287.789 27H284.333C284.021 27 283.751 26.952 283.523 26.856C283.307 26.748 283.115 26.556 282.947 26.28L277.637 19.08C277.457 18.804 277.277 18.63 277.097 18.558C276.917 18.474 276.647 18.432 276.287 18.432H275.333V27H271.463V0.36H275.333ZM294.304 8.64V27H290.434V8.64H294.304ZM294.952 3.096C294.952 3.444 294.88 3.774 294.736 4.086C294.604 4.398 294.418 4.674 294.178 4.914C293.938 5.142 293.656 5.328 293.332 5.472C293.02 5.604 292.684 5.67 292.324 5.67C291.976 5.67 291.646 5.604 291.334 5.472C291.034 5.328 290.77 5.142 290.542 4.914C290.314 4.674 290.128 4.398 289.984 4.086C289.852 3.774 289.786 3.444 289.786 3.096C289.786 2.736 289.852 2.4 289.984 2.088C290.128 1.776 290.314 1.506 290.542 1.278C290.77 1.038 291.034 0.851998 291.334 0.719999C291.646 0.575998 291.976 0.503998 292.324 0.503998C292.684 0.503998 293.02 0.575998 293.332 0.719999C293.656 0.851998 293.938 1.038 294.178 1.278C294.418 1.506 294.604 1.776 294.736 2.088C294.88 2.4 294.952 2.736 294.952 3.096ZM302.785 11.07C303.181 10.662 303.589 10.296 304.009 9.972C304.441 9.636 304.897 9.348 305.377 9.108C305.857 8.868 306.367 8.682 306.907 8.55C307.447 8.418 308.035 8.352 308.671 8.352C309.679 8.352 310.561 8.52 311.317 8.856C312.085 9.192 312.727 9.666 313.243 10.278C313.771 10.89 314.167 11.628 314.431 12.492C314.695 13.344 314.827 14.286 314.827 15.318V27H310.975V15.318C310.975 14.082 310.687 13.122 310.111 12.438C309.547 11.754 308.683 11.412 307.519 11.412C306.655 11.412 305.851 11.61 305.107 12.006C304.375 12.402 303.685 12.942 303.037 13.626V27H299.167V8.64H301.507C302.035 8.64 302.371 8.886 302.515 9.378L302.785 11.07ZM325.898 17.658C327.098 17.658 327.998 17.352 328.598 16.74C329.198 16.128 329.498 15.33 329.498 14.346C329.498 13.338 329.198 12.54 328.598 11.952C327.998 11.364 327.098 11.07 325.898 11.07C324.71 11.07 323.81 11.364 323.198 11.952C322.598 12.54 322.298 13.338 322.298 14.346C322.298 14.826 322.376 15.27 322.532 15.678C322.688 16.086 322.916 16.44 323.216 16.74C323.516 17.028 323.888 17.256 324.332 17.424C324.788 17.58 325.31 17.658 325.898 17.658ZM331.28 27.9C331.28 27.492 331.16 27.168 330.92 26.928C330.692 26.676 330.38 26.484 329.984 26.352C329.588 26.208 329.126 26.106 328.598 26.046C328.07 25.974 327.506 25.926 326.906 25.902C326.318 25.866 325.712 25.836 325.088 25.812C324.476 25.776 323.882 25.716 323.306 25.632C322.73 25.932 322.256 26.292 321.884 26.712C321.524 27.132 321.344 27.618 321.344 28.17C321.344 28.53 321.434 28.866 321.614 29.178C321.806 29.49 322.094 29.76 322.478 29.988C322.874 30.216 323.372 30.396 323.972 30.528C324.584 30.66 325.316 30.726 326.168 30.726C327.872 30.726 329.15 30.462 330.002 29.934C330.854 29.406 331.28 28.728 331.28 27.9ZM335.168 9.306V10.746C335.168 11.226 334.88 11.52 334.304 11.628L332.468 11.934C332.78 12.63 332.936 13.404 332.936 14.256C332.936 15.156 332.756 15.972 332.396 16.704C332.048 17.436 331.562 18.06 330.938 18.576C330.314 19.092 329.57 19.488 328.706 19.764C327.842 20.04 326.906 20.178 325.898 20.178C325.514 20.178 325.136 20.16 324.764 20.124C324.404 20.076 324.05 20.016 323.702 19.944C323.354 20.148 323.096 20.364 322.928 20.592C322.76 20.82 322.676 21.054 322.676 21.294C322.676 21.69 322.85 21.984 323.198 22.176C323.546 22.368 324.002 22.506 324.566 22.59C325.142 22.674 325.796 22.728 326.528 22.752C327.26 22.776 328.004 22.818 328.76 22.878C329.516 22.938 330.26 23.04 330.992 23.184C331.724 23.316 332.372 23.544 332.936 23.868C333.512 24.18 333.974 24.606 334.322 25.146C334.67 25.686 334.844 26.388 334.844 27.252C334.844 28.044 334.646 28.818 334.25 29.574C333.854 30.33 333.278 31.002 332.522 31.59C331.778 32.178 330.866 32.646 329.786 32.994C328.706 33.354 327.476 33.534 326.096 33.534C324.728 33.534 323.534 33.402 322.514 33.138C321.506 32.874 320.66 32.514 319.976 32.058C319.304 31.614 318.8 31.098 318.464 30.51C318.14 29.922 317.978 29.31 317.978 28.674C317.978 27.81 318.248 27.072 318.788 26.46C319.34 25.848 320.084 25.368 321.02 25.02C320.516 24.78 320.108 24.45 319.796 24.03C319.496 23.61 319.346 23.058 319.346 22.374C319.346 21.834 319.544 21.27 319.94 20.682C320.336 20.094 320.93 19.596 321.722 19.188C320.81 18.684 320.09 18.018 319.562 17.19C319.034 16.35 318.77 15.372 318.77 14.256C318.77 13.344 318.944 12.522 319.292 11.79C319.652 11.058 320.15 10.434 320.786 9.918C321.422 9.402 322.172 9.006 323.036 8.73C323.912 8.454 324.866 8.316 325.898 8.316C327.482 8.316 328.862 8.646 330.038 9.306H335.168Z" fill="#00C88F"/>
</svg>
