<svg width="35" height="35" viewBox="0 0 35 35" fill="none" xmlns="http://www.w3.org/2000/svg">
<path d="M17 32C25.8366 32 33 24.8366 33 16C33 7.16344 25.8366 0 17 0C8.16344 0 1 7.16344 1 16C1 24.8366 8.16344 32 17 32Z" fill="#00C88F"/>
<path d="M26.8694 15.0003C26.8694 12.6788 24.9872 10.7983 22.6673 10.7983H11.921C9.59943 10.7983 7.71899 12.6805 7.71899 15.0003V20.0016C7.71899 22.3231 9.60116 24.2036 11.921 24.2036H22.6656C24.9872 24.2036 26.8676 22.3231 26.8676 20.0016V15.0003H26.8694ZM20.5499 17.8738L15.7303 20.2576C15.5418 20.3597 14.8999 20.223 14.8999 20.0085V15.1163C14.8999 14.8983 15.5469 14.7616 15.7355 14.8706L20.3475 17.3807C20.543 17.488 20.7454 17.7682 20.5499 17.8738Z" fill="white"/>
</svg>
